<?xml version="1.0" standalone="no"?>
<!DOCTYPE svg PUBLIC "-//W3C//DTD SVG 20010904//EN"
 "http://www.w3.org/TR/2001/REC-SVG-20010904/DTD/svg10.dtd">
<svg version="1.0" xmlns="http://www.w3.org/2000/svg"
 width="1254.000000pt" height="1254.000000pt" viewBox="0 0 1254.000000 1254.000000"
 preserveAspectRatio="xMidYMid meet">

<g transform="translate(0.000000,1254.000000) scale(0.100000,-0.100000)"
fill="#000000" stroke="none">
<path d="M5625 11555 c-369 -41 -693 -125 -940 -245 -312 -151 -497 -345 -512
-535 -5 -54 2 -87 55 -271 57 -195 107 -384 114 -428 2 -15 -13 -25 -73 -51
-321 -136 -716 -384 -1009 -634 -137 -117 -384 -366 -491 -496 -584 -705 -906
-1508 -970 -2415 -46 -660 119 -1447 436 -2080 30 -60 55 -112 55 -115 0 -3
-9 -5 -21 -5 -39 0 -146 -59 -184 -101 -20 -23 -49 -67 -64 -98 -25 -53 -26
-67 -31 -248 l-5 -192 -57 -35 c-162 -97 -269 -239 -304 -404 -18 -89 -18
-326 1 -416 34 -160 152 -320 297 -399 l66 -37 4 -183 c3 -182 3 -182 35 -248
58 -117 173 -204 303 -229 31 -6 248 -10 520 -10 l468 0 41 -87 c50 -103 141
-199 238 -251 66 -35 195 -72 249 -72 25 0 38 -7 50 -26 34 -50 53 -54 279
-47 198 6 209 7 235 30 27 22 33 23 224 23 160 0 213 -4 287 -20 137 -31 379
-69 539 -85 119 -12 145 -17 153 -32 5 -10 51 -60 102 -110 71 -71 99 -93 119
-93 28 0 80 22 107 46 12 11 23 12 42 5 20 -8 27 -20 36 -63 7 -29 21 -63 33
-75 21 -22 28 -23 173 -23 144 0 153 1 173 23 11 12 24 41 28 63 7 50 12 56
44 70 21 9 32 6 70 -16 73 -45 82 -45 134 -2 26 22 79 74 117 118 l71 79 151
17 c145 16 469 67 560 88 23 5 134 10 246 10 202 0 203 0 233 -25 28 -24 36
-25 176 -27 308 -6 286 -8 329 35 29 28 47 37 72 37 50 0 146 28 220 63 99 47
207 158 257 264 l39 82 480 1 c393 0 491 3 538 15 133 35 226 109 280 223 32
66 32 68 35 250 l4 183 61 31 c88 43 201 161 250 258 50 101 67 186 67 353 0
249 -43 372 -179 507 -44 43 -102 89 -138 108 l-62 32 -3 198 c-3 192 -4 198
-30 248 -55 104 -129 163 -239 190 l-65 16 43 83 c93 180 215 485 268 674 24
87 30 98 83 150 93 92 146 212 158 360 8 100 -13 198 -66 307 l-41 84 13 68
c21 112 16 442 -9 592 -12 69 -24 154 -28 189 -13 127 -65 409 -104 562 -114
447 -331 892 -639 1313 l-51 69 16 39 c22 56 14 178 -17 238 -34 67 -76 114
-123 140 -23 13 -43 24 -45 25 -2 2 4 25 13 53 67 204 -207 433 -437 366 -12
-4 -23 6 -37 33 -20 39 -77 98 -122 125 -101 62 -285 61 -398 -3 l-36 -20
-155 91 c-242 142 -540 282 -743 349 -53 18 -67 26 -63 39 43 139 146 559 146
594 0 290 -503 603 -1147 713 -267 45 -729 59 -998 30z m590 -125 c346 -12
525 -41 785 -126 239 -78 460 -201 550 -305 108 -125 114 -155 65 -334 -19
-71 -70 -267 -112 -435 -43 -168 -79 -307 -80 -309 -16 -24 -1 119 28 274 11
61 45 216 75 346 30 131 54 248 54 261 0 43 -50 127 -105 176 -184 163 -563
306 -945 356 -270 35 -648 40 -870 10 -156 -20 -520 -99 -520 -112 0 -4 9
-122 20 -262 11 -140 27 -399 35 -575 9 -176 18 -353 21 -394 l6 -73 61 7 c34
3 59 4 56 0 -4 -3 -56 -19 -117 -35 -63 -16 -129 -41 -151 -56 -34 -22 -48
-26 -88 -21 -28 3 -62 -1 -86 -9 -22 -8 -43 -14 -48 -14 -5 0 -9 28 -9 63 0
170 -48 527 -115 857 -25 124 -51 252 -57 285 -6 33 -13 62 -14 63 -5 8 -132
-84 -182 -132 -57 -54 -97 -113 -112 -168 -8 -27 -4 -51 19 -128 99 -322 159
-596 181 -828 8 -86 9 -127 2 -134 -7 -7 -13 1 -17 28 -41 239 -116 554 -207
858 -55 187 -56 211 -14 295 58 114 209 238 411 336 254 124 563 200 950 234
136 11 226 12 530 1z m570 -1149 c9 -27 21 -54 28 -59 15 -12 137 -24 137 -14
0 4 15 24 33 46 l32 38 63 -36 c34 -21 62 -39 62 -42 0 -3 -9 -27 -21 -54
l-21 -49 43 -50 c46 -53 60 -58 116 -42 39 11 46 4 73 -75 23 -66 21 -72 -47
-96 -32 -12 -33 -14 -33 -69 0 -53 3 -59 35 -88 20 -17 41 -31 47 -31 15 0 3
-70 -16 -89 -13 -12 -22 -13 -53 -3 -34 11 -40 10 -54 -7 -16 -20 -17 -20 -85
0 -38 11 -74 22 -81 24 -8 3 -1 24 20 62 28 51 32 67 31 133 -1 85 -16 129
-64 184 -52 58 -111 88 -188 94 -128 9 -213 -38 -269 -147 -40 -77 -45 -159
-13 -230 11 -24 20 -45 20 -47 0 -2 -36 -4 -80 -4 -51 0 -80 4 -80 11 0 7 -21
10 -57 7 l-57 -3 -12 68 -11 69 44 19 c25 10 48 19 52 19 5 0 15 27 23 59 l14
60 -44 44 -44 45 26 43 c51 86 46 83 110 55 l57 -25 47 36 c46 35 47 37 52
102 l5 66 50 12 c88 20 92 19 110 -36z m1000 -268 c172 -68 430 -197 590 -293
140 -84 129 -76 120 -90 -4 -7 -16 -4 -35 10 -15 11 -56 27 -90 36 -74 19
-156 9 -234 -30 l-48 -24 -142 69 c-132 65 -332 149 -354 149 -23 0 -20 -66 6
-118 28 -59 28 -39 -5 -232 -3 -21 2 -28 37 -43 85 -39 199 -123 291 -216 78
-79 103 -112 140 -186 25 -49 49 -91 54 -92 23 -4 32 -73 10 -73 -8 0 -30 35
-53 83 -73 156 -224 308 -419 424 -48 29 -93 56 -100 60 -9 6 -7 29 7 93 26
113 25 138 -7 184 l-26 40 17 89 c9 49 24 121 33 159 19 83 2 83 208 1z m-881
-17 c48 -20 107 -75 127 -121 37 -80 17 -198 -42 -252 -21 -19 -31 -21 -74
-15 l-50 7 37 22 c48 28 70 64 75 121 12 136 -135 222 -244 143 -50 -37 -67
-76 -61 -146 4 -48 10 -61 42 -94 l38 -39 -49 5 c-36 4 -54 12 -71 31 -51 61
-53 172 -5 251 53 85 184 126 277 87z m-2490 -240 c22 -125 22 -142 9 -162
-12 -19 -13 -44 -8 -134 4 -60 4 -110 -1 -110 -4 0 -82 12 -173 26 -232 36
-376 32 -473 -13 -89 -42 -160 -110 -200 -190 -41 -83 -50 -197 -23 -289 54
-188 231 -380 447 -485 l44 -21 -19 -39 c-34 -69 -21 -196 26 -255 12 -16 34
-64 49 -108 25 -74 26 -82 11 -109 -8 -16 -20 -57 -27 -90 -12 -56 -15 -62
-44 -69 -17 -5 -33 -17 -37 -27 -7 -22 -27 -29 -116 -37 -58 -6 -74 -3 -122
19 -84 38 -116 104 -74 153 39 45 90 13 65 -41 -15 -34 -5 -40 40 -27 130 39
117 212 -20 283 -151 78 -338 -34 -384 -230 -39 -165 15 -330 156 -471 85 -86
200 -151 332 -190 l77 -23 6 -46 c15 -110 48 -212 107 -331 35 -69 64 -128 66
-132 2 -5 -17 -17 -42 -28 -59 -25 -158 -92 -216 -146 -29 -27 -72 -52 -120
-71 -92 -36 -217 -119 -289 -192 -40 -41 -69 -85 -112 -175 -33 -67 -59 -126
-59 -133 0 -7 -30 -29 -66 -49 -37 -21 -96 -64 -133 -97 -36 -32 -89 -72 -117
-88 -78 -45 -200 -153 -255 -227 -109 -147 -159 -299 -159 -488 0 -195 59
-356 176 -483 35 -38 64 -72 64 -75 0 -3 -8 -6 -18 -6 -40 0 -166 157 -213
268 -98 227 -68 545 72 763 54 83 208 235 284 279 33 19 87 57 120 86 33 28
92 72 130 96 68 43 71 47 103 126 86 210 236 359 446 438 44 17 88 43 116 69
64 59 118 99 170 125 25 12 46 23 48 25 1 1 -15 38 -37 81 -49 97 -97 241
-106 314 l-7 55 -102 33 c-384 123 -591 516 -429 814 37 68 121 142 185 164
63 22 159 22 209 1 87 -36 151 -126 152 -216 1 -82 -58 -158 -127 -163 -34 -3
-33 -13 4 -28 82 -34 240 17 240 78 0 15 9 47 20 71 11 24 20 48 20 54 0 21
-53 142 -75 172 -47 62 -69 193 -43 265 8 24 8 35 1 37 -28 10 -155 91 -210
136 -191 153 -297 402 -254 590 5 21 5 37 1 35 -22 -8 -189 -160 -291 -266
-529 -545 -882 -1233 -1005 -1960 -13 -79 -24 -158 -24 -176 l0 -33 86 -11
c102 -14 163 -41 224 -102 63 -62 92 -126 98 -214 6 -102 -22 -173 -97 -247
-71 -69 -143 -100 -254 -107 l-78 -5 6 -76 c36 -415 132 -797 288 -1146 81
-181 89 -198 154 -318 36 -65 63 -120 61 -122 -5 -4 -193 -35 -216 -35 -41 0
-203 339 -305 636 -105 307 -162 557 -204 904 -21 180 -25 641 -5 800 103 833
398 1529 918 2161 363 441 874 838 1384 1074 158 74 138 88 174 -119z m1801
106 c48 -8 49 -9 24 -19 -15 -7 -29 -19 -32 -27 -4 -10 -19 -16 -41 -16 -50 0
-54 -17 -6 -30 32 -9 40 -15 40 -35 0 -13 3 -30 6 -39 5 -13 1 -15 -25 -10
-39 8 -281 -5 -281 -16 0 -4 46 -10 103 -14 127 -8 229 -25 221 -37 -3 -5 -19
-9 -35 -9 -51 0 -332 -58 -674 -140 -466 -112 -693 -150 -884 -150 -73 0 -72
7 11 40 32 13 56 25 54 28 -4 4 -107 -16 -136 -26 -12 -4 -11 -1 3 15 15 18
113 67 171 87 10 4 16 9 13 13 -4 3 -45 -6 -92 -21 -46 -15 -88 -28 -92 -29
-4 -1 -9 5 -11 14 -3 18 83 81 177 128 34 18 61 35 58 37 -11 12 -194 -63
-228 -93 -14 -12 -17 -11 -22 7 -8 32 37 74 130 120 244 120 593 203 978 234
78 6 514 -3 570 -12z m1183 -156 c15 -8 35 -23 45 -34 18 -20 18 -24 2 -104
-10 -46 -18 -84 -19 -86 -2 -1 -17 3 -34 9 -36 12 -43 29 -12 29 21 0 27 15
10 25 -6 4 -7 13 -1 23 4 9 11 34 14 54 5 31 1 44 -20 68 -28 33 -25 37 15 16z
m1532 -28 c39 -15 89 -56 105 -88 14 -28 13 -30 -60 -140 -71 -107 -135 -224
-135 -249 0 -6 26 19 59 57 78 91 184 178 270 222 127 64 332 -41 335 -171 l1
-42 -114 -66 c-63 -36 -140 -90 -170 -119 -33 -31 -46 -48 -31 -41 14 7 68 29
121 49 l96 36 84 -24 c46 -14 97 -34 113 -45 64 -45 100 -196 58 -247 -17 -21
-26 -22 -182 -24 -91 -1 -174 -6 -184 -11 -13 -5 -17 -5 -13 2 4 5 28 18 54
28 68 25 78 39 23 30 -60 -9 -172 -63 -250 -121 l-63 -46 -54 26 c-29 14 -53
29 -53 33 0 5 32 50 70 101 39 52 70 96 70 99 0 7 -60 -36 -142 -105 l-78 -64
-57 20 c-56 18 -58 20 -55 52 1 18 20 78 42 134 22 56 40 106 40 111 0 10 -67
-98 -119 -190 -18 -33 -34 -61 -35 -62 0 -1 -35 7 -76 16 l-75 18 0 72 c0 56
-2 68 -12 56 -15 -21 -19 -12 -28 58 -3 32 -9 57 -11 54 -2 -2 -9 -30 -14 -63
-6 -32 -13 -70 -16 -84 l-6 -25 -13 30 c-13 30 -13 29 -14 -25 l-1 -55 -80 3
c-69 3 -80 6 -80 21 0 55 -48 191 -112 320 -78 157 -84 187 -49 244 24 40 84
83 132 97 79 23 189 2 210 -40 4 -8 18 -72 30 -142 13 -70 27 -124 31 -120 4
4 8 48 10 97 3 74 5 86 14 66 13 -29 16 -24 39 54 39 135 91 188 215 216 39 8
121 2 160 -13z m-2114 -139 c395 -38 776 -200 999 -424 129 -128 196 -249 211
-379 9 -76 -23 -176 -80 -254 -46 -61 -128 -128 -146 -117 -19 12 -10 36 24
66 87 76 142 202 133 306 -18 223 -301 475 -689 614 -236 84 -409 113 -693
113 -287 0 -466 -27 -914 -138 -278 -70 -503 -120 -666 -148 -110 -19 -168
-22 -380 -23 -215 0 -272 3 -404 24 -190 29 -282 26 -368 -13 -74 -34 -91 -50
-119 -111 -46 -97 -27 -207 57 -335 16 -24 18 -31 7 -22 -31 25 -92 125 -115
191 -58 157 -7 293 135 363 65 32 70 33 192 32 69 0 165 -8 215 -17 309 -56
611 -46 985 34 52 11 221 51 375 89 313 78 533 123 675 139 52 6 109 13 125
15 70 8 340 5 441 -5z m-575 -414 c31 -7 73 -24 93 -35 39 -24 50 -13 14 14
-22 16 -17 17 90 11 63 -3 159 -14 215 -25 56 -11 103 -20 104 -20 1 0 14 -24
30 -52 16 -29 35 -63 43 -75 14 -21 12 -25 -24 -62 -34 -35 -36 -41 -24 -60 7
-11 48 -46 90 -76 114 -82 111 -85 -72 -57 -262 39 -575 4 -825 -94 -107 -41
-161 -72 -246 -139 -131 -103 -164 -153 -163 -250 1 -41 9 -81 27 -125 14 -35
25 -65 23 -67 -5 -6 -47 78 -66 133 -27 79 -26 140 5 198 13 25 21 46 16 46
-17 0 -90 -60 -96 -79 -3 -12 -11 -21 -16 -21 -6 0 -7 9 -4 20 6 19 2 20 -95
20 -117 0 -166 -15 -176 -54 -3 -13 -21 -35 -40 -48 -19 -13 -34 -26 -34 -30
0 -5 -4 -8 -9 -8 -5 0 -11 22 -15 49 -6 49 -7 50 -57 66 -28 10 -52 15 -55 13
-2 -3 5 -25 16 -49 11 -24 20 -55 20 -69 0 -19 -5 -14 -24 25 -13 28 -34 59
-47 71 -48 42 -181 106 -252 120 -82 17 -234 22 -322 10 -58 -8 -59 -7 -43 10
9 11 26 55 38 99 21 79 79 201 125 261 23 30 28 32 122 39 242 17 458 55 848
151 121 30 231 57 244 60 22 5 23 4 10 -12 -10 -12 0 -10 37 9 28 14 89 33
135 41 46 8 111 24 144 35 72 24 142 26 216 6z m703 -115 c152 -59 288 -142
376 -232 l51 -52 -63 -19 c-83 -24 -77 -24 -126 8 -54 36 -64 27 -16 -15 l37
-32 -24 -19 c-13 -10 -30 -16 -38 -14 -7 3 -44 10 -82 17 -54 8 -72 16 -84 35
-9 13 -49 48 -90 78 -40 30 -76 59 -79 64 -6 9 58 71 73 71 5 0 34 -11 66 -25
32 -14 59 -24 62 -22 2 3 -27 26 -65 52 -67 45 -95 73 -121 123 -12 23 -12 24
18 17 16 -3 64 -19 105 -35z m1326 -230 c14 -5 18 -8 9 -9 -20 -1 -91 -77
-113 -119 -9 -17 -16 -40 -16 -52 0 -14 -6 -20 -21 -20 -17 0 -20 4 -15 23 4
12 9 52 13 89 5 60 8 68 32 77 53 20 75 22 111 11z m230 -24 c25 -11 25 -12
-67 -100 l-92 -88 -66 7 c-64 6 -65 7 -65 36 0 63 59 132 131 154 46 14 116
10 159 -9z m230 -55 c20 -6 44 -17 55 -24 17 -14 17 -16 -13 -53 -40 -50 -143
-104 -199 -104 -44 0 -153 32 -153 45 0 26 79 112 121 134 47 23 115 23 189 2z
m864 -27 l76 -7 37 -51 c327 -454 513 -835 641 -1313 17 -62 29 -113 28 -113
-2 0 -29 43 -60 95 -68 113 -176 259 -279 376 -63 71 -90 115 -166 265 -128
252 -288 501 -436 675 -30 35 -55 67 -55 72 0 9 110 9 214 1z m-2839 -89 c4
-32 3 -45 -3 -35 -5 8 -12 38 -15 65 -4 31 -3 44 2 35 5 -8 12 -37 16 -65z
m-260 44 c-22 -4 -89 -17 -150 -29 -165 -31 -213 -59 -311 -177 -88 -106 -248
-327 -285 -393 -13 -22 -28 -39 -33 -37 -18 6 -65 80 -66 102 0 35 210 336
282 403 63 58 389 139 563 140 l40 0 -40 -9z m2412 -1 c66 -28 81 -72 42 -122
-48 -61 -123 -77 -214 -45 -36 12 -65 26 -65 29 0 4 24 23 53 42 28 20 72 52
97 72 51 41 49 40 87 24z m-1423 -18 c71 -27 153 -113 184 -194 92 -242 20
-559 -172 -750 -127 -126 -284 -161 -370 -81 -15 14 -28 25 -29 25 -1 0 -2
-60 -3 -133 -1 -230 -41 -375 -165 -602 -91 -166 -152 -258 -186 -280 -25 -17
-26 -17 -19 1 4 11 -44 -33 -106 -96 -70 -72 -148 -139 -206 -179 -97 -66
-281 -166 -289 -157 -3 3 5 19 17 36 30 42 20 48 -21 12 -78 -66 -116 -87
-237 -129 -70 -25 -150 -53 -179 -64 -83 -30 -274 -45 -401 -30 -172 20 -297
69 -389 154 -42 39 -57 40 -28 1 26 -35 16 -35 -57 2 -161 81 -345 217 -453
337 -127 140 -246 350 -285 503 -28 108 -27 114 14 114 58 0 65 -6 54 -47 -14
-50 -1 -54 20 -5 26 64 45 55 77 -35 133 -381 478 -644 925 -708 453 -64 956
77 1283 361 249 216 427 585 427 887 0 50 5 65 32 103 29 40 32 42 45 26 13
-15 14 -13 10 18 -3 21 4 53 18 85 71 159 50 314 -55 408 -77 70 -144 80 -231
36 -43 -22 -67 -55 -74 -106 -7 -47 22 -99 60 -109 33 -8 40 -1 23 26 -11 18
-11 23 6 36 41 30 76 10 76 -42 0 -45 -37 -92 -100 -128 -50 -28 -64 -31 -162
-35 -60 -2 -108 -2 -108 1 0 2 27 32 60 66 91 96 138 202 185 418 3 11 14 33
26 47 19 25 25 27 105 27 l84 0 24 -49 c14 -26 36 -62 50 -79 15 -16 26 -35
26 -41 0 -6 5 -11 10 -11 6 0 10 5 10 12 0 7 20 53 44 103 80 163 205 260 343
264 18 1 57 -8 87 -19z m-866 -12 c16 -16 15 -53 -1 -66 -6 -6 -24 -13 -40
-17 -15 -4 -27 -12 -27 -19 -1 -6 -8 2 -16 17 -8 15 -30 37 -47 48 l-32 21 46
-6 c38 -4 50 -2 64 14 21 23 36 25 53 8z m2602 -48 c33 -60 33 -144 1 -217
-26 -58 -25 -57 -50 -43 -17 9 -16 13 11 67 35 68 35 125 0 192 -26 50 -27 53
-5 49 10 -2 29 -23 43 -48z m-130 -91 c0 -29 -7 -47 -24 -64 -37 -37 -66 -40
-131 -12 l-59 25 41 20 c52 27 101 76 110 109 l6 26 29 -31 c21 -24 28 -42 28
-73z m-1120 -124 c-74 -74 -138 -135 -142 -135 -5 0 -8 11 -8 24 0 17 15 34
58 64 53 37 96 79 159 155 13 15 33 27 45 27 18 0 -6 -29 -112 -135z m444 118
c13 -7 2 -21 -57 -74 -362 -329 -821 -1082 -1067 -1752 -10 -28 -10 -28 -39
-11 l-29 17 18 63 c20 70 70 209 106 296 69 165 -29 2 -124 -207 -30 -66 -56
-121 -57 -123 -2 -2 -31 2 -64 9 -72 14 -72 -1 1 174 66 156 170 366 253 513
52 93 74 122 104 139 136 79 259 250 320 446 16 53 37 88 94 160 89 111 241
268 317 327 l55 43 77 -6 c42 -3 83 -9 92 -14z m-1412 -51 c11 -11 -1 -92 -13
-92 -10 0 -69 88 -69 103 0 11 69 2 82 -11z m1614 -64 c47 -92 169 -256 182
-244 2 3 0 11 -5 18 -16 19 -60 147 -68 196 l-7 42 94 -34 c426 -154 739 -342
1017 -611 449 -434 692 -975 668 -1485 -9 -184 -53 -397 -112 -543 -13 -34
-23 -62 -21 -64 2 -2 34 46 72 106 38 61 72 110 75 111 14 0 50 -93 61 -160
44 -259 -139 -482 -439 -534 l-31 -5 49 92 c27 51 49 95 49 99 0 4 -60 -53
-132 -125 -190 -188 -350 -291 -548 -351 -86 -25 -244 -56 -291 -56 -25 0 -26
1 -16 33 10 31 15 34 96 55 157 41 394 168 549 294 127 104 218 220 300 383
78 156 118 302 142 511 14 123 9 166 -9 69 -18 -103 -87 -307 -133 -393 -139
-265 -346 -475 -583 -592 -101 -50 -254 -100 -306 -100 -30 0 -30 -1 -44 115
-8 62 -56 207 -91 277 -45 90 -112 184 -186 263 -39 42 -91 104 -117 139 -25
35 -102 141 -170 236 -68 95 -153 209 -188 254 -98 121 -255 278 -369 367
-108 83 -152 138 -204 252 -33 72 -44 63 -38 -33 2 -37 -1 -59 -7 -57 -5 2
-23 41 -39 88 -24 70 -30 105 -34 213 -5 141 6 226 44 339 71 208 306 554 504
740 39 38 74 67 76 65 2 -2 -3 -28 -11 -57 -7 -29 -16 -82 -19 -119 l-6 -67
45 94 c25 52 64 125 88 163 54 88 75 91 113 16z m-4161 26 c-128 -37 -193 -86
-216 -163 -8 -26 -16 -38 -25 -34 -40 15 -24 -89 33 -206 22 -47 54 -93 85
-123 70 -68 53 -71 -19 -4 -66 61 -110 135 -142 238 -11 37 -29 76 -41 88 -25
25 -28 114 -5 148 26 36 177 69 320 70 l60 0 -50 -14z m155 -37 c-51 -25 -148
-133 -236 -262 -32 -47 -59 -83 -62 -81 -2 3 -7 20 -12 40 -7 31 -3 44 35 105
55 90 122 172 160 199 23 16 46 21 95 21 l65 0 -45 -22z m2261 -150 c91 -61
120 -176 79 -308 -52 -171 -222 -329 -458 -427 -168 -70 -250 -86 -442 -86
-152 1 -174 3 -283 32 -118 31 -194 61 -276 109 l-45 26 43 13 c24 7 59 10 79
8 32 -5 34 -4 17 7 -11 6 -22 13 -24 15 -2 2 8 17 23 34 14 17 26 36 26 41 0
5 15 18 33 29 28 18 29 20 10 20 -17 0 -23 6 -23 23 0 28 64 68 169 104 63 22
99 27 211 31 115 4 155 0 274 -22 231 -43 361 -31 469 43 105 72 136 179 70
245 -37 37 -83 35 -117 -5 -24 -28 -26 -29 -26 -9 0 32 18 59 53 80 43 27 96
25 138 -3z m-1506 -16 c48 -22 61 -36 110 -125 42 -76 99 -144 158 -187 37
-27 38 -28 17 -39 -12 -7 -25 -8 -29 -3 -4 4 -19 24 -33 44 -32 43 -82 69
-133 69 -35 0 -95 -24 -95 -38 0 -4 27 -7 59 -7 52 0 63 -4 91 -30 99 -95 37
-255 -100 -255 -49 0 -52 14 -5 31 41 15 44 26 10 35 -42 11 -88 -4 -145 -47
-96 -72 -174 -90 -275 -64 -82 21 -134 60 -168 126 -25 46 -28 62 -24 114 7
101 60 177 157 226 59 30 177 37 240 15 24 -8 46 -13 48 -12 6 7 -84 65 -111
71 l-27 7 21 27 c47 61 151 80 234 42z m1131 -94 c-35 -73 -61 -104 -115 -138
-62 -40 -86 -37 -27 3 50 33 107 98 141 161 29 55 30 36 1 -26z m-2759 -127
c34 -20 46 -38 57 -82 7 -32 -9 -39 -17 -8 -3 11 -21 27 -41 35 -94 40 -175
-72 -128 -176 36 -81 106 -131 209 -150 82 -15 161 2 348 75 200 80 246 91
370 91 106 0 205 -24 205 -50 0 -7 3 -20 6 -29 4 -12 0 -16 -15 -16 -12 0 -21
-4 -21 -10 0 -5 10 -10 23 -10 13 0 33 -11 46 -24 l22 -23 -23 -17 -23 -17 32
5 c29 5 35 2 92 -41 3 -2 -4 -10 -15 -18 -23 -17 -14 -19 18 -4 14 6 32 7 47
1 23 -8 22 -9 -25 -51 -90 -79 -250 -159 -389 -196 -102 -26 -265 -38 -378
-26 -305 31 -521 150 -614 339 -36 72 -38 81 -38 171 0 79 4 103 22 136 54
100 154 142 230 95z m524 -202 c-75 -27 -80 -25 -70 25 5 23 14 54 20 69 l11
27 42 -52 43 -52 -46 -17z m1080 -244 c37 -45 199 -136 299 -169 l55 -19 -51
-13 c-28 -7 -115 -24 -193 -38 -79 -13 -156 -31 -171 -38 -18 -10 -33 -11 -44
-5 -10 5 -74 14 -144 18 -160 12 -232 20 -232 29 0 3 17 15 37 26 21 11 65 46
100 78 61 57 63 58 125 61 47 1 76 9 116 31 29 15 57 34 63 42 15 17 24 16 40
-3z m1399 -70 c6 -14 10 -54 10 -90 0 -36 4 -64 10 -64 6 0 10 5 10 10 0 6 4
10 9 10 12 0 -12 -85 -41 -150 -19 -42 -21 -43 -29 -22 -12 32 -39 204 -39
252 0 27 6 45 22 60 28 26 36 25 48 -6z m-111 -76 c14 -42 41 -222 41 -268 -1
-58 -33 -115 -82 -144 -115 -67 -248 -95 -281 -58 -14 16 -57 271 -57 343 0
35 24 53 89 68 30 6 95 28 145 47 86 35 90 36 104 18 12 -15 13 -15 9 -2 -6
16 0 28 14 28 4 0 12 -15 18 -32z m-442 -106 c10 -10 26 -92 43 -210 29 -210
22 -221 -166 -271 -68 -18 -103 -31 -93 -36 19 -7 71 5 181 42 64 22 80 24 93
13 20 -17 20 -121 0 -164 -18 -38 -88 -81 -207 -129 -123 -50 -141 -53 -171
-25 -22 19 -28 37 -38 109 -14 104 -8 139 24 139 12 0 28 4 36 9 10 7 5 11
-18 16 -48 10 -61 40 -76 182 -18 160 -19 274 -2 296 25 34 78 42 239 36 84
-3 154 -6 155 -7z m-497 -52 c10 -5 23 -25 29 -42 10 -33 41 -303 41 -363 0
-69 -62 -99 -233 -112 -43 -3 -80 -10 -83 -15 -10 -16 118 -8 208 14 l91 21
18 -21 c22 -27 36 -174 20 -214 -5 -15 -21 -34 -35 -43 -54 -36 -319 -60 -368
-34 -30 16 -56 85 -63 169 -7 92 0 105 57 102 39 -1 41 0 18 9 -66 28 -75 38
-87 86 -7 26 -16 117 -19 200 -7 139 -5 155 11 173 10 11 23 20 29 20 6 0 5
-5 -2 -12 -7 -7 -12 -17 -12 -22 1 -6 10 0 20 13 17 20 44 28 168 51 175 33
169 33 192 20z m-967 -29 c37 -14 45 -54 52 -256 7 -177 6 -181 -15 -200 -54
-49 -250 -1 -311 75 -33 41 -49 110 -49 214 0 79 17 116 53 116 12 1 69 14
127 29 128 35 114 33 143 22z m345 -17 c59 -4 115 -11 124 -16 25 -12 35 -62
49 -244 12 -149 11 -164 -5 -188 -9 -15 -30 -29 -47 -33 -49 -10 -46 -25 4
-18 40 6 47 4 60 -16 10 -15 18 -62 23 -120 6 -93 6 -97 -17 -113 -26 -18 -83
-20 -143 -6 -45 10 -50 16 -73 90 -20 63 -30 41 -14 -29 l9 -43 -31 6 c-103
21 -153 75 -164 181 -7 69 0 72 101 47 59 -14 89 -17 124 -11 25 5 47 11 49
13 2 2 -37 6 -87 10 -182 14 -196 28 -211 211 -14 169 -9 247 16 276 17 18 27
20 73 15 29 -3 101 -9 160 -12z m-697 -146 l-3 -93 -19 40 c-25 54 -26 142 -1
148 9 2 19 2 22 1 3 -1 3 -44 1 -96z m2209 -117 c0 -15 -117 -136 -173 -179
-62 -49 -84 -52 -97 -16 -14 36 -12 128 2 142 7 7 30 12 53 13 22 0 72 11 110
24 76 25 105 30 105 16z m1153 -111 c308 -131 508 -311 808 -730 49 -69 98
-137 109 -152 l21 -27 -42 17 c-32 12 -44 13 -47 4 -2 -7 -40 39 -85 100 -134
187 -225 297 -342 413 -168 168 -253 217 -318 184 -18 -9 -17 -6 7 20 16 17
28 32 25 34 -13 9 -311 148 -351 163 -44 17 -57 32 -42 46 9 9 176 -38 257
-72z m-3028 -100 c73 0 73 0 84 -31 16 -47 14 -118 -4 -125 -32 -13 -234 133
-219 158 4 5 20 7 36 4 17 -3 63 -6 103 -6z m2423 -116 c185 -61 328 -183 371
-316 15 -45 35 -63 25 -22 -14 54 15 14 44 -64 59 -151 78 -357 48 -502 -8
-36 -12 -67 -10 -69 2 -2 15 20 29 50 l25 54 0 -38 c0 -121 -78 -346 -169
-483 -79 -119 -91 -130 -130 -113 -17 8 -31 16 -31 19 0 3 16 14 35 24 19 11
35 23 35 28 0 11 -3 11 -52 -9 -56 -23 -177 -24 -238 -1 -25 9 -56 19 -71 22
-55 12 -185 208 -177 267 4 26 2 29 -22 29 -31 0 -52 20 -73 70 -9 20 -16 28
-16 18 -1 -25 -32 -22 -75 7 -52 35 -47 8 9 -48 55 -56 59 -78 12 -68 -47 11
-70 26 -107 67 -48 55 -70 110 -70 177 0 142 83 214 270 232 36 3 76 13 90 20
14 8 23 15 20 15 -3 1 -14 4 -25 7 -11 2 -60 7 -110 10 -81 4 -95 2 -137 -20
-55 -28 -58 -25 -58 63 0 135 69 228 200 270 63 20 85 22 193 18 116 -5 186 4
159 21 -21 13 55 79 111 96 28 8 57 15 64 15 27 0 3 17 -32 23 -60 10 -165
-63 -165 -116 0 -15 -3 -17 -13 -9 -43 36 -248 53 -320 27 l-39 -13 7 36 c14
76 70 158 130 190 91 47 158 52 263 16z m-2918 -105 c-16 -10 -30 -26 -30 -34
0 -12 -15 -15 -82 -15 -96 0 -95 3 23 65 l84 44 18 -21 c17 -20 17 -21 -13
-39z m165 -109 c36 -38 26 -49 -19 -20 -36 22 -42 31 -29 43 11 12 18 8 48
-23z m-182 -56 c83 -21 131 -47 184 -100 61 -61 93 -133 93 -209 0 -33 -3 -70
-6 -83 -6 -22 -8 -21 -54 22 -57 53 -103 78 -195 104 -81 23 -178 42 -184 36
-12 -12 43 -46 129 -79 182 -72 260 -148 268 -265 5 -61 -14 -133 -46 -182
l-18 -27 -34 46 c-43 57 -125 104 -234 133 -43 12 -86 24 -94 27 -12 5 -12 2
-3 -16 7 -13 53 -42 109 -69 197 -95 246 -193 163 -324 -48 -76 -151 -123
-213 -99 -35 13 -37 41 -4 41 14 0 42 10 63 23 l38 22 -81 6 c-61 5 -93 13
-128 32 -34 19 -46 22 -46 11 0 -7 9 -19 20 -26 11 -7 20 -16 20 -20 0 -15
-46 -32 -80 -30 l-35 2 25 -20 c14 -11 37 -20 53 -20 32 0 36 -24 11 -73 -51
-97 -150 -161 -253 -162 -92 0 -178 32 -233 88 -56 56 -101 147 -119 235 -14
75 -7 193 15 247 9 21 25 80 35 132 13 61 32 116 55 159 20 35 36 70 36 77 0
7 13 39 29 73 32 67 93 127 150 145 20 7 51 29 70 51 40 47 71 64 164 88 91
24 246 26 330 4z m357 -108 c10 -13 10 -19 0 -31 -11 -13 -16 -11 -36 16 -13
18 -21 36 -18 41 6 10 35 -4 54 -26z m1771 -103 c-15 -38 -41 -106 -57 -153
l-29 -85 -5 86 c-4 60 -11 94 -24 114 -11 16 -15 30 -9 32 5 2 41 19 79 37 38
19 70 35 71 35 1 1 -11 -29 -26 -66z m-1687 -85 c-3 -57 -12 -131 -20 -166 -8
-35 -14 -84 -14 -109 0 -41 5 -50 45 -90 33 -34 49 -43 64 -38 19 6 18 3 -6
-42 -15 -26 -44 -72 -66 -100 l-39 -53 12 -52 c36 -153 113 -345 215 -537 l62
-116 -30 -8 c-16 -5 -35 -6 -43 -3 -18 7 -184 348 -229 469 -19 54 -45 133
-57 177 l-21 79 89 84 89 84 -49 29 c-26 16 -59 37 -72 47 -25 19 -33 43 -11
34 8 -3 12 10 13 47 1 28 11 80 22 116 11 36 23 90 26 120 20 162 29 175 20
28z m1490 10 c22 -36 28 -101 15 -164 -6 -33 -12 -108 -13 -169 -2 -123 -20
-185 -61 -203 -42 -20 -182 27 -320 107 -77 45 -115 83 -115 115 0 25 3 26 58
27 52 1 54 2 30 12 -16 6 -28 14 -28 18 0 10 88 39 117 39 14 0 21 4 18 10 -8
12 -106 13 -157 1 -35 -8 -38 -7 -38 14 0 40 40 75 144 125 178 86 321 113
350 68z m-1139 -48 c103 -29 212 -72 241 -95 20 -16 24 -26 18 -51 -6 -30 -7
-31 -53 -26 -25 2 -66 -2 -91 -9 -42 -12 -43 -13 -15 -16 17 -2 50 -9 74 -15
l43 -11 -26 -14 c-37 -19 -32 -24 17 -17 l44 6 14 -44 15 -44 -41 -32 c-61
-47 -223 -129 -278 -142 -32 -7 -54 -7 -67 0 -28 15 -53 104 -55 195 -1 44 -9
104 -19 134 -25 84 -17 171 17 193 21 14 90 8 162 -12z m579 -212 c1 -119 0
-127 -19 -132 -48 -13 -89 -6 -118 22 l-29 27 7 -33 7 -33 -33 14 c-55 22 -74
58 -74 142 0 83 18 115 65 115 24 0 26 -3 22 -30 -5 -34 13 -41 23 -9 9 27 60
49 109 46 l39 -2 1 -127z m2994 84 c267 -111 462 -335 533 -609 24 -95 26
-271 4 -358 -27 -105 -82 -204 -154 -276 -36 -36 -75 -70 -86 -76 -13 -6 -43
-6 -84 0 l-64 9 59 31 c88 47 178 141 218 229 45 98 60 177 54 296 -8 160 -72
320 -187 466 -54 68 -244 227 -331 277 -33 19 -68 40 -78 47 -15 12 -14 12 8
6 14 -4 62 -23 108 -42z m-772 -17 c19 -14 63 -39 98 -55 63 -28 65 -30 81
-82 91 -303 -5 -666 -244 -920 -82 -87 -85 -89 -120 -83 -60 11 -193 85 -240
134 -34 36 -43 41 -38 24 7 -29 -11 -30 -64 -2 -29 14 -46 32 -59 62 -19 45
-30 110 -17 108 4 -1 20 -1 36 -1 23 0 33 -7 45 -32 19 -38 19 -38 3 -38 -16
0 -39 -37 -28 -44 5 -3 29 -5 55 -4 45 2 50 6 135 93 139 142 231 301 283 493
22 81 32 303 15 350 -12 31 16 30 59 -3z m-1575 -72 c-8 -15 -10 -15 -11 -2 0
17 10 32 18 25 2 -3 -1 -13 -7 -23z m1934 -34 c84 -30 97 -33 196 -30 85 2
117 -1 168 -19 62 -21 133 -60 146 -80 9 -15 3 -13 -61 19 -33 16 -77 34 -99
40 -45 12 -155 15 -155 4 0 -5 28 -23 63 -40 63 -34 182 -122 173 -130 -2 -2
-21 7 -43 21 -45 30 -219 104 -341 145 -48 16 -95 33 -105 37 -17 6 -18 2 -13
-42 l6 -49 -20 55 c-11 30 -29 72 -40 92 l-20 38 28 -13 c15 -8 68 -29 117
-48z m-4891 -49 c-9 -30 -22 -77 -30 -105 -21 -74 -18 -246 5 -337 46 -178
146 -313 293 -397 32 -18 60 -36 63 -41 3 -4 -47 -61 -111 -125 l-116 -117
-43 17 c-68 26 -156 86 -207 144 -53 59 -111 169 -130 246 -16 68 -28 78 -29
24 l-1 -44 -10 45 c-5 25 -7 97 -4 160 7 156 41 274 115 394 20 31 210 200
218 193 1 -2 -5 -27 -13 -57z m2442 -167 c85 -55 84 -51 28 -172 -37 -80 -44
-110 -17 -71 9 14 40 57 69 97 l53 71 78 -25 c43 -14 99 -25 125 -26 27 -1 48
-3 48 -4 0 -13 -75 -255 -87 -281 -11 -24 -54 -62 -137 -125 -141 -105 -238
-155 -313 -160 -56 -5 -64 3 -40 38 32 47 127 235 120 235 -5 0 -42 -45 -82
-100 -39 -55 -77 -100 -83 -100 -16 0 -48 31 -48 47 0 7 -5 13 -11 13 -7 0 -8
-11 -4 -30 10 -45 -3 -36 -26 18 -67 156 -139 414 -139 500 0 36 4 42 54 75
50 33 57 35 85 24 32 -12 38 -21 21 -32 -5 -3 -10 -13 -10 -21 0 -11 9 -8 34
11 l35 26 11 -21 12 -22 24 23 c13 12 45 30 71 39 27 10 50 18 52 19 1 0 36
-20 77 -46z m845 -108 c25 -22 66 -55 92 -73 26 -17 50 -39 53 -47 14 -35
-222 -390 -389 -587 -47 -56 -51 -58 -98 -58 -51 0 -60 8 -33 31 56 46 320
432 387 566 l27 52 -74 88 c-69 81 -73 89 -58 106 14 16 16 16 32 -10 9 -16
37 -46 61 -68z m-3621 47 c-12 -22 -42 -65 -67 -98 -81 -106 -153 -291 -153
-393 0 -24 -3 -32 -11 -24 -16 16 9 176 42 268 33 89 80 165 147 237 54 58 71
62 42 10z m2263 -99 c10 -48 32 -130 49 -182 34 -107 143 -367 164 -392 8 -8
14 -19 14 -22 0 -4 -33 -7 -72 -8 -40 0 -126 -6 -192 -12 l-118 -13 -10 25
c-30 81 -85 382 -88 486 -4 124 -5 122 38 129 20 3 71 21 112 40 41 19 77 34
80 35 3 1 14 -38 23 -86z m-1681 -341 c59 -41 118 -62 171 -62 69 0 27 -22
-52 -28 -69 -5 -73 -3 -125 31 -36 24 -68 58 -100 105 -25 38 -46 73 -46 77 0
4 24 -14 53 -42 28 -27 73 -64 99 -81z m507 42 c-19 -60 -30 -77 -88 -134 -78
-77 -177 -131 -253 -138 -43 -4 -50 -2 -45 10 3 9 1 20 -4 25 -7 7 11 14 49
22 33 6 87 25 121 42 72 36 177 138 210 205 13 25 25 43 27 41 2 -2 -5 -35
-17 -73z m6287 -61 c-19 -54 -48 -136 -66 -183 -33 -85 -188 -416 -215 -456
l-13 -21 -113 18 c-61 10 -113 20 -115 22 -2 2 43 95 99 208 57 112 126 261
153 330 l48 127 61 5 c33 3 87 15 120 26 33 10 63 19 67 20 4 1 -8 -43 -26
-96z m-4352 -50 c-7 -32 -94 -268 -124 -338 l-20 -47 -66 48 c-129 92 -170
115 -227 131 -38 11 -54 20 -48 26 17 17 79 35 105 30 16 -3 36 3 56 17 29 21
307 158 323 159 4 1 5 -11 1 -26z m-2391 -278 c-6 -16 -61 -50 -69 -42 -3 3
65 57 73 57 1 0 0 -7 -4 -15z m1957 -58 c19 -7 93 -54 163 -104 70 -51 141
-95 158 -98 21 -5 29 -11 25 -22 -3 -8 -6 -21 -6 -29 0 -9 -12 -14 -36 -14
-37 0 -68 18 -204 120 -101 76 -142 93 -225 98 -248 14 -2171 -278 -2756 -418
-91 -22 -192 -42 -225 -45 -62 -5 -93 -22 -128 -69 -20 -26 -21 -43 -24 -295
l-3 -267 -70 -12 c-135 -23 -235 -99 -292 -220 -28 -60 -31 -78 -35 -183 -3
-89 0 -130 13 -175 44 -155 168 -261 318 -272 l67 -5 0 -262 c0 -255 1 -263
23 -295 12 -19 38 -43 57 -54 35 -21 47 -21 1024 -23 l990 -3 90 -39 c50 -21
159 -62 241 -92 l150 -53 273 -4 272 -4 58 49 c31 27 89 71 127 98 39 27 86
62 105 80 62 55 76 61 40 17 -46 -57 -80 -104 -80 -111 0 -4 15 -30 34 -58 39
-60 38 -63 -45 -92 -35 -12 -71 -35 -100 -63 -40 -39 -45 -49 -41 -77 3 -23 8
-29 15 -22 22 22 27 9 27 -69 l0 -80 -410 0 c-360 0 -409 -2 -404 -15 5 -13
-14 -15 -135 -15 -134 0 -141 1 -141 20 0 17 7 20 41 20 l40 0 -28 24 c-17 15
-30 20 -34 14 -15 -25 -29 7 -29 68 l0 64 51 0 c29 0 81 -10 118 -24 36 -13
93 -29 126 -36 33 -7 68 -20 78 -29 17 -15 18 -14 12 12 -9 33 8 57 41 57 33
0 47 -31 28 -59 -22 -31 -9 -38 29 -18 18 9 58 20 89 24 l56 8 -13 32 c-13 30
-18 33 -58 33 -24 0 -66 7 -93 15 -26 8 -57 12 -69 9 -21 -5 -228 64 -405 137
l-105 43 -935 3 c-610 2 -958 7 -1002 14 -109 17 -198 91 -229 188 -7 20 -15
126 -18 236 l-6 199 -25 13 c-14 7 -49 24 -78 37 -113 54 -204 160 -242 283
-28 92 -29 362 -1 452 40 129 127 227 263 296 l83 42 5 214 c6 231 10 252 65
317 40 48 99 74 170 77 33 1 359 52 725 114 1263 212 1795 288 2115 300 281
11 287 11 325 -2z m1845 -2 c44 -3 114 -10 155 -15 41 -5 172 -21 290 -36 428
-51 1415 -204 2095 -324 121 -21 236 -38 255 -38 47 0 81 -14 124 -53 74 -65
80 -88 86 -331 3 -119 7 -218 10 -221 3 -2 39 -20 80 -40 132 -63 216 -157
260 -287 20 -58 21 -81 18 -254 l-3 -191 -37 -78 c-50 -105 -131 -186 -231
-232 -41 -19 -79 -40 -85 -47 -6 -8 -12 -90 -14 -208 -3 -178 -6 -199 -27
-247 -40 -91 -131 -155 -236 -167 -27 -4 -469 -8 -980 -10 l-930 -3 -160 -61
c-293 -110 -411 -141 -547 -142 -42 0 -49 -3 -63 -29 -8 -17 -11 -32 -7 -35 4
-2 77 -6 161 -7 111 -2 155 -7 158 -16 4 -9 12 -7 32 8 37 27 226 87 256 81
24 -4 25 -8 25 -69 0 -52 -3 -64 -14 -60 -8 3 -20 -1 -27 -9 -7 -8 -18 -13
-26 -10 -7 3 -20 3 -28 0 -30 -12 -14 -23 37 -26 41 -2 54 -7 56 -21 3 -15 -6
-17 -83 -17 -73 0 -86 2 -81 15 5 13 -51 15 -462 15 l-467 0 3 75 c2 41 6 75
9 75 3 0 18 -10 35 -21 27 -20 41 -21 171 -20 78 1 144 4 147 7 19 20 -162 74
-248 74 -44 0 -53 4 -102 50 -30 28 -77 62 -105 75 -80 38 -79 34 -44 98 l30
57 -21 30 c-41 58 15 27 163 -91 l100 -80 281 3 281 4 110 38 c61 21 171 62
246 91 l136 53 834 2 c459 1 908 5 998 8 l165 5 39 36 c37 35 40 41 48 117 4
43 8 167 8 275 l1 196 64 5 c121 10 230 88 288 206 33 67 33 67 33 222 0 150
-1 157 -28 210 -60 118 -178 202 -304 218 l-58 7 4 246 c3 228 2 248 -16 289
-44 99 -37 97 -863 244 -584 105 -1481 236 -1940 286 -96 10 -222 24 -278 30
-158 18 -194 6 -374 -131 -96 -74 -123 -89 -152 -89 -31 0 -36 3 -36 24 0 18
11 31 43 49 23 14 94 64 157 111 l115 86 165 2 c91 2 179 2 195 1 17 -1 66 -5
110 -8z m-1061 -87 c3 -7 7 -24 10 -38 9 -38 69 -71 114 -64 31 4 39 2 50 -16
11 -19 11 -25 -4 -41 -12 -13 -15 -27 -10 -54 7 -34 6 -35 -24 -35 -19 0 -30
-5 -30 -14 0 -16 70 -26 196 -26 l91 0 131 99 c75 57 149 105 172 112 35 11
78 9 268 -10 605 -61 1290 -162 2447 -361 132 -23 276 -45 320 -50 68 -7 82
-12 102 -35 13 -14 23 -34 23 -44 0 -28 -39 -71 -64 -71 -13 0 -250 38 -527
85 -1015 170 -1735 274 -2289 330 -257 25 -230 32 -387 -90 l-135 -105 -535 0
-534 0 -147 106 -147 106 -85 -6 c-181 -13 -858 -101 -1325 -172 -285 -43
-1351 -218 -1460 -240 -44 -9 -91 -18 -105 -21 -37 -7 -80 30 -80 68 0 17 4
39 10 49 10 19 67 43 81 35 4 -3 223 31 486 75 1124 191 1414 236 1958 305
333 42 495 55 548 43 35 -7 83 -35 184 -109 l136 -99 117 0 c64 0 120 4 126 9
5 6 29 11 54 13 40 3 42 4 18 11 -16 4 -39 9 -52 12 -19 4 -22 9 -18 31 3 18
0 30 -12 36 -19 11 -20 37 -2 61 11 14 22 17 50 12 27 -6 41 -2 62 14 15 12
33 21 40 21 8 0 16 12 20 28 3 15 7 33 10 40 2 8 26 12 74 12 48 0 72 -4 74
-12z m708 -578 c2 -3 1 -108 -2 -233 l-5 -228 -72 55 -71 56 -266 0 -266 0 0
-170 0 -170 208 0 c206 0 208 0 242 25 61 45 60 48 60 -205 0 -126 -3 -230 -7
-230 -3 0 -27 14 -53 30 l-47 30 -199 -2 -199 -3 -3 -182 -3 -183 268 0 268 0
75 60 75 60 3 -232 c1 -127 1 -233 -1 -235 -2 -2 -264 -2 -581 -1 l-578 3 36
45 36 45 0 783 0 784 -35 42 c-40 49 -41 53 -17 59 23 6 1130 3 1134 -3z
m-1610 -92 c55 -51 116 -106 134 -121 l34 -28 0 -309 0 -308 -110 -101 c-101
-93 -113 -101 -150 -101 l-40 0 50 -92 c28 -51 100 -187 160 -303 76 -147 121
-222 149 -250 23 -21 41 -43 41 -47 0 -4 -126 -8 -281 -8 l-281 0 21 34 21 33
-74 154 c-40 85 -105 221 -144 302 l-71 148 -73 -3 -73 -3 -3 -286 -2 -286 35
-44 35 -44 -262 -3 c-143 -1 -263 0 -266 2 -2 3 10 24 27 48 l31 44 0 758 1
758 -37 49 c-20 28 -35 51 -33 53 2 2 186 11 409 20 223 9 430 18 460 19 30 2
85 4 123 5 l67 2 102 -92z m2573 72 c160 -6 318 -13 353 -16 l62 -6 0 -219 c0
-120 -3 -219 -6 -219 -3 0 -33 21 -67 47 -34 25 -77 49 -97 54 -19 4 -142 10
-272 14 l-238 7 0 -171 0 -171 205 0 c205 0 205 0 245 26 22 15 43 25 45 22 3
-3 4 -107 3 -232 l-3 -227 -48 32 -48 31 -197 2 -197 1 -3 -182 -2 -183 268 0
c260 0 270 1 288 21 21 23 108 89 118 89 3 0 6 -103 6 -230 l0 -230 -575 0
c-337 0 -575 4 -575 9 0 5 16 28 35 51 l35 42 0 774 0 774 -35 49 c-19 26 -35
51 -35 55 0 7 231 3 735 -14z m949 -50 c144 -10 343 -24 443 -30 l182 -12 79
-81 c43 -45 115 -121 161 -169 l82 -87 -4 -497 -4 -496 -165 -164 -165 -165
-454 7 c-250 4 -456 8 -457 10 -2 1 12 24 32 50 l36 47 0 750 0 749 -35 48
c-19 26 -35 50 -35 54 0 9 17 8 304 -14z m-5062 -125 l136 -125 4 -137 c2 -76
3 -139 3 -139 0 -1 -91 -4 -203 -7 -196 -6 -202 -6 -192 13 22 42 12 76 -37
125 l-48 46 -130 -6 c-201 -9 -194 -7 -259 -80 l-56 -64 0 -367 0 -368 62 -63
62 -63 166 0 165 0 43 41 43 41 -3 85 -3 85 -123 -1 c-68 -1 -130 -5 -138 -8
-12 -4 -14 20 -14 161 l0 166 93 0 c50 1 207 5 347 10 140 5 256 7 258 5 2 -2
-6 -16 -18 -32 -21 -29 -21 -34 -18 -456 l3 -427 -91 0 -91 0 -18 59 -18 60
-68 -58 -69 -58 -107 -6 c-58 -4 -201 -7 -317 -7 l-211 1 -168 165 c-119 115
-167 169 -163 180 3 9 6 232 6 497 l1 482 156 167 157 166 110 7 c61 3 201 12
311 19 110 7 223 14 250 14 l50 1 137 -124z m-1482 -146 c0 -140 -3 -180 -12
-177 -10 4 -14 51 -16 181 -2 153 0 177 13 177 13 0 15 -26 15 -181z m7759 84
c-1 -105 -16 -189 -18 -102 -1 25 -4 80 -7 122 -6 67 -5 77 10 77 14 0 16 -13
15 -97z m-7811 -460 c18 -9 48 -33 66 -54 56 -66 71 -151 37 -224 -69 -149
-272 -170 -363 -37 -27 39 -33 59 -36 112 -4 80 24 140 85 184 67 47 136 53
211 19z m8032 -3 c79 -40 127 -137 113 -225 -15 -95 -110 -175 -207 -175 -182
1 -282 211 -164 346 71 81 166 101 258 54z m-7986 -606 c3 -9 6 -87 6 -175 0
-135 -2 -159 -15 -159 -13 0 -15 26 -15 175 0 158 7 204 24 159z m95 -450 c12
-15 21 -35 21 -46 0 -27 -45 -68 -75 -68 -30 0 -75 41 -75 68 0 35 38 72 75
72 24 0 39 -7 54 -26z m7661 6 c27 -27 25 -66 -5 -95 -64 -65 -152 18 -99 93
20 29 76 30 104 2z m-3795 -90 l7 -69 46 -16 c26 -9 58 -22 72 -29 23 -13 29
-11 83 27 l58 41 64 -64 63 -63 -40 -53 -40 -53 29 -70 28 -70 68 -7 67 -7 0
-92 0 -92 -37 -7 c-21 -3 -51 -6 -66 -6 -17 0 -30 -7 -34 -17 -3 -10 -16 -43
-28 -74 l-21 -56 43 -54 43 -54 -62 -62 c-35 -35 -66 -63 -71 -63 -4 0 -31 17
-59 39 l-51 39 -46 -23 c-25 -13 -59 -27 -74 -31 -33 -8 -33 -9 -42 -86 l-6
-58 -93 0 -93 0 -11 66 c-6 37 -12 67 -14 68 -11 6 -116 49 -130 53 -10 3 -38
-10 -68 -32 l-52 -38 -63 63 -63 62 39 52 c26 33 38 58 35 71 -4 19 -38 115
-43 124 -2 2 -33 9 -70 15 l-68 11 0 90 0 90 69 10 c67 10 69 11 81 46 7 20
20 50 29 66 15 30 14 31 -25 84 l-39 53 61 62 62 63 54 -39 54 -38 52 23 c29
12 59 25 69 28 16 6 21 20 33 105 l7 42 93 0 93 0 7 -70z m-2831 -413 c24 -41
96 -119 96 -103 0 4 -12 23 -26 42 -18 23 -25 42 -22 59 4 17 1 25 -8 25 -8 0
-14 5 -14 10 0 6 30 10 70 10 63 0 74 -3 113 -32 24 -18 52 -38 62 -43 14 -9
16 -15 7 -31 -5 -10 -12 -37 -14 -59 -4 -36 -7 -40 -29 -37 -13 2 -40 11 -59
20 -55 25 -57 25 -28 -1 35 -33 129 -69 197 -76 73 -8 81 -31 12 -31 -100 0
-225 56 -306 136 -38 38 -95 127 -95 149 0 18 23 -1 44 -38z m536 -14 c0 -117
26 -136 48 -35 l13 61 116 3 c68 2 118 -1 123 -7 4 -5 8 -81 9 -167 l2 -158
-119 0 c-97 0 -121 3 -126 15 -5 13 10 15 99 15 102 0 105 1 105 23 0 21 -3
22 -80 19 -111 -5 -138 8 -142 68 -2 33 -7 46 -20 48 -16 3 -18 -7 -18 -102 0
-106 0 -106 -25 -106 -40 0 -48 31 -49 190 0 154 9 190 44 190 18 0 20 -7 20
-57z m4451 40 c11 -12 14 -55 14 -173 0 -167 -6 -190 -49 -190 -21 0 -21 3
-19 123 1 67 2 152 2 190 1 59 3 67 20 67 10 0 25 -7 32 -17z m445 -14 c-4
-32 -45 -90 -88 -122 -14 -11 -50 -28 -79 -37 -62 -21 -64 -20 -74 56 l-7 51
44 26 c25 14 50 33 58 41 9 12 31 16 81 16 l69 0 -4 -31z m84 26 c0 -3 -12
-29 -26 -57 -65 -128 -233 -228 -382 -228 -67 0 -48 24 24 31 114 11 267 106
326 203 18 31 39 56 46 56 6 0 12 -2 12 -5z m-728 -23 c76 -2 78 -3 93 -33 23
-43 22 -153 -2 -196 l-18 -33 -85 0 c-54 0 -91 5 -98 12 -9 9 -12 5 -12 -20
l0 -32 100 0 c82 0 100 -3 100 -15 0 -12 -20 -15 -118 -15 l-118 0 3 161 c2
89 5 165 8 168 2 4 18 6 37 6 18 -1 68 -2 110 -3z m-4382 -133 l0 -49 -38 0
c-51 0 -68 26 -48 73 12 30 17 33 50 29 36 -4 36 -4 36 -53z m4723 32 c18 -37
11 -81 -13 -81 -10 0 -25 -3 -34 -6 -14 -5 -16 3 -16 55 0 58 1 61 24 61 17 0
29 -9 39 -29z"/>
<path d="M4229 9617 c-131 -67 -315 -173 -324 -186 -1 -3 49 -6 114 -7 78 0
152 -8 228 -24 62 -12 118 -20 126 -17 11 4 11 21 4 87 -7 65 -6 90 5 119 15
36 13 101 -1 101 -4 0 -73 -33 -152 -73z"/>
<path d="M2202 6473 c-110 -54 -110 -218 1 -274 71 -37 149 -15 201 54 28 38
28 126 0 164 -51 69 -131 91 -202 56z m133 -68 c56 -56 16 -145 -65 -145 -89
0 -122 102 -51 157 28 22 89 16 116 -12z"/>
<path d="M9372 9259 c-65 -51 -67 -70 -4 -34 63 37 79 52 66 65 -7 7 -27 -2
-62 -31z"/>
<path d="M6087 9040 c-98 -25 -181 -90 -308 -242 -186 -222 -262 -282 -351
-276 -38 3 -45 7 -61 38 -10 19 -16 49 -14 68 1 17 0 32 -5 32 -10 0 -28 -67
-28 -104 0 -63 67 -156 113 -156 9 0 18 -4 21 -8 3 -5 -57 -8 -132 -8 -106 0
-147 -3 -180 -17 -34 -13 -48 -14 -64 -6 -18 10 -19 13 -6 20 8 5 25 31 37 59
19 45 21 58 12 106 -15 80 -30 101 -31 43 0 -35 -6 -53 -25 -73 -49 -53 -130
-22 -270 105 -129 117 -193 141 -262 99 -18 -11 -46 -38 -62 -60 -29 -41 -68
-137 -58 -146 2 -3 20 11 38 29 45 45 95 54 152 29 23 -11 91 -54 150 -97 78
-56 135 -87 200 -112 142 -54 139 -53 207 -32 45 14 91 19 170 19 89 0 111 3
131 18 13 10 87 52 164 92 145 76 296 192 309 236 8 31 119 130 179 161 72 38
150 37 232 0 33 -16 71 -38 84 -50 l23 -22 -7 25 c-25 83 -100 171 -177 208
-53 26 -127 35 -181 22z"/>
<path d="M7376 8455 c-83 -29 -178 -156 -211 -280 -23 -89 -20 -119 13 -140
45 -29 62 -57 62 -104 0 -39 -5 -48 -42 -82 -40 -38 -41 -39 -23 -59 12 -14
30 -20 54 -19 20 1 28 3 19 6 -24 6 -23 10 13 41 57 47 73 119 44 189 -14 33
-14 38 1 54 21 23 60 32 84 19 28 -15 50 -62 50 -107 0 -28 3 -34 10 -23 19
29 11 124 -13 171 -26 48 -84 89 -129 89 -37 0 -35 11 7 56 32 33 39 36 75 31
47 -6 50 1 14 34 l-25 24 21 17 c12 10 35 18 51 18 38 0 94 -51 110 -98 19
-60 32 -63 24 -7 -14 97 -56 156 -124 175 -43 12 -37 12 -85 -5z"/>
<path d="M5373 6154 c7 -7 107 -7 115 0 3 3 -23 6 -58 6 -35 0 -61 -3 -57 -6z"/>
<path d="M8947 7765 c-27 -7 -50 -15 -52 -17 -2 -2 14 -61 36 -132 22 -70 38
-130 35 -133 -3 -3 -22 -6 -42 -7 l-36 -1 -40 125 c-22 69 -41 126 -43 128 -2
2 -32 -5 -66 -15 -48 -14 -65 -24 -67 -39 -1 -10 15 -77 37 -147 l39 -128 -83
-82 c-139 -139 -202 -301 -193 -496 9 -177 78 -330 208 -462 61 -61 94 -85
170 -123 52 -25 127 -53 165 -62 39 -9 75 -17 81 -19 6 -2 24 -60 40 -130 16
-71 33 -134 39 -141 8 -11 22 -10 78 3 37 9 67 22 67 27 0 11 -44 192 -55 226
-4 14 3 20 35 28 49 12 46 17 80 -131 13 -54 28 -101 35 -103 13 -6 123 20
133 31 4 3 -8 65 -27 137 l-33 132 28 20 c204 147 287 380 223 629 -11 45 -24
85 -28 90 -6 6 -569 -117 -579 -128 -3 -2 9 -55 25 -117 l30 -113 51 3 c56 3
53 6 72 -83 6 -27 13 -57 16 -66 3 -12 -9 -20 -47 -32 -73 -24 -96 -22 -114
11 l-16 27 4 -27 c7 -44 -25 -35 -74 20 l-42 47 6 -38 c6 -36 4 -38 -16 -32
-45 14 -130 71 -168 114 -22 24 -54 74 -72 110 -30 62 -32 72 -32 176 0 103 2
114 32 175 17 36 41 76 52 90 20 24 22 24 35 7 14 -18 15 -17 18 15 3 29 10
36 60 62 65 32 140 45 162 27 11 -9 16 -9 21 -1 5 8 17 2 36 -16 28 -27 29
-27 29 -6 0 14 6 22 18 22 24 -1 100 -36 139 -66 17 -13 34 -24 37 -24 2 0 35
45 72 100 l67 100 -28 22 c-95 76 -167 109 -294 136 l-84 17 -42 135 c-46 152
-45 151 -138 125z m543 -1120 c-18 -48 -48 -100 -67 -118 -19 -17 -20 -16 -38
48 -9 36 -16 68 -14 70 8 7 114 32 121 28 4 -2 3 -15 -2 -28z"/>
<path d="M6409 7255 c-26 -7 -51 -15 -56 -18 -6 -4 1 -60 16 -142 28 -153 20
-145 116 -100 61 29 88 70 87 131 -2 61 -27 109 -67 128 -38 18 -35 18 -96 1z
m80 -54 c25 -25 37 -85 23 -116 -12 -26 -59 -61 -68 -52 -8 7 -33 125 -34 154
0 20 5 23 53 32 4 0 16 -8 26 -18z"/>
<path d="M6280 7249 c0 -5 5 -7 10 -4 6 3 10 8 10 11 0 2 -4 4 -10 4 -5 0 -10
-5 -10 -11z"/>
<path d="M5822 7208 c-7 -7 -12 -19 -12 -27 0 -11 5 -8 16 7 18 25 15 39 -4
20z"/>
<path d="M5973 7152 c-46 -10 -73 -21 -73 -29 0 -22 40 -265 45 -273 5 -8 117
14 162 31 30 11 20 53 -11 45 -11 -3 -40 -8 -63 -12 l-43 -7 0 36 c0 34 2 36
43 44 36 7 42 13 45 36 3 25 2 26 -30 20 -64 -13 -73 -10 -76 23 -3 31 -2 32
45 39 60 8 76 17 71 41 -4 25 -27 26 -115 6z"/>
<path d="M5670 7165 c7 -9 15 -13 17 -11 7 7 -7 26 -19 26 -6 0 -6 -6 2 -15z"/>
<path d="M5485 7077 c-44 -5 -81 -10 -82 -11 -4 -3 25 -288 30 -292 5 -6 181
17 189 25 4 3 5 16 2 29 -5 16 -12 21 -28 17 -11 -2 -41 -6 -66 -7 -44 -3 -45
-2 -48 29 -3 31 -2 32 45 39 60 8 62 10 56 35 -5 18 -12 20 -57 17 -51 -3 -51
-3 -54 29 l-3 31 63 9 c58 7 63 10 63 33 0 30 -5 30 -110 17z"/>
<path d="M5380 6446 c0 -8 4 -17 9 -20 5 -4 7 3 4 14 -6 23 -13 26 -13 6z"/>
<path d="M4722 7120 c14 -22 24 -19 15 5 -4 8 -11 15 -17 15 -6 0 -6 -7 2 -20z"/>
<path d="M4515 7056 c-69 -70 -46 -216 41 -252 35 -15 99 -11 109 7 3 4 12 6
21 2 13 -5 15 5 12 63 l-3 69 -52 3 c-51 3 -53 2 -53 -22 0 -21 5 -26 26 -26
21 0 25 -4 22 -22 -2 -18 -11 -24 -34 -26 -43 -4 -74 35 -74 92 0 74 54 112
98 68 21 -21 52 -17 52 8 0 56 -119 82 -165 36z"/>
<path d="M4855 7129 c-11 -17 1 -21 15 -4 8 9 8 15 2 15 -6 0 -14 -5 -17 -11z"/>
<path d="M5170 7105 c7 -9 15 -13 17 -11 7 7 -7 26 -19 26 -6 0 -6 -6 2 -15z"/>
<path d="M4915 6918 c4 -79 9 -146 12 -150 2 -5 15 -8 29 -8 23 0 24 3 24 55
0 48 2 55 20 55 14 0 30 -17 51 -55 26 -47 35 -55 60 -55 16 0 29 3 29 7 0 3
-14 31 -30 60 l-31 54 21 26 c30 38 26 88 -9 124 -27 27 -35 29 -106 29 l-77
0 7 -142z m126 82 c22 -13 25 -52 5 -69 -8 -7 -27 -11 -43 -9 -25 3 -28 7 -31
46 -3 39 -2 42 23 42 15 0 35 -5 46 -10z"/>
<path d="M7835 5663 c4 -21 9 -51 12 -67 l5 -30 14 25 c20 37 18 86 -5 99 -30
15 -32 13 -26 -27z"/>
<path d="M7555 4941 c-63 -27 -80 -106 -31 -147 32 -28 76 -31 117 -7 32 19
54 62 45 91 -15 48 -86 82 -131 63z m64 -60 c8 -14 5 -23 -14 -41 -20 -19 -27
-21 -40 -10 -18 15 -20 41 -3 58 18 18 46 15 57 -7z"/>
<path d="M3196 4839 c-38 -45 -35 -92 8 -135 44 -44 86 -46 127 -5 63 63 17
170 -73 171 -28 0 -42 -7 -62 -31z m92 -42 c4 -19 -23 -46 -45 -47 -18 0 -26
39 -12 56 16 20 53 14 57 -9z"/>
<path d="M5409 5311 c-40 -40 -39 -82 1 -123 26 -25 36 -29 63 -24 73 14 105
112 51 155 -38 30 -80 27 -115 -8z m75 -27 c25 -25 -5 -71 -38 -58 -19 7 -21
45 -4 62 16 16 23 15 42 -4z"/>
<path d="M5427 4972 c-21 -23 -13 -32 31 -32 37 0 39 14 6 37 -18 11 -23 11
-37 -5z"/>
<path d="M5153 1673 c-26 -5 -30 -25 -8 -43 21 -18 57 -3 53 23 -3 23 -12 26
-45 20z"/>
<path d="M5120 1567 c-22 -19 -29 -32 -22 -39 11 -11 336 -17 347 -6 4 4 2 21
-5 38 -10 24 -19 30 -44 31 -233 6 -243 6 -276 -24z"/>
<path d="M7311 1661 c-12 -21 -9 -25 29 -34 32 -8 53 5 48 29 -5 28 -63 32
-77 5z"/>
<path d="M6141 4299 c-32 -32 -48 -70 -36 -88 4 -7 49 -11 115 -11 121 0 130
6 106 64 -19 46 -52 66 -107 66 -40 0 -53 -5 -78 -31z"/>
<path d="M6040 3800 c-45 -45 -11 -120 54 -120 37 0 76 36 76 70 0 10 -9 29
-21 44 -26 33 -79 36 -109 6z m65 -29 c0 -22 -32 -38 -46 -24 -9 9 -9 16 1 28
15 19 45 16 45 -4z"/>
<path d="M6046 2359 c-64 -50 -1 -150 75 -119 72 30 50 140 -29 140 -11 0 -31
-9 -46 -21z m61 -25 c5 -16 -23 -48 -35 -40 -16 10 -15 43 1 49 16 7 30 3 34
-9z"/>
<path d="M4444 3789 c-22 -11 -44 -48 -44 -75 0 -24 47 -64 75 -64 33 0 75 41
75 73 0 51 -61 88 -106 66z m46 -42 c0 -7 -5 -18 -12 -25 -18 -18 -38 -15 -38
6 0 10 3 22 7 25 11 12 43 7 43 -6z"/>
<path d="M5298 3759 c-25 -14 -23 -71 3 -95 18 -17 23 -17 46 -4 14 8 32 24
40 36 12 18 11 24 -8 47 -21 28 -51 34 -81 16z m52 -39 c0 -13 -7 -20 -20 -20
-13 0 -20 7 -20 20 0 13 7 20 20 20 13 0 20 -7 20 -20z"/>
<path d="M4799 3543 l-87 -4 -4 -52 c-2 -29 -2 -120 0 -202 l5 -148 180 6 180
6 44 43 43 42 0 119 0 119 -42 39 -43 38 -95 -1 c-52 -1 -134 -4 -181 -5z"/>
<path d="M4960 3052 c-70 -22 -66 -114 7 -136 30 -9 76 31 76 67 0 44 -44 81
-83 69z m35 -51 c0 -22 -32 -38 -46 -24 -9 9 -9 16 1 28 15 19 45 16 45 -4z"/>
<path d="M4443 2368 c-68 -33 -40 -138 37 -138 28 0 70 44 70 73 0 51 -61 88
-107 65z m50 -34 c11 -12 -13 -44 -33 -44 -20 0 -28 29 -13 43 8 9 38 9 46 1z"/>
<path d="M5326 2359 c-46 -36 -31 -102 27 -122 40 -15 93 47 77 89 -9 23 -47
54 -66 54 -6 0 -23 -9 -38 -21z m54 -24 c18 -21 -16 -61 -37 -44 -16 14 -17
31 -1 47 16 16 23 15 38 -3z"/>
<path d="M7425 3795 c-47 -46 -20 -115 44 -117 26 -1 40 6 58 27 60 69 -38
155 -102 90z m55 -49 c-7 -9 -18 -16 -25 -16 -21 0 -26 28 -8 45 14 15 17 15
31 1 13 -12 13 -18 2 -30z"/>
<path d="M7426 2359 c-45 -35 -31 -98 26 -118 45 -16 82 11 86 62 6 66 -58 98
-112 56z m64 -33 c0 -15 -21 -36 -36 -36 -20 0 -27 33 -9 47 19 13 45 7 45
-11z"/>
<path d="M8825 3760 c-53 -21 -60 -88 -13 -123 24 -18 30 -18 58 -7 50 21 65
70 33 108 -22 25 -51 33 -78 22z m42 -46 c9 -25 -26 -49 -44 -31 -8 7 -11 21
-7 30 8 22 43 22 51 1z"/>
<path d="M9560 3620 c-11 -11 -20 -27 -20 -35 0 -20 44 -65 64 -65 17 0 56 46
56 66 0 21 -37 54 -60 54 -11 0 -29 -9 -40 -20z m56 -39 c-9 -13 -16 -14 -35
-2 -12 8 -13 12 -1 26 12 14 15 14 28 1 8 -8 11 -19 8 -25z"/>
<path d="M9070 3002 l0 -500 141 -7 141 -7 64 63 64 63 0 364 0 364 -60 67
-60 68 -113 7 c-61 4 -127 9 -144 12 l-33 6 0 -500z"/>
<path d="M9578 2470 c-26 -16 -33 -68 -12 -91 22 -25 55 -24 88 2 30 23 33 45
10 77 -16 23 -56 29 -86 12z m55 -34 c3 -8 0 -19 -7 -25 -16 -13 -52 10 -42
27 10 17 43 15 49 -2z"/>
<path d="M8807 2360 c-35 -28 -41 -53 -22 -89 27 -54 93 -53 121 1 19 37 5 80
-32 97 -33 15 -37 14 -67 -9z m63 -41 c0 -4 -7 -15 -16 -24 -12 -12 -19 -13
-30 -4 -19 16 -18 36 3 48 18 9 43 -2 43 -20z"/>
<path d="M3681 3704 c-52 -43 -31 -104 36 -104 61 0 85 71 37 109 -34 27 -36
26 -73 -5z m55 -25 c3 -6 0 -18 -9 -26 -18 -18 -37 -9 -37 18 0 21 34 27 46 8z"/>
<path d="M2932 3644 c-46 -32 -17 -114 41 -114 30 0 69 47 61 73 -16 54 -59
72 -102 41z m53 -40 c0 -10 -8 -20 -18 -22 -22 -4 -35 27 -16 39 20 12 34 5
34 -17z"/>
<path d="M3444 2935 c-31 -31 -28 -61 7 -87 25 -19 28 -19 58 -4 41 22 43 65
5 95 -34 27 -40 26 -70 -4z m54 -32 c-5 -26 -38 -29 -38 -4 0 15 6 21 21 21
14 0 19 -5 17 -17z"/>
<path d="M2912 2453 c-7 -3 -19 -18 -28 -34 -17 -34 -8 -59 30 -84 39 -26 96
8 96 57 0 49 -50 80 -98 61z m51 -37 c3 -8 -2 -21 -12 -30 -16 -15 -19 -15
-31 -1 -10 12 -10 18 0 30 16 19 36 19 43 1z"/>
<path d="M3765 2351 c-3 -5 -1 -12 5 -16 12 -7 30 2 30 16 0 12 -27 12 -35 0z"/>
<path d="M2157 3090 c-36 -28 -52 -81 -37 -124 13 -40 35 -62 79 -77 41 -15
100 9 124 51 19 31 22 87 6 110 -9 13 -12 12 -22 -4 -7 -11 -26 -35 -43 -55
-29 -32 -34 -34 -58 -23 -14 6 -32 24 -38 38 -11 24 -10 29 15 50 16 13 35 24
43 24 8 0 14 7 14 15 0 22 -52 19 -83 -5z"/>
<path d="M10302 3088 c-8 -8 -7 -19 4 -40 17 -32 7 -60 -27 -78 -16 -9 -27 -7
-54 10 -30 19 -35 27 -35 61 0 21 -4 39 -9 39 -19 0 -35 -34 -35 -80 -1 -56
25 -92 80 -110 92 -31 178 85 127 171 -20 33 -36 42 -51 27z"/>
<path d="M6160 1787 c-116 -32 -192 -120 -206 -240 -25 -215 201 -370 399
-273 69 33 121 96 143 174 57 196 -138 393 -336 339z m123 -131 c83 -36 120
-130 79 -206 -21 -39 -90 -80 -135 -80 -75 0 -147 71 -147 145 0 57 29 105 80
132 50 26 78 29 123 9z"/>
<path d="M3990 1380 c0 -38 4 -50 15 -50 16 0 21 52 9 84 -12 32 -24 15 -24
-34z"/>
<path d="M8446 1414 c-12 -32 -7 -84 9 -84 11 0 15 12 15 44 0 46 -13 68 -24
40z"/>
</g>
</svg>
