<?xml version="1.0" standalone="no"?>
<!DOCTYPE svg PUBLIC "-//W3C//DTD SVG 20010904//EN"
 "http://www.w3.org/TR/2001/REC-SVG-20010904/DTD/svg10.dtd">
<svg version="1.0" xmlns="http://www.w3.org/2000/svg"
 width="1254.000000pt" height="1254.000000pt" viewBox="0 0 1254.000000 1254.000000"
 preserveAspectRatio="xMidYMid meet">

<g transform="translate(0.000000,1254.000000) scale(0.100000,-0.100000)"
fill="#000000" stroke="none">
<path d="M5200 12103 c-349 -24 -687 -103 -926 -218 -197 -95 -401 -261 -458
-373 -34 -66 -33 -105 3 -295 65 -334 109 -696 97 -797 -4 -30 -8 -94 -9 -142
-1 -47 -5 -89 -9 -93 -3 -4 -73 1 -155 10 -92 11 -195 16 -273 13 -115 -3
-130 -6 -190 -34 -154 -73 -227 -224 -190 -393 37 -172 203 -357 428 -479 l74
-40 -31 -22 c-93 -66 -101 -237 -19 -408 l23 -47 -21 -60 c-20 -59 -21 -60
-103 -103 -89 -47 -196 -75 -251 -65 -87 15 -150 73 -150 138 0 37 16 55 47
55 31 0 50 -39 33 -70 -11 -20 -10 -21 12 -15 64 19 105 79 94 139 -17 88
-112 154 -207 143 -125 -15 -215 -113 -241 -265 -32 -190 99 -402 314 -506 52
-26 137 -57 189 -70 l94 -24 8 -68 c20 -191 109 -370 300 -608 18 -22 18 -24
-3 -58 l-21 -36 -69 30 c-154 64 -318 86 -398 52 -42 -17 -97 -67 -118 -106
-9 -18 -30 -32 -66 -44 -80 -26 -150 -101 -177 -189 -12 -37 -21 -79 -21 -94
0 -17 -11 -38 -29 -55 -16 -16 -35 -40 -41 -55 -7 -15 -46 -48 -97 -81 -228
-147 -353 -379 -353 -655 0 -256 105 -468 298 -602 241 -168 550 -174 868 -18
110 54 173 94 514 327 148 101 346 215 356 206 2 -3 24 -46 49 -96 50 -104
121 -226 243 -422 47 -74 80 -136 74 -138 -26 -8 -153 -90 -209 -134 -104 -82
-250 -248 -324 -368 -7 -12 -13 -10 -31 15 -44 59 -154 168 -214 211 -124 89
-255 134 -389 134 -233 0 -430 -136 -497 -343 -27 -80 -29 -244 -5 -333 57
-208 191 -420 353 -558 40 -34 71 -62 70 -63 -1 -1 -62 -18 -136 -38 -382
-104 -1121 -338 -1205 -383 -27 -14 -82 -59 -121 -98 -86 -86 -137 -182 -161
-302 l-16 -82 53 -263 c50 -250 77 -381 204 -991 31 -147 63 -284 72 -304 25
-60 93 -141 147 -176 51 -33 52 -35 65 -102 14 -74 41 -114 76 -115 16 0 29
-18 55 -72 25 -53 53 -91 105 -142 153 -150 325 -192 601 -146 l110 19 25 -23
c38 -33 55 -36 133 -21 40 8 103 17 140 21 59 6 70 10 89 36 17 23 30 29 58
29 84 0 192 62 255 148 39 53 75 154 75 213 0 32 4 40 23 44 126 29 291 65
292 63 1 -2 15 -27 31 -56 52 -99 193 -198 297 -209 23 -3 139 9 257 26 380
54 880 96 880 74 0 -5 -5 -14 -10 -19 -6 -6 -14 -25 -19 -42 -9 -29 -5 -38 35
-92 25 -33 66 -78 91 -100 51 -45 71 -46 144 -11 51 24 75 13 83 -38 11 -73
28 -81 166 -81 115 0 122 1 145 25 14 13 25 33 25 44 0 62 41 81 102 46 70
-40 82 -36 180 64 96 97 105 120 73 181 l-16 30 49 0 c131 0 484 -36 793 -80
192 -28 208 -29 255 -15 99 29 182 103 225 200 24 53 10 53 194 12 l100 -22 6
-71 c15 -168 155 -317 311 -332 40 -4 56 -11 77 -34 24 -27 35 -30 116 -39 50
-4 111 -12 137 -17 49 -9 92 2 115 29 10 13 27 12 130 -3 212 -31 345 -19 473
43 92 45 205 161 245 251 23 51 35 68 51 68 44 0 74 50 90 152 4 25 13 40 26
44 38 12 147 125 173 179 13 29 38 116 54 192 218 1031 281 1342 281 1390 0
64 -27 166 -61 239 -40 83 -159 209 -234 246 -152 77 -1147 408 -1225 408 -13
0 -40 -48 -40 -72 0 -3 21 -11 48 -18 190 -47 829 -257 1065 -349 160 -63 241
-135 305 -270 60 -124 57 -168 -27 -576 -120 -584 -221 -1059 -231 -1091 -15
-43 -68 -96 -91 -89 -10 3 -32 -1 -50 -10 -19 -10 -41 -14 -57 -10 -25 6 -23
8 31 38 32 17 68 44 79 60 14 19 34 91 60 215 21 103 54 257 73 342 72 323
185 904 185 950 0 121 -97 277 -209 334 -49 26 -451 169 -671 239 -895 286
-1690 441 -2675 519 -219 18 -1165 18 -1380 0 -1005 -82 -1814 -245 -2897
-581 -356 -111 -549 -179 -591 -208 -78 -54 -148 -170 -167 -276 -11 -58 -8
-75 145 -802 30 -143 75 -359 100 -479 50 -246 63 -276 139 -316 52 -28 56
-35 23 -44 -28 -7 -79 7 -113 29 -61 40 -69 67 -173 566 -213 1022 -205 975
-193 1057 18 129 100 259 209 331 86 57 912 317 1443 455 579 149 1177 258
1733 315 l188 19 57 40 c208 145 494 198 847 158 119 -13 124 -15 290 -120 70
-45 87 -51 135 -52 30 0 143 -8 250 -17 436 -38 822 -88 1212 -158 l227 -41
22 21 c28 26 31 26 53 2 17 -19 17 -20 -11 -23 -33 -4 -11 -10 336 -94 189
-46 235 -54 242 -43 4 7 13 44 20 80 10 56 9 82 -4 153 -23 127 -70 216 -172
327 -69 74 -95 112 -135 195 -73 152 -171 242 -218 202 -9 -8 -34 -25 -56 -37
-35 -20 -40 -20 -56 -6 -9 8 -25 15 -35 15 -17 0 -17 1 1 21 46 51 119 72 184
53 94 -28 216 -172 235 -278 5 -33 23 -56 104 -135 82 -80 105 -110 140 -181
48 -99 75 -212 68 -288 -7 -66 7 -65 45 3 27 51 43 118 39 170 -5 52 -57 171
-104 237 -25 35 -76 93 -114 128 -60 57 -68 68 -70 103 -4 96 -139 276 -247
327 -65 31 -138 38 -170 16 -14 -9 -33 -16 -43 -16 -31 -1 -99 -36 -141 -74
-28 -25 -49 -36 -71 -36 -17 0 -63 -16 -101 -35 -65 -33 -186 -73 -194 -64 -2
2 -1 32 2 66 l4 62 77 44 c164 96 326 233 430 365 l63 80 70 -24 c165 -56 257
-69 483 -69 179 1 225 4 315 23 286 62 547 185 720 340 49 44 61 50 116 56
207 23 371 120 440 261 27 55 29 69 29 170 0 102 -3 118 -39 222 l-39 112 16
78 c90 446 -6 907 -280 1350 -198 319 -545 657 -898 873 -79 49 -261 141 -318
161 -27 10 -36 17 -31 29 33 84 -4 179 -89 222 l-28 14 31 42 c35 49 133 123
280 212 138 84 168 107 187 144 35 67 4 181 -73 265 -76 85 -163 104 -294 62
-36 -11 -70 -21 -76 -21 -7 0 -4 21 9 58 45 134 -20 222 -174 230 -166 10
-387 -99 -540 -266 -84 -92 -91 -93 -146 -32 -130 145 -355 80 -432 -125 -11
-29 -26 -95 -33 -146 l-13 -94 -36 3 c-53 5 -117 -25 -149 -70 -37 -51 -89
-175 -96 -231 -8 -57 9 -110 46 -140 17 -15 72 -36 143 -56 190 -52 359 -130
338 -155 -6 -7 -41 -18 -78 -25 -253 -49 -642 -224 -883 -397 l-89 -64 -80 0
c-44 0 -110 -7 -146 -15 -66 -16 -66 -16 -85 7 -21 26 -19 30 30 48 97 37 233
161 303 276 85 140 131 309 125 461 l-3 93 40 26 c149 98 221 231 213 390 -4
70 -10 94 -41 156 -87 176 -257 324 -522 456 -49 24 -92 46 -94 48 -2 2 4 13
14 24 20 22 48 169 38 198 -3 9 -15 27 -25 39 -19 21 -19 23 -3 100 10 43 55
210 100 370 68 239 82 299 75 327 -33 149 -287 362 -590 497 -348 154 -805
237 -1170 212z m-288 -150 c-7 -3 -68 -21 -135 -41 l-122 -37 -6 -310 c-3
-171 -10 -426 -14 -567 l-8 -258 44 -1 c41 0 38 -2 -49 -29 -52 -16 -110 -40
-131 -54 -28 -20 -49 -26 -89 -26 -29 0 -69 -7 -89 -15 -19 -8 -37 -15 -39
-15 -2 0 -4 55 -4 123 0 197 -22 542 -57 895 -3 35 -11 62 -17 62 -18 0 -143
-98 -182 -143 -20 -23 -45 -61 -57 -84 l-20 -41 36 -219 c50 -304 83 -703 58
-703 -7 0 -11 22 -11 58 0 84 -24 269 -76 586 l-46 279 19 41 c25 57 152 182
248 245 160 105 372 187 603 235 108 23 175 32 144 19z m1411 -849 c13 -5 17
-20 17 -69 l0 -63 66 -41 66 -42 54 25 54 25 28 -35 c60 -73 61 -79 14 -127
l-41 -42 14 -49 c8 -27 15 -62 15 -77 0 -25 6 -30 56 -46 l56 -17 -6 -52 c-10
-83 -11 -84 -77 -84 -32 0 -59 -4 -59 -9 0 -5 -2 -16 -5 -23 -4 -9 5 -20 20
-28 14 -7 25 -18 25 -23 0 -13 -104 0 -157 20 -43 16 -58 42 -25 44 15 1 15 2
0 6 -15 4 -15 8 4 49 85 192 -47 404 -251 404 -88 0 -135 -16 -191 -67 -79
-71 -112 -175 -86 -273 8 -30 13 -56 11 -58 -5 -6 -135 -3 -144 3 -6 3 -13 25
-16 49 -7 44 -8 45 -66 62 -55 17 -59 20 -55 43 3 15 8 47 11 74 l6 47 58 0
58 0 37 62 36 61 -31 56 -31 55 43 38 c65 55 73 56 125 8 31 -29 51 -40 62
-35 9 4 43 12 74 18 l58 10 16 51 c9 28 19 55 22 60 5 9 105 2 135 -10z m-26
-325 c122 -63 167 -225 91 -331 -17 -25 -23 -27 -61 -22 -23 4 -44 8 -46 10
-2 2 10 19 27 38 43 50 50 104 20 163 -30 60 -64 85 -126 91 -127 12 -210
-114 -152 -228 l20 -40 -44 0 c-42 0 -45 2 -60 40 -23 57 -20 116 8 176 56
120 200 166 323 103z m-834 -78 c54 -5 101 -12 104 -14 3 -3 2 -15 -2 -26 -4
-15 -15 -21 -35 -21 -15 0 -30 -6 -33 -14 -8 -19 1 -26 35 -26 23 0 28 -4 28
-24 0 -14 5 -28 10 -31 26 -16 -2 -20 -155 -21 -105 0 -169 -4 -176 -11 -8 -8
17 -13 88 -17 131 -8 282 -27 288 -35 2 -4 -53 -15 -123 -24 -173 -24 -365
-63 -692 -141 -346 -82 -525 -115 -665 -122 -121 -7 -121 -6 -28 46 57 32 47
37 -22 11 -64 -24 -69 -25 -59 -10 4 6 48 31 98 56 96 46 95 47 -22 13 -41
-12 -77 -18 -80 -15 -10 10 57 66 127 105 34 19 69 41 79 48 48 35 -102 -22
-170 -65 l-38 -23 0 24 c0 29 32 55 140 113 304 164 874 262 1303 224z m777
-326 c158 -26 239 -46 360 -88 196 -68 458 -211 446 -243 -7 -18 3 -44 16 -44
6 0 8 9 5 20 -5 20 -5 20 23 0 38 -27 103 -101 151 -172 22 -31 39 -59 39 -61
0 -3 -42 37 -94 88 -193 189 -507 341 -849 410 -399 80 -747 55 -1348 -95
-689 -173 -892 -199 -1265 -165 -268 24 -378 5 -451 -78 -52 -59 -64 -127 -38
-212 19 -65 13 -68 -13 -7 -46 106 -49 178 -12 252 62 121 180 153 458 124
396 -42 606 -20 1172 121 417 104 621 143 875 169 87 9 434 -3 525 -19z m-698
-265 c35 -10 72 -26 83 -34 26 -20 39 -20 31 -1 -6 17 5 20 20 5 6 -6 69 -19
142 -30 183 -27 210 -35 218 -66 4 -14 21 -45 40 -69 l32 -43 -44 -42 c-50
-47 -60 -73 -45 -125 l10 -37 -52 8 c-29 5 -119 8 -202 7 -225 -2 -476 -54
-655 -135 -74 -33 -140 -76 -140 -91 0 -6 -27 -34 -59 -64 -37 -33 -70 -75
-86 -108 -23 -47 -26 -63 -23 -132 2 -43 7 -87 12 -98 l8 -20 -17 20 c-51 61
-64 183 -26 255 11 22 16 40 10 40 -18 0 -78 -51 -84 -71 -7 -20 -25 -26 -25
-8 0 6 -8 18 -17 27 -25 25 -198 24 -271 -2 -29 -10 -56 -15 -59 -12 -4 3 3
24 15 45 25 44 30 131 10 178 -11 27 -12 27 -19 -27 -9 -63 -33 -90 -83 -90
-40 0 -92 35 -186 125 -79 76 -103 92 -162 109 l-37 11 35 43 c31 36 41 42 74
42 97 0 420 72 738 165 199 58 255 69 209 44 -9 -6 -17 -14 -17 -20 0 -14 31
4 132 77 191 136 333 173 490 124z m3520 -50 c25 -30 21 -43 -52 -200 -66
-142 -114 -270 -101 -270 10 0 72 80 126 163 21 31 39 57 41 57 2 0 14 -5 27
-11 19 -9 44 -5 130 21 71 21 117 29 136 25 60 -13 146 -132 139 -192 -3 -23
-23 -40 -138 -111 -74 -46 -153 -98 -175 -116 -53 -43 -70 -53 -60 -35 21 37
111 158 138 187 43 44 24 40 -40 -10 -93 -71 -168 -162 -223 -269 -48 -94 -52
-99 -83 -99 -18 0 -50 -3 -71 -7 l-39 -6 7 44 c14 84 25 184 21 187 -6 6 -60
-106 -85 -176 -13 -34 -27 -65 -32 -68 -9 -5 -154 -44 -164 -44 -2 0 -4 68 -4
152 0 83 -3 149 -6 145 -3 -3 -11 -59 -18 -124 l-12 -118 -42 89 c-24 49 -45
87 -47 84 -3 -2 2 -42 9 -89 8 -46 16 -104 19 -129 l4 -46 -68 -31 -69 -31
-75 54 c-71 51 -104 69 -77 42 16 -16 15 -31 0 -21 -15 9 45 -68 67 -87 22
-18 19 -23 -24 -43 l-38 -19 -54 33 c-30 18 -101 66 -159 105 -58 39 -133 86
-167 103 -34 17 -66 39 -72 48 -8 16 -12 13 -26 -21 -9 -21 -13 -42 -8 -46 4
-4 32 -15 61 -24 66 -21 160 -65 169 -79 4 -7 -1 -8 -13 -3 -10 4 -68 23 -129
43 -60 19 -116 40 -122 45 -21 17 -14 79 17 152 35 81 64 116 98 116 16 0 71
-36 156 -102 132 -102 196 -146 196 -133 0 4 -33 49 -72 101 -40 52 -85 111
-100 131 -19 24 -28 48 -28 74 0 69 21 193 42 240 38 90 121 140 198 119 46
-13 72 -41 106 -115 37 -81 85 -167 91 -161 5 4 -14 107 -24 133 -3 8 3 13 16
13 38 0 74 26 149 109 111 123 250 208 397 245 11 2 47 4 79 2 48 -2 63 -7 78
-26z m-2880 -90 c186 -60 436 -206 492 -286 15 -20 13 -22 -46 -40 l-61 -18
-59 33 c-33 18 -62 31 -64 29 -2 -3 16 -19 41 -37 48 -35 52 -42 31 -60 -10
-8 -42 -4 -133 17 -107 26 -126 34 -174 73 -30 24 -71 55 -92 69 -20 14 -37
30 -37 36 0 7 15 23 34 38 l34 25 73 -24 c40 -14 74 -23 76 -21 2 2 -34 27
-80 55 -56 34 -93 64 -111 91 -25 38 -30 50 -22 50 2 0 46 -14 98 -30z m13
-296 c25 -14 45 -28 45 -31 0 -5 -79 3 -132 13 -17 3 -30 14 -33 27 -18 62
-21 59 30 37 25 -11 66 -31 90 -46z m-596 -58 c-2 -2 -44 -14 -92 -25 -48 -11
-93 -25 -100 -30 -85 -68 -162 -166 -386 -493 -30 -43 -60 -78 -67 -78 -8 0
-26 18 -40 40 -33 50 -37 43 103 253 128 193 169 237 244 265 85 31 357 86
338 68z m262 -38 c10 -18 8 -24 -11 -40 -25 -21 -70 -24 -88 -6 -19 19 -14 30
8 18 26 -14 45 -4 30 15 -8 10 -7 16 7 24 27 16 41 13 54 -11z m972 -12 c169
-61 267 -287 227 -526 -62 -374 -414 -664 -595 -490 l-30 29 3 -77 c2 -42 -4
-113 -11 -157 -8 -44 -13 -82 -11 -84 2 -2 18 27 35 65 18 38 34 71 36 73 5 7
83 -72 83 -84 0 -16 -89 -139 -140 -195 -23 -25 -39 -36 -36 -26 19 58 26 110
17 119 -7 7 -14 0 -22 -24 -29 -84 -122 -246 -173 -298 -29 -31 -74 -85 -100
-121 -112 -154 -248 -288 -392 -387 -81 -56 -217 -134 -267 -152 l-27 -11 20
40 c25 50 14 51 -31 4 -139 -146 -370 -224 -661 -224 -239 0 -384 50 -499 173
-23 25 -35 17 -19 -13 6 -12 10 -23 8 -25 -9 -10 -193 83 -278 140 -216 144
-380 353 -451 570 -21 66 -21 69 -3 82 21 16 34 17 34 3 0 -6 19 8 41 32 l41
43 18 -63 c59 -214 210 -388 436 -504 191 -98 347 -132 599 -131 259 1 470 44
704 144 208 90 379 205 515 350 204 216 322 524 297 774 -8 80 -7 80 23 117
17 21 33 38 36 38 3 0 13 -12 22 -27 l17 -28 0 25 c-1 14 -4 36 -8 50 -6 18
-1 39 17 74 13 27 35 93 48 145 22 92 23 98 7 147 l-16 51 42 88 c45 97 89
155 157 211 81 67 199 91 287 60z m-2923 -79 l35 -21 -42 -9 c-28 -5 -51 -18
-68 -39 -14 -17 -24 -32 -22 -34 2 -3 21 3 43 12 77 32 153 11 269 -76 27 -20
72 -38 134 -53 92 -23 95 -24 141 -6 26 10 75 20 111 23 54 5 59 4 29 -5 -67
-19 -89 -31 -95 -50 -6 -18 -70 -69 -87 -69 -5 0 -8 13 -8 30 0 33 -15 44 -72
54 -41 7 -46 1 -23 -30 8 -10 15 -25 15 -33 0 -8 -10 1 -23 20 -52 78 -126
104 -292 103 -132 0 -186 -16 -234 -68 -28 -29 -20 -32 35 -12 22 7 57 16 79
19 l40 7 -50 -23 c-63 -30 -120 -92 -157 -174 -17 -39 -33 -61 -40 -57 -16 10
-1 -81 23 -135 11 -25 31 -61 46 -80 l26 -36 -32 30 c-69 63 -130 232 -116
322 5 38 15 55 50 87 23 23 63 71 88 109 39 57 45 73 40 102 -11 68 40 132 97
119 14 -3 41 -15 60 -27z m2250 -73 c15 -39 12 -43 -22 -33 -69 20 -167 -15
-215 -78 -23 -29 -28 -47 -28 -91 0 -48 3 -57 33 -83 32 -28 92 -41 92 -19 0
6 -4 10 -9 10 -5 0 -11 7 -15 15 -16 42 40 77 80 50 34 -22 32 -71 -6 -123
-56 -78 -187 -132 -318 -132 l-76 0 46 48 c81 82 134 190 178 359 6 23 22 56
36 73 25 30 27 30 120 30 92 0 95 -1 104 -26z m210 10 c0 -11 -5 -14 -16 -10
-9 3 -22 6 -30 6 -8 0 -14 5 -14 10 0 6 14 10 30 10 21 0 30 -5 30 -16z m-67
-30 c41 -27 41 -28 26 -87 l-10 -42 -50 48 c-36 34 -52 59 -56 83 -6 34 -5 35
23 28 16 -3 46 -17 67 -30z m-156 -85 c46 -17 101 -78 119 -132 88 -266 -248
-622 -694 -737 -167 -43 -351 -52 -508 -25 -126 22 -263 69 -343 117 l-33 21
32 13 c19 8 49 12 74 9 40 -6 41 -6 12 7 l-29 13 24 30 c32 39 48 73 51 109 3
24 13 34 67 61 189 97 311 109 670 68 118 -13 159 -14 222 -5 174 25 317 125
349 243 14 50 -11 114 -51 134 -50 26 -88 19 -127 -22 l-35 -38 6 39 c3 21 14
48 24 59 38 42 112 58 170 36z m-2102 -69 c4 -6 -8 -10 -29 -10 -33 0 -37 -4
-103 -112 -38 -62 -91 -153 -118 -202 l-48 -89 -19 23 c-10 12 -18 32 -18 44
0 27 76 167 147 274 l55 82 64 0 c34 0 66 -4 69 -10z m575 -118 c19 -10 44
-32 55 -50 69 -114 105 -161 153 -196 44 -33 50 -41 37 -49 -13 -7 -24 -1 -47
27 -40 49 -77 66 -141 66 -41 0 -61 -5 -78 -20 l-24 -21 32 6 c47 9 108 -11
137 -46 35 -41 37 -123 4 -164 -24 -30 -74 -55 -113 -55 -33 0 -32 18 0 26 44
11 21 29 -37 29 -48 0 -59 -4 -98 -38 -69 -59 -124 -81 -201 -81 -168 2 -266
136 -214 293 22 68 96 135 173 157 55 16 154 15 195 -1 36 -15 15 13 -28 36
-25 13 -45 27 -45 31 0 12 61 58 83 63 12 2 31 6 42 9 28 6 74 -3 115 -22z
m4343 -33 c16 -25 0 -66 -44 -114 -35 -37 -48 -44 -105 -55 -36 -7 -67 -10
-69 -8 -5 4 59 166 69 176 10 9 72 20 105 19 19 -1 38 -9 44 -18z m131 0 c33
-26 36 -77 6 -104 -18 -17 -20 -17 -14 -2 9 23 -2 21 -40 -8 -18 -14 -42 -25
-54 -25 -21 0 -21 0 3 53 14 28 25 64 25 80 0 22 5 27 24 27 13 0 35 -9 50
-21z m-344 -23 c0 -26 -30 -97 -59 -139 -24 -35 -40 -47 -95 -66 -37 -13 -70
-21 -73 -18 -9 9 26 127 48 164 14 22 34 36 67 47 89 28 112 31 112 12z
m-3080 -61 c-24 -25 -46 -45 -49 -45 -3 0 15 20 39 45 24 25 46 45 49 45 3 0
-15 -20 -39 -45z m2845 -22 c-3 -16 -20 -61 -37 -100 -27 -67 -34 -75 -75 -93
-52 -23 -83 -26 -84 -7 -5 56 24 139 59 170 20 19 106 56 131 57 9 0 11 -8 6
-27z m-220 -85 c-4 -13 -14 -53 -23 -90 -17 -68 -17 -68 -52 -69 l-35 -1 29
-12 c16 -7 25 -16 19 -19 -15 -9 -56 16 -70 43 -26 49 5 108 75 144 59 31 66
32 57 4z m-5192 -39 c29 -15 57 -50 57 -72 0 -17 -2 -17 -26 2 -84 66 -193
-34 -162 -147 14 -52 51 -97 106 -129 42 -25 56 -28 142 -28 89 0 102 3 201
43 59 24 110 42 115 40 12 -3 134 72 134 83 0 4 -9 14 -20 22 -13 9 -17 20
-13 35 3 12 8 22 11 22 12 0 52 -44 52 -57 0 -7 8 -13 18 -13 10 0 22 -4 28
-10 6 -6 29 -4 64 5 103 27 194 17 215 -26 11 -21 12 -28 2 -32 -7 -3 -1 -9
14 -15 22 -9 46 -40 37 -47 -2 -1 -12 -7 -23 -14 -17 -10 -16 -11 13 -5 33 6
92 -11 92 -26 0 -4 -7 -11 -16 -14 -9 -4 -15 -9 -12 -12 3 -2 18 0 33 6 15 6
37 8 47 4 18 -5 15 -11 -28 -56 -149 -154 -394 -249 -634 -247 -165 2 -192 13
-91 39 70 18 43 19 -57 2 l-93 -16 -84 28 c-245 83 -398 291 -356 480 23 102
88 166 168 166 24 0 54 -5 66 -11z m6119 -24 c130 -56 350 -186 493 -292 161
-120 422 -376 527 -519 295 -399 444 -852 408 -1241 -12 -136 -21 -194 -56
-351 -14 -62 -24 -123 -22 -135 3 -19 9 -14 38 31 l34 53 18 -58 c11 -32 22
-99 25 -150 5 -80 3 -97 -16 -136 -42 -87 -134 -148 -274 -183 -70 -17 -88
-15 -69 9 14 16 44 98 38 104 -2 2 -60 -50 -130 -116 -69 -65 -160 -143 -203
-171 -151 -101 -340 -178 -543 -221 -140 -30 -402 -33 -529 -6 -99 21 -238 64
-245 76 -3 4 0 23 5 42 l11 35 64 -4 c35 -2 64 -1 64 2 0 4 -19 16 -43 26 -31
14 -74 21 -153 23 -122 5 -199 28 -300 88 -59 36 -134 102 -134 119 0 16 38
11 81 -10 22 -11 76 -36 122 -55 45 -18 114 -47 152 -63 39 -16 83 -32 99 -36
26 -7 28 -6 16 9 -7 9 -52 43 -99 76 -122 84 -208 169 -171 169 5 0 39 28 75
61 l65 62 78 -70 c42 -39 100 -84 127 -100 49 -30 123 -59 130 -51 2 2 -40 37
-95 77 -97 72 -205 174 -198 189 101 195 123 275 122 447 -1 106 -6 148 -27
227 -43 163 -143 355 -254 484 -28 34 -65 88 -82 121 -81 161 -230 402 -323
521 -58 74 -58 81 -7 211 37 93 79 169 131 239 22 30 38 55 36 57 -2 3 -20 0
-39 -4 -19 -5 -68 -12 -109 -16 -230 -21 -594 -161 -823 -317 -50 -35 -138
-108 -195 -162 l-103 -100 -31 31 c-38 38 -34 46 69 143 102 95 188 159 354
263 301 188 547 287 844 339 69 12 134 29 153 40 18 11 35 18 37 16 2 -2 -9
-44 -25 -93 -34 -108 -52 -227 -48 -315 l3 -65 54 165 c29 91 75 211 101 267
50 107 60 116 143 137 l27 6 1 -97 c1 -135 12 -160 29 -63 7 41 22 99 32 128
l20 52 66 -58 c82 -72 182 -146 188 -139 6 6 -69 117 -124 184 l-33 42 41 11
c37 10 49 9 94 -10 56 -25 392 -201 498 -262 108 -62 104 -49 -15 50 -98 82
-183 140 -295 203 -83 46 -83 47 -55 57 46 17 67 14 155 -23z m-1152 -98 c0
-21 -25 -36 -212 -126 -117 -56 -262 -135 -323 -175 -60 -40 -144 -92 -185
-116 -176 -102 -395 -270 -498 -382 l-23 -25 -59 21 c-33 12 -60 23 -60 27 0
15 186 201 274 273 278 229 668 428 991 507 93 23 95 23 95 -4z m-3444 -249
c51 -38 196 -111 247 -123 15 -4 27 -10 27 -14 0 -3 -70 -21 -156 -38 -86 -18
-169 -39 -184 -47 -22 -11 -57 -12 -176 -5 -82 4 -162 8 -178 8 -30 1 -29 1
32 64 34 34 69 72 78 85 11 17 25 22 56 22 50 0 114 29 153 70 15 16 33 26 39
23 6 -4 34 -24 62 -45z m1406 -39 c9 -19 22 -62 29 -96 11 -53 15 -61 27 -50
17 14 14 2 -20 -90 -21 -57 -36 -73 -48 -53 -6 10 -23 110 -45 259 -4 33 12
74 28 69 6 -3 20 -20 29 -39z m-82 -123 c21 -87 29 -223 17 -276 -3 -14 -6
-28 -6 -33 -2 -16 -98 -68 -175 -93 -105 -36 -168 -37 -200 -3 -20 20 -28 49
-49 189 -24 159 -24 210 2 210 6 0 8 -7 5 -15 -4 -8 -1 -15 5 -15 6 0 11 8 11
19 0 14 15 22 64 35 34 10 99 33 142 52 90 39 100 40 126 17 19 -17 19 -16 13
12 -6 28 -5 29 9 11 8 -10 25 -59 36 -110z m-532 -48 c13 -11 15 -10 9 5 -13
34 24 17 39 -18 19 -47 54 -253 54 -322 0 -77 -27 -102 -145 -132 -138 -35
-148 -39 -100 -40 22 0 84 15 138 32 53 18 102 30 107 27 14 -9 30 -58 30 -96
0 -61 -23 -99 -81 -132 -82 -45 -232 -102 -273 -102 -47 0 -60 22 -80 129 -15
76 -15 87 -1 108 9 12 25 23 38 23 18 1 15 4 -15 21 -21 10 -42 27 -47 38 -14
25 -52 291 -54 374 -3 103 2 106 204 101 112 -2 166 -7 177 -16z m1474 -10
c-13 -14 -36 -23 -59 -24 -21 -1 -44 -4 -52 -6 -7 -1 -15 2 -18 8 -3 10 33 23
102 38 45 9 50 6 27 -16z m1056 -80 c-22 -51 -42 -95 -44 -97 -2 -3 -19 9 -37
26 -17 16 -54 46 -80 66 -26 19 -43 38 -38 41 17 11 186 55 212 55 l27 1 -40
-92z m-2968 20 c10 -25 28 -117 41 -214 25 -189 22 -214 -29 -247 l-27 -18 33
4 c21 2 37 -2 47 -13 18 -20 35 -104 35 -175 0 -85 -33 -102 -241 -126 -158
-17 -183 1 -212 156 -19 98 -13 115 46 116 23 1 33 3 22 6 -43 11 -83 35 -93
58 -6 13 -18 70 -26 127 -34 231 -33 305 3 295 10 -2 27 0 37 6 30 17 245 65
297 66 47 1 48 0 67 -41z m-501 -47 c22 -22 23 -26 51 -224 26 -182 26 -198
-6 -228 -24 -22 -34 -24 -149 -27 -189 -5 -204 9 -230 202 -22 168 -20 251 5
276 18 18 33 20 165 20 130 0 147 -2 164 -19z m-420 -12 c12 -14 22 -43 26
-78 4 -31 13 -105 21 -166 8 -60 14 -125 14 -142 0 -70 -77 -98 -182 -67 -67
20 -105 52 -133 110 -22 48 -48 198 -41 239 5 27 12 33 54 44 26 7 83 27 127
46 44 18 83 34 87 34 4 1 16 -9 27 -20z m3585 -54 c177 -107 361 -316 507
-579 36 -65 39 -61 -32 -40 -20 6 -20 5 -9 -17 7 -13 63 -72 125 -131 330
-314 457 -725 315 -1014 -89 -182 -264 -281 -516 -291 -147 -7 -276 7 -427 46
-116 30 -383 129 -373 138 3 3 27 -2 53 -12 26 -9 77 -21 113 -25 36 -4 119
-20 185 -34 558 -120 891 9 948 367 47 295 -179 706 -506 920 -42 27 -75 52
-74 54 2 2 30 -6 63 -18 105 -36 97 -37 76 10 -101 225 -337 500 -520 608 -53
30 -61 38 -46 44 36 14 61 9 118 -26z m-1763 -184 c-14 -25 -123 -125 -196
-179 l-59 -44 -18 21 c-20 26 -35 128 -21 150 7 12 34 18 94 23 46 3 109 15
139 26 69 26 73 26 61 3z m698 -16 c187 -28 256 -60 316 -150 19 -30 38 -61
41 -70 4 -9 13 -14 20 -11 18 7 71 -133 96 -254 14 -69 19 -124 16 -203 -2
-59 -2 -107 0 -107 2 0 12 19 23 43 l19 42 -4 -70 c-2 -39 -14 -109 -26 -155
-22 -89 -102 -264 -143 -314 -23 -29 -24 -29 -51 -11 l-27 18 23 25 c20 22 21
24 4 18 -52 -18 -116 -27 -164 -21 -112 14 -256 114 -318 221 -23 39 -34 48
-52 46 -16 -3 -33 8 -57 34 -25 27 -35 33 -35 21 0 -13 -9 -17 -36 -17 -19 0
-44 5 -56 11 -11 6 -22 8 -25 5 -7 -6 47 -61 65 -67 23 -8 -7 -59 -33 -59 -35
0 -87 41 -120 94 -25 41 -30 60 -30 112 0 48 5 67 20 84 27 30 109 68 165 76
59 8 110 23 110 34 0 13 -104 23 -147 15 -21 -3 -57 -15 -80 -25 -50 -22 -56
-17 -57 54 0 36 7 63 24 94 36 64 97 90 243 104 64 6 122 15 129 19 57 36
-201 39 -286 4 -17 -7 -18 -4 -11 36 10 67 51 120 110 143 42 16 74 19 193 18
85 -1 142 2 142 8 0 20 -115 45 -207 45 -62 0 -93 4 -93 11 0 6 17 31 38 54
27 31 48 44 77 50 60 12 69 11 184 -5z m-2010 -243 c21 -56 35 -181 22 -209
-11 -25 -14 -25 -87 -21 -45 3 -81 11 -89 19 -8 8 -23 41 -35 74 l-20 60 5
-45 c3 -25 8 -55 11 -67 l6 -23 -53 16 c-30 9 -64 22 -76 30 -62 39 -94 212
-35 189 16 -7 116 -25 137 -26 18 0 168 30 172 35 10 10 32 -7 42 -32z m-424
-24 c18 -62 19 -80 4 -95 -14 -14 -45 -1 -136 60 -87 58 -85 75 10 80 39 1 80
4 89 5 13 1 21 -12 33 -50z m-359 -315 c39 -32 40 -39 16 -71 l-17 -22 -35 28
c-32 28 -33 30 -21 60 8 18 15 32 18 32 2 0 20 -12 39 -27z m-308 -29 c126
-43 210 -92 288 -169 77 -75 94 -110 94 -196 0 -46 -45 -154 -64 -154 -5 0
-16 19 -23 42 -29 86 -150 191 -300 259 -69 32 -93 35 -93 15 0 -5 51 -43 113
-84 142 -94 200 -155 222 -232 26 -87 7 -154 -63 -227 -37 -39 -52 -41 -52 -7
0 34 -36 92 -87 140 -58 55 -83 73 -190 132 -63 35 -84 42 -92 33 -13 -16 10
-38 89 -88 125 -78 219 -190 220 -258 0 -36 -43 -120 -77 -153 -31 -29 -85
-44 -126 -33 -23 5 -77 52 -77 66 0 3 17 11 38 17 40 10 42 8 -32 36 -16 6
-65 32 -109 59 -44 26 -82 46 -85 43 -3 -2 7 -23 22 -45 l26 -40 -22 -5 c-13
-2 -39 -6 -58 -7 l-35 -3 28 -19 c15 -10 45 -19 67 -20 37 -1 39 -3 45 -36 3
-19 13 -46 20 -60 l14 -25 1 25 c0 14 3 35 6 47 6 21 8 20 36 -18 16 -22 49
-53 74 -67 40 -24 44 -30 39 -57 -3 -16 -20 -44 -37 -62 -65 -67 -183 -81
-309 -37 -90 31 -138 74 -182 164 -30 61 -32 71 -31 170 0 82 5 118 22 165 14
38 22 82 22 123 0 74 16 115 65 162 31 30 35 40 35 84 0 57 26 120 61 153 13
12 51 32 84 45 51 20 66 32 96 78 20 30 49 60 65 67 42 19 160 8 252 -23z
m3765 -3 c35 -15 80 -31 100 -35 47 -9 63 -34 83 -127 21 -98 14 -273 -16
-389 -12 -47 -46 -136 -76 -198 -46 -94 -67 -125 -133 -193 -68 -70 -81 -80
-102 -74 -48 15 -276 135 -294 155 -20 23 -36 150 -18 150 32 0 45 -67 18 -90
-8 -7 -12 -16 -9 -21 21 -34 119 30 190 124 84 113 160 289 185 433 12 67 8
245 -6 277 -10 24 5 22 78 -12z m-1504 -73 c-12 -29 -29 -75 -38 -103 l-18
-49 -11 46 c-7 26 -19 54 -29 63 -14 15 -14 18 -2 25 8 5 34 22 59 39 25 16
48 30 52 30 4 1 -2 -23 -13 -51z m1882 -2 c49 -14 91 -21 94 -16 3 5 31 14 62
20 100 21 224 -10 341 -84 57 -36 48 -44 -15 -13 -90 45 -217 73 -283 62 -50
-8 -51 -19 -2 -33 47 -14 189 -102 222 -137 24 -25 20 -24 -55 13 -71 35 -286
111 -403 142 -24 6 -50 14 -59 17 -13 5 -14 -1 -8 -38 9 -56 4 -50 -29 31 -15
36 -30 71 -33 77 -4 10 6 9 37 -2 23 -8 82 -26 131 -39z m-3675 -67 c3 -6 1
-15 -5 -22 -6 -8 -6 -18 -1 -27 6 -8 9 -35 9 -60 0 -25 -3 -38 -6 -30 -15 41
-57 117 -75 137 -17 18 -19 25 -9 37 11 13 17 12 47 -6 19 -11 37 -24 40 -29z
m1628 -15 c25 -10 34 -69 35 -214 0 -142 -11 -221 -35 -241 -51 -42 -353 60
-393 133 -19 33 -14 38 40 45 40 6 41 7 18 16 -24 9 -23 10 16 28 22 10 48 19
58 19 9 0 17 5 17 10 0 14 -78 12 -122 -4 -37 -13 -38 -13 -38 11 0 35 42 71
146 122 132 66 217 91 258 75z m-1056 -159 c37 -8 113 -22 170 -29 108 -15
132 -26 132 -57 0 -16 -8 -19 -47 -19 -27 -1 -61 -7 -78 -15 l-30 -13 42 -1
c23 -1 49 -4 57 -7 15 -6 15 -8 -1 -21 -16 -12 -14 -13 22 -8 39 6 41 5 54
-30 11 -32 11 -39 -6 -57 -31 -34 -175 -125 -230 -144 -50 -18 -52 -18 -72 1
-23 20 -61 130 -61 174 0 14 -9 50 -20 79 -20 51 -26 115 -14 146 7 19 1 19
82 1z m588 -75 c1 -41 7 -88 13 -103 10 -26 9 -29 -24 -43 -44 -18 -66 -18
-91 1 -27 20 -36 18 -29 -6 6 -18 4 -20 -17 -14 -35 11 -56 33 -74 81 -26 69
-6 134 42 134 18 0 24 -6 24 -22 l0 -21 23 21 c25 24 93 52 117 49 11 -2 15
-20 16 -77z m638 -71 c-10 -58 -17 -154 -18 -249 -1 -148 -2 -156 -23 -173
-13 -10 -24 -28 -24 -40 -1 -12 -5 -4 -10 18 -13 66 -11 233 5 263 7 15 21 60
29 100 22 96 48 185 53 179 3 -2 -3 -46 -12 -98z m-1748 -51 c66 -128 -107
-389 -242 -364 -18 4 -40 16 -48 28 -14 19 -12 24 18 62 19 23 44 61 56 85 21
42 23 44 36 26 8 -10 15 -26 15 -34 1 -9 5 2 8 24 4 22 3 51 -1 64 -7 20 -3
30 21 55 17 17 40 53 51 79 l22 49 25 -24 c14 -12 31 -35 39 -50z m-1285 -182
c-60 -124 -49 -293 29 -446 37 -72 135 -163 205 -190 83 -31 176 -37 251 -15
72 20 119 47 203 115 35 28 66 49 68 46 11 -10 -33 -79 -65 -104 -87 -66 -111
-107 -42 -72 22 11 40 18 40 15 0 -16 -65 -98 -107 -135 -53 -47 -111 -78
-192 -105 -81 -26 -243 -17 -331 19 -139 56 -261 178 -296 296 -33 109 -32
109 -34 40 l-1 -65 -16 30 c-24 45 -30 213 -9 292 34 137 111 249 246 360 l65
54 3 -46 c2 -31 -3 -60 -17 -89z m2542 58 c40 -26 74 -48 76 -50 6 -6 -15 -70
-80 -239 -70 -185 -106 -265 -118 -265 -11 0 -75 76 -118 140 -47 71 -119 209
-143 277 l-22 62 38 45 c21 25 39 46 40 46 0 0 15 -5 33 -11 25 -9 30 -15 26
-30 -8 -25 3 -24 26 4 19 21 19 22 34 3 13 -18 15 -18 21 -2 5 13 81 57 112
65 2 1 36 -20 75 -45z m-889 -41 c-39 -89 -39 -88 -20 -155 44 -162 159 -434
233 -552 l30 -48 -5 164 c-2 90 -1 209 3 263 l9 100 12 -194 c14 -209 43 -426
74 -548 11 -42 18 -78 17 -80 -2 -2 -25 41 -51 94 -26 54 -67 125 -91 158 -53
72 -171 306 -214 425 -39 108 -81 255 -81 285 0 19 82 125 96 125 2 0 -3 -17
-12 -37z m1740 25 c3 -7 7 -25 10 -39 4 -19 16 -29 45 -39 35 -11 43 -11 67 4
25 17 27 17 55 -10 33 -32 35 -41 13 -65 -15 -16 -15 -22 1 -63 15 -39 23 -47
51 -52 33 -6 34 -8 34 -55 0 -48 -1 -49 -30 -49 -25 0 -32 -6 -50 -47 l-20
-46 22 -24 22 -23 -34 -35 -33 -34 -27 19 c-26 19 -29 19 -69 2 -33 -14 -42
-23 -47 -49 -6 -32 -8 -33 -54 -33 -46 0 -49 2 -55 31 -5 24 -17 35 -48 49
-40 18 -41 18 -70 -2 l-29 -21 -30 31 -31 30 22 30 c21 30 21 31 4 69 -21 45
-30 53 -60 53 -21 0 -23 5 -23 50 0 49 1 50 30 50 27 0 33 6 51 47 l20 47 -20
27 -21 28 31 30 31 31 28 -20 29 -21 39 20 c32 16 41 27 46 56 7 34 8 35 52
35 27 0 46 -5 48 -12z m-611 -60 l57 -12 0 -51 c0 -46 -6 -59 -52 -125 -72
-102 -300 -341 -313 -328 -2 2 17 53 44 114 27 60 75 180 106 267 53 144 60
158 79 152 12 -3 47 -11 79 -17z m-678 -65 c49 -130 161 -320 245 -416 23 -26
41 -50 38 -52 -12 -12 -203 127 -282 206 l-89 89 7 92 c6 76 11 96 28 111 29
25 33 22 53 -30z m-605 -135 c11 -15 20 -33 20 -41 0 -8 9 -40 20 -72 11 -32
19 -59 18 -61 -2 -1 -36 29 -75 67 -40 38 -71 69 -69 69 3 0 21 -9 40 -21 20
-12 36 -19 36 -16 0 3 -13 46 -30 95 -36 108 -39 151 -5 67 14 -33 34 -72 45
-87z m-547 17 l28 -25 -20 -37 c-40 -77 -134 -145 -227 -162 -38 -7 -44 -6
-40 6 4 8 9 25 12 36 3 14 25 32 57 47 49 23 62 38 130 134 22 32 25 32 60 1z
m1928 -234 c63 -323 260 -668 502 -881 47 -41 84 -76 82 -78 -1 -2 -43 16 -91
38 -266 124 -434 182 -637 221 -62 12 -118 23 -125 25 -37 10 -157 323 -168
439 l-5 50 57 40 c72 49 281 251 320 307 l29 41 8 -49 c4 -27 17 -96 28 -153z
m162 28 c3 -12 -1 -32 -10 -45 -20 -32 -11 -64 32 -110 19 -20 52 -76 72 -123
191 -447 610 -813 1083 -944 195 -55 460 -68 650 -33 192 35 396 119 569 233
139 92 363 327 335 352 -5 5 -49 16 -99 25 -100 19 -222 49 -305 74 l-55 17
49 5 49 5 -111 70 c-109 68 -140 95 -86 74 41 -15 39 -4 -3 22 l-38 24 63 3
63 3 78 -74 c117 -109 287 -190 429 -204 37 -3 62 -11 62 -17 0 -42 -176 -261
-285 -354 -89 -78 -253 -179 -363 -226 -215 -90 -386 -126 -607 -126 -415 0
-800 158 -1119 461 -163 154 -283 313 -376 499 -57 115 -125 308 -136 389 l-7
51 31 -15 c16 -9 32 -25 35 -36z m-967 10 c46 -49 157 -127 241 -171 l77 -40
-3 -38 c-4 -66 41 -218 136 -447 4 -10 -18 -13 -90 -13 -52 0 -130 -7 -173
-15 -43 -8 -81 -11 -85 -7 -15 15 -70 163 -94 254 -14 51 -32 138 -40 193 -16
106 -20 315 -7 315 5 0 21 -14 38 -31z m-1871 -90 c69 -46 152 -78 203 -79 45
0 57 -14 20 -24 -109 -29 -258 47 -322 164 l-19 35 34 -31 c19 -17 56 -46 84
-65z m735 -4 c9 -42 9 -69 0 -112 -17 -80 -33 -103 -26 -38 2 28 1 82 -4 120
-8 63 -4 83 17 85 1 0 7 -25 13 -55z m2584 -171 c3 -8 2 -12 -4 -9 -6 3 -10
10 -10 16 0 14 7 11 14 -7z m26 -58 c0 -6 15 -16 32 -21 37 -11 80 -68 76 -99
-2 -11 -14 -26 -27 -32 -30 -15 -62 -2 -83 34 -16 28 -31 126 -21 136 8 8 23
-3 23 -18z m177 -165 c36 -23 49 -52 33 -81 -24 -46 -110 -6 -110 51 0 16 7
32 18 38 23 14 22 14 59 -8z m121 -101 c26 -25 27 -29 6 -58 -18 -26 -41 -28
-72 -6 -26 18 -28 41 -5 66 21 24 44 23 71 -2z m108 -75 c15 -23 15 -27 0 -50
-20 -30 -35 -31 -70 -4 -25 19 -25 22 -11 50 20 37 58 39 81 4z m564 5 c0 -12
54 -40 78 -40 26 0 42 -21 47 -62 3 -19 13 -39 25 -47 26 -17 26 -52 0 -74
-11 -9 -20 -29 -20 -45 0 -42 -24 -68 -69 -76 -26 -4 -44 -14 -51 -26 -14 -26
-60 -26 -83 0 -9 11 -29 20 -45 20 -34 0 -61 27 -79 78 -11 31 -10 39 2 48 23
18 19 21 -36 26 -63 6 -72 15 -58 56 12 34 21 35 88 10 28 -10 43 -1 19 13
-16 9 -16 11 0 42 21 39 38 51 77 53 16 1 34 9 40 18 11 17 65 22 65 6z m-459
-49 c20 -16 22 -23 14 -47 -13 -37 -62 -45 -89 -15 -16 18 -16 21 -1 50 18 36
42 39 76 12z m129 -49 c21 -17 22 -21 8 -48 -11 -24 -19 -29 -48 -27 -44 2
-62 25 -48 64 8 23 16 29 38 29 15 0 38 -8 50 -18z m-1601 -58 c33 -4 61 -10
61 -14 0 -4 -38 -8 -85 -9 -208 -1 -435 -78 -620 -209 -67 -47 -235 -207 -235
-224 0 -4 9 -8 19 -8 11 0 23 -4 26 -10 4 -6 -21 -8 -72 -4 -43 4 -79 7 -80 8
-1 1 35 44 81 96 165 190 370 319 579 364 68 15 228 20 326 10z m499 -110
c161 -60 292 -136 397 -229 l30 -27 -40 23 c-22 12 -69 39 -105 59 -36 21 -76
41 -88 45 l-24 7 19 -29 18 -28 -21 15 c-12 8 -46 34 -76 57 -30 23 -95 64
-144 92 -48 28 -83 51 -76 51 7 0 57 -16 110 -36z m-2158 -149 c130 -35 275
-133 374 -253 80 -98 150 -219 180 -310 24 -75 44 -182 33 -182 -3 0 -14 30
-26 68 -18 62 -78 188 -104 220 -9 11 -12 11 -18 -5 -5 -15 -9 -13 -28 17 -11
19 -21 44 -21 55 0 27 -82 125 -122 146 -18 10 -60 46 -93 81 -51 54 -72 68
-133 91 -75 28 -126 34 -137 18 -3 -6 -20 -4 -42 5 -20 9 -63 19 -97 23 l-61
7 50 16 c63 21 174 22 245 3z m-135 -116 c92 -38 171 -95 266 -189 111 -112
212 -264 311 -470 44 -91 89 -177 99 -192 24 -33 24 -35 -6 -40 -33 -7 -43 8
-133 188 -93 186 -149 280 -226 378 -152 194 -330 308 -483 308 -70 1 -140
-28 -173 -69 -11 -14 -20 -20 -20 -13 0 27 55 83 104 106 68 33 172 30 261 -7z
m5316 -109 c10 -6 19 -15 19 -20 0 -17 -54 -11 -85 10 l-30 20 38 0 c21 0 47
-5 58 -10z m-4296 -98 c214 -85 404 -294 366 -402 -8 -23 -108 -160 -117 -160
-1 0 -17 26 -34 58 -105 186 -281 340 -441 386 -42 12 -59 23 -68 42 -17 37
-15 41 32 75 41 30 44 31 127 26 51 -3 105 -13 135 -25z m3424 -33 c-4 -27 -6
-56 -3 -63 8 -22 -55 -96 -118 -136 -34 -22 -65 -40 -70 -40 -6 0 19 31 55 70
39 42 79 99 102 145 20 41 38 75 39 75 2 0 -1 -23 -5 -51z m539 -63 c78 -85
132 -226 132 -349 0 -69 -17 -142 -36 -158 -12 -9 -14 -4 -14 35 0 55 -15 61
-25 9 -4 -20 -13 -46 -21 -57 -13 -19 -14 -12 -9 69 10 145 -35 313 -116 426
-24 35 -18 36 28 7 l35 -21 -7 24 c-4 13 -16 37 -27 52 -19 27 -19 28 -1 18
11 -5 38 -30 61 -55z m-4063 -169 c43 -29 125 -109 125 -122 0 -6 -15 -25 -33
-43 l-33 -32 -19 32 c-10 18 -47 69 -82 115 -35 46 -63 85 -63 87 0 9 77 -17
105 -37z m-10 -227 c21 -65 31 -145 17 -136 -7 4 -12 19 -12 34 0 38 -52 144
-57 117 -11 -57 -15 -67 -22 -59 -5 5 -11 48 -13 95 l-4 87 38 -46 c21 -26 45
-67 53 -92z m205 13 c32 -51 55 -111 46 -120 -3 -4 -15 2 -26 12 -11 10 -20
15 -20 10 0 -4 -7 -2 -16 6 -13 11 -14 9 -9 -14 13 -51 -20 -29 -49 31 l-28
59 28 30 c16 17 32 31 37 32 4 0 21 -20 37 -46z m2480 -287 c262 -23 564 -55
638 -67 47 -8 62 -15 58 -25 -3 -8 -3 -21 1 -30 5 -13 10 -11 33 11 l28 27
169 -27 c536 -85 1128 -229 1688 -412 241 -79 585 -201 602 -215 6 -5 13 -24
15 -41 3 -29 6 -32 38 -33 30 0 38 -6 62 -45 60 -98 60 -97 -20 -496 -40 -197
-105 -511 -145 -697 l-72 -339 -27 -3 c-40 -4 -68 -14 -68 -24 0 -6 21 -7 47
-3 l48 6 -16 -24 c-9 -13 -31 -32 -48 -43 -32 -18 -34 -18 -163 8 -125 24
-132 25 -166 9 -43 -20 -66 -71 -58 -124 4 -28 2 -40 -9 -46 -17 -10 -45 -85
-45 -123 0 -15 7 -33 15 -40 22 -18 19 -35 -15 -73 -35 -40 -101 -62 -157 -53
-156 27 -229 49 -261 79 -30 29 -38 31 -110 33 -89 1 -114 6 -442 85 -297 71
-648 142 -666 135 -7 -3 -21 -31 -30 -63 l-17 -57 -18 22 c-17 22 -18 22 -24
3 -3 -11 -19 -36 -35 -56 -17 -21 -30 -44 -30 -51 0 -24 -49 -27 -153 -10
-181 29 -681 86 -758 86 -13 0 -18 15 -23 72 -8 84 -20 102 -84 118 -26 6 -50
16 -53 22 -4 6 4 29 17 52 35 60 31 82 -26 147 l-50 57 58 -4 c31 -3 131 -11
222 -19 106 -9 170 -10 182 -4 12 7 25 5 40 -4 13 -8 117 -26 243 -41 222 -28
451 -64 713 -113 105 -20 149 -24 170 -17 22 8 30 6 47 -12 15 -15 59 -29 169
-53 82 -18 264 -64 404 -102 209 -57 259 -68 286 -61 32 9 573 369 593 394 5
7 22 74 37 148 15 74 63 304 107 510 54 253 78 384 73 405 -3 16 -55 111 -114
210 -59 99 -121 205 -138 235 -17 30 -39 60 -49 66 -38 23 -867 264 -907 264
-12 0 -41 -10 -66 -21 -43 -19 -45 -19 -55 -3 -5 10 -21 30 -35 44 -23 24 -52
32 -290 78 -491 97 -895 157 -938 141 -13 -5 -39 -21 -58 -36 -38 -28 -37 -28
-65 19 -19 35 -69 50 -198 59 -368 26 -483 31 -778 32 -312 2 -322 1 -350 -19
-63 -47 -73 -75 -73 -208 l0 -121 -23 27 c-25 30 -256 224 -314 264 -36 25
-42 26 -133 21 -235 -15 -976 -124 -1033 -153 -15 -8 -41 -34 -58 -57 -24 -33
-29 -48 -25 -77 3 -19 8 -84 12 -144 l6 -110 -23 17 c-13 9 -100 65 -194 124
-93 59 -185 118 -204 130 -19 13 -46 23 -61 23 -51 0 -800 -194 -867 -224 -24
-12 -76 -82 -232 -312 -169 -251 -201 -303 -201 -334 0 -32 143 -834 170 -957
6 -26 16 -54 23 -62 14 -16 249 -173 467 -310 101 -64 153 -91 175 -91 17 0
165 38 330 85 165 47 362 101 439 121 76 19 145 41 153 49 8 8 28 15 44 15 34
0 70 33 90 83 7 17 14 34 15 36 2 2 18 -11 36 -29 18 -17 42 -35 53 -39 12 -5
74 1 155 15 195 35 452 71 625 88 201 21 495 39 502 33 3 -4 -15 -30 -41 -59
-53 -61 -58 -91 -22 -145 14 -19 22 -41 19 -48 -2 -8 -26 -19 -53 -25 -66 -16
-80 -34 -87 -118 l-6 -70 -81 -6 c-271 -22 -439 -41 -660 -72 -226 -33 -250
-35 -258 -20 -10 18 -35 21 -40 5 -6 -18 -46 -1 -89 38 -37 34 -79 120 -79
163 0 11 -6 20 -14 20 -28 0 -404 -82 -651 -141 -244 -59 -359 -80 -460 -84
-27 -1 -63 -3 -78 -3 -17 -1 -41 -14 -58 -31 -24 -25 -49 -34 -146 -55 -64
-14 -129 -26 -145 -26 -44 0 -90 23 -126 65 l-33 37 20 22 c12 12 21 32 21 45
0 43 -23 112 -40 121 -12 6 -16 17 -13 35 9 42 -7 96 -34 121 -32 30 -76 31
-193 4 -114 -26 -125 -25 -164 13 l-34 32 -97 465 c-129 619 -175 850 -175
872 0 14 8 17 38 17 20 -1 49 2 63 6 22 6 28 3 39 -25 21 -52 83 -90 144 -90
l52 0 13 -62 c8 -35 18 -70 22 -78 12 -21 11 64 -1 115 -8 37 -7 42 21 67 39
36 62 92 55 132 -21 109 -151 171 -237 113 -41 -27 -79 -82 -79 -112 0 -27
-22 -32 -95 -25 l-50 5 2 38 c6 89 85 207 169 250 114 59 974 317 1467 440
284 71 289 71 303 52 14 -19 15 -19 20 2 4 15 18 24 47 32 46 11 55 8 38 -13
-40 -48 -31 -130 19 -166 73 -52 190 4 190 90 0 30 -25 75 -56 99 -15 12 -25
23 -23 25 5 4 181 37 354 66 386 64 743 104 1145 130 222 14 1116 4 1330 -14z
m-60 -262 c135 -9 249 -20 254 -24 4 -5 3 -67 -3 -142 -6 -73 -12 -155 -13
-181 -1 -26 -7 -51 -12 -56 -6 -4 -92 -2 -191 5 -332 23 -450 30 -472 26 -22
-4 -23 -8 -23 -126 0 -67 -4 -136 -10 -155 -12 -43 -6 -53 26 -40 24 9 433 -6
443 -17 4 -4 -16 -355 -21 -360 -2 -1 -103 2 -225 9 -123 6 -225 9 -228 6 -2
-3 -7 -66 -10 -140 -3 -74 -8 -149 -11 -166 -5 -31 -3 -32 18 -24 32 11 632
-19 646 -34 2 -2 -2 -88 -9 -190 -9 -131 -17 -189 -26 -192 -6 -3 -121 3 -255
12 -134 9 -367 20 -518 24 l-275 6 3 285 c5 511 26 1056 42 1075 13 16 15 15
32 -5 15 -18 18 -41 18 -123 l0 -101 29 34 29 35 -19 33 c-14 24 -19 52 -19
104 0 52 -4 76 -17 90 -22 24 -36 23 -21 -2 18 -29 2 -36 -39 -16 l-36 17 7
67 c3 37 6 118 6 181 l0 114 328 -6 c180 -3 437 -13 572 -23z m-2800 0 c16
-18 0 -37 -38 -49 -30 -9 -40 19 -17 45 22 24 38 25 55 4z m1435 -90 c50 -42
106 -91 126 -109 l36 -33 6 -334 5 -333 -106 -106 -107 -106 68 -142 c56 -115
66 -145 57 -156 -7 -8 -16 -15 -20 -15 -5 0 -45 73 -89 162 -63 125 -78 164
-69 175 14 17 6 25 -16 17 -9 -3 -16 -14 -16 -24 0 -9 38 -96 84 -192 92 -191
77 -173 184 -215 24 -10 12 14 -14 25 -33 16 -22 32 21 32 64 0 65 -2 65 -114
0 -92 2 -105 26 -139 47 -70 46 -70 -201 -89 -215 -16 -245 -14 -245 14 0 5
-21 52 -47 105 -25 52 -46 105 -47 117 -1 11 -41 108 -91 213 -67 144 -93 192
-105 189 -8 -3 -41 -8 -72 -11 -56 -7 -56 -7 -52 -39 2 -17 11 -157 19 -311 9
-154 17 -293 18 -309 2 -27 -2 -31 -33 -37 -85 -18 -371 -61 -376 -56 -3 3
-11 74 -18 158 -11 133 -11 156 2 171 19 22 45 12 36 -14 -6 -20 -6 -20 20 -2
25 18 26 22 20 79 -3 33 -10 78 -15 100 -6 32 -8 23 -6 -44 2 -80 1 -84 -20
-87 -17 -3 -24 2 -28 19 -3 12 -14 154 -25 316 -18 274 -19 296 -3 313 22 25
49 23 57 -4 l6 -23 13 24 c6 13 30 30 52 38 58 21 175 53 199 54 16 0 13 3 -9
10 -40 12 -98 2 -161 -27 -73 -34 -80 -33 -68 14 7 26 67 55 95 47 27 -9 37
39 14 65 -23 25 -38 26 -30 1 7 -22 -36 -61 -66 -61 -11 0 -30 -17 -45 -39
-26 -41 -52 -58 -65 -44 -4 4 -12 64 -17 133 -8 100 -8 131 3 157 15 35 14 37
-27 47 l-26 6 -8 162 c-5 90 -9 170 -9 178 0 16 31 22 355 70 249 37 580 78
635 79 36 0 50 -8 130 -75z m2075 16 c314 -45 896 -151 910 -167 8 -8 -44
-360 -54 -370 -3 -3 -101 13 -218 35 -117 23 -260 50 -318 60 -58 11 -111 21
-119 23 -12 3 -18 -26 -32 -141 -10 -80 -23 -153 -29 -163 -15 -24 -4 -34 19
-20 14 9 64 4 227 -24 115 -19 213 -38 217 -42 4 -5 -1 -73 -13 -152 -28 -197
-28 -199 -50 -199 -10 0 -107 16 -216 35 -108 19 -200 35 -205 35 -4 0 -10
-30 -14 -67 -4 -38 -13 -112 -21 -165 -8 -54 -14 -100 -14 -102 0 -2 8 -2 18
1 39 10 612 -95 619 -114 9 -23 -49 -365 -63 -370 -7 -2 -99 11 -206 31 -230
42 -472 79 -658 102 -74 9 -138 20 -143 23 -11 11 22 304 36 313 7 4 17 8 23
8 15 0 30 19 38 48 5 13 3 22 -3 22 -6 0 -11 -7 -11 -15 0 -15 -38 -40 -47
-31 -7 7 13 209 63 651 28 238 41 319 56 350 l20 39 -21 17 c-22 18 -22 13 13
324 3 22 5 43 5 48 1 4 11 5 24 2 12 -3 87 -14 167 -25z m-3624 -323 l120 -79
10 -131 c6 -73 7 -135 2 -138 -5 -3 -38 -11 -73 -18 -74 -15 -92 -8 -97 37 -2
16 -9 27 -18 27 -11 0 -15 -12 -15 -49 l0 -50 -90 -22 c-100 -25 -105 -24
-105 38 0 33 -4 39 -47 63 l-48 26 -60 -16 c-33 -9 -115 -32 -182 -52 l-122
-35 -56 -83 -57 -82 56 -347 c31 -191 56 -357 56 -370 0 -19 18 -34 93 -79
l92 -55 168 47 c165 46 167 47 197 88 l31 42 -12 101 c-10 84 -15 100 -28 95
-55 -17 -286 -74 -289 -71 -7 8 -53 340 -48 353 3 7 16 13 30 13 13 0 170 36
347 80 178 44 327 76 330 72 4 -4 13 -62 19 -128 10 -108 10 -125 -5 -154 -9
-17 -19 -30 -22 -27 -2 3 -11 29 -18 59 l-13 53 -1 -70 c0 -38 10 -153 24
-255 40 -290 39 -271 9 -305 -19 -22 -27 -26 -31 -16 -10 26 -43 51 -67 51
-26 0 -76 -50 -76 -76 0 -22 49 -67 65 -60 18 7 19 -5 3 -27 -13 -17 -519
-167 -564 -167 -11 0 -48 -9 -82 -21 l-62 -21 -67 38 c-38 21 -92 53 -120 71
-52 33 -53 35 -53 81 l-1 47 -19 -24 c-11 -12 -17 -27 -14 -32 12 -19 -16 -7
-97 45 l-84 53 -32 184 c-33 184 -40 221 -93 508 l-29 153 36 57 37 56 9 -37
c8 -35 10 -36 45 -31 45 7 72 29 72 58 0 30 -17 43 -62 47 l-38 3 110 167
c107 162 111 167 157 182 160 51 602 166 639 166 13 0 39 -8 58 -18 l34 -18
-25 -22 c-32 -29 -28 -71 10 -92 24 -13 30 -13 55 0 15 9 28 26 30 38 7 47 46
8 58 -58 l8 -45 6 43 5 44 27 -21 c18 -14 29 -35 33 -64 4 -23 12 -49 17 -57
6 -10 8 -5 4 19 -3 18 -6 51 -6 72 0 38 -3 41 -82 92 -46 29 -111 70 -145 91
l-62 38 -143 -36 c-79 -20 -244 -64 -368 -97 l-226 -61 -131 -196 c-72 -109
-147 -222 -167 -253 l-37 -56 41 -222 c22 -122 38 -226 34 -232 -3 -5 -1 -16
5 -23 10 -11 29 -105 76 -371 5 -27 31 -46 242 -176 220 -137 238 -146 267
-137 151 45 494 141 590 164 l119 29 69 103 69 103 -10 72 c-23 154 -40 333
-35 355 7 26 29 29 40 5 4 -10 19 -115 34 -233 l27 -215 -77 -116 -78 -115
-193 -52 c-107 -29 -286 -79 -398 -112 l-204 -60 -86 55 c-47 30 -162 103
-256 162 l-169 108 -32 175 c-18 96 -55 302 -84 458 l-51 283 178 267 c98 147
178 268 179 270 1 3 506 140 664 180 l115 29 45 -25 c25 -14 99 -61 166 -105z
m5038 33 c116 -32 292 -83 391 -113 l180 -53 108 -180 c59 -98 118 -199 131
-224 l23 -45 -98 -470 c-54 -258 -99 -473 -99 -478 0 -9 -406 -277 -440 -290
-21 -8 -53 -2 -155 28 -72 21 -233 64 -358 95 -126 32 -233 62 -238 67 -5 5
-5 23 0 43 5 19 19 95 32 167 18 109 25 134 40 138 20 7 26 30 10 39 -4 3 -2
45 6 93 10 67 120 692 148 843 3 14 7 43 11 65 9 68 54 319 59 334 3 7 12 10
22 7 9 -4 111 -33 227 -66z m-5146 -84 c5 -23 -23 -47 -44 -39 -17 6 -19 49
-1 56 22 10 42 2 45 -17z m-1619 -236 c28 0 71 -46 71 -75 0 -36 -42 -75 -80
-75 -62 0 -89 63 -49 114 16 20 17 24 4 20 -8 -4 -22 -18 -30 -33 -11 -20 -14
-22 -15 -8 0 25 47 70 66 63 9 -3 24 -6 33 -6z m85 -12 c9 -12 16 -32 15 -43
0 -17 -2 -17 -10 5 -6 13 -17 33 -26 42 -9 10 -11 18 -5 18 6 0 18 -10 26 -22z
m-174 -108 c0 -6 12 -22 27 -36 14 -13 24 -27 21 -29 -11 -11 -39 8 -53 36
-18 33 -18 39 -5 39 6 0 10 -5 10 -10z m728 -126 c-4 -25 -36 -30 -45 -8 -4
11 1 22 12 30 22 16 39 5 33 -22z m1187 -913 c0 -33 -30 -51 -51 -29 -13 13
-14 20 -4 37 16 31 55 25 55 -8z m2205 -97 c6 -14 10 -38 10 -53 0 -33 8 -41
76 -68 l51 -21 47 31 47 30 50 -49 c27 -26 49 -53 49 -59 0 -5 -14 -27 -29
-48 l-29 -38 28 -62 c28 -61 28 -62 79 -71 l51 -9 0 -73 0 -73 -43 -6 c-57 -9
-58 -10 -86 -79 -21 -51 -22 -62 -11 -80 50 -78 50 -70 -6 -127 l-52 -52 -45
32 c-25 17 -49 31 -54 31 -14 0 -118 -45 -124 -54 -4 -5 -10 -30 -13 -57 l-7
-49 -74 0 -74 0 -6 48 c-4 26 -7 51 -9 55 -1 5 -30 20 -64 33 l-62 26 -49 -31
-49 -30 -46 49 c-25 27 -46 54 -46 61 0 6 13 28 30 49 l30 38 -19 48 c-11 27
-22 56 -24 65 -4 11 -22 18 -56 23 -27 4 -53 11 -57 17 -3 6 -3 39 1 74 l6 64
51 8 c50 8 50 9 78 69 l28 62 -29 43 c-16 24 -29 47 -29 50 0 12 82 99 93 99
7 0 31 -13 54 -29 l43 -29 57 24 c56 22 58 24 68 71 15 70 18 73 91 73 60 0
65 -2 74 -26z m-3780 -394 c0 -5 -5 -10 -11 -10 -6 0 -8 -8 -5 -18 5 -16 -3
-21 -51 -33 -75 -17 -79 -17 -75 4 4 23 -7 22 -35 -5 -13 -12 -23 -17 -23 -11
0 19 39 45 97 63 65 21 103 25 103 10z m7376 -20 c39 -17 74 -47 40 -34 -11 4
-16 0 -16 -10 0 -20 -9 -20 -70 0 -34 11 -47 20 -43 30 4 10 -3 14 -21 14 -17
0 -26 5 -26 16 0 14 8 15 48 9 26 -4 66 -15 88 -25z m-7284 -62 c9 -7 18 -25
22 -40 6 -27 5 -27 -19 -16 -19 9 -41 8 -92 -1 -77 -14 -135 -41 -180 -84
l-33 -31 0 27 c0 15 5 27 11 27 7 0 9 10 5 25 -5 21 0 28 39 51 85 50 210 71
247 42z m7265 -20 c62 -23 126 -78 118 -102 -17 -53 -15 -51 -30 -30 -32 46
-236 115 -289 98 -16 -5 -18 -3 -13 17 4 13 7 27 7 31 0 23 131 15 207 -14z
m-7327 -130 c13 -50 56 -128 70 -128 14 0 13 4 -10 42 -25 44 -51 118 -41 118
5 0 16 -21 26 -46 10 -25 31 -62 48 -81 25 -29 28 -36 16 -45 -11 -8 -11 -9 4
-4 9 3 17 2 17 -2 0 -7 101 -38 144 -44 28 -4 31 -26 4 -30 -22 -4 -22 -5 -3
-13 11 -5 23 -13 27 -19 4 -6 12 -5 22 3 9 8 16 10 16 6 0 -5 9 0 19 9 19 17
146 45 207 46 30 0 32 -2 38 -47 4 -27 9 -64 12 -84 l5 -35 -64 -12 c-36 -7
-92 -15 -126 -18 l-61 -7 0 30 c0 27 -4 31 -31 35 -30 5 -30 5 -24 -34 7 -37
6 -38 -22 -38 -52 0 -160 28 -213 55 -64 32 -143 105 -176 160 -39 68 -66 155
-52 172 18 23 80 52 110 53 24 0 29 -6 38 -42z m7313 9 c34 -19 37 -24 32 -52
-13 -63 -69 -160 -126 -218 -70 -69 -155 -112 -257 -127 -94 -15 -103 -11 -95
37 3 21 2 35 -2 31 -5 -4 -14 -3 -21 3 -10 8 -15 8 -19 -2 -20 -58 -26 -69
-40 -69 -24 0 -219 30 -223 35 -2 2 1 27 7 55 6 28 11 64 11 80 0 17 3 30 8
30 9 0 190 -28 215 -33 10 -2 22 -8 25 -13 4 -5 17 -15 29 -21 20 -12 23 -10
28 10 4 13 5 30 3 37 -2 10 10 16 39 20 22 3 60 15 84 25 31 15 44 16 47 7 7
-22 20 -13 14 11 -5 20 -4 21 12 8 20 -17 33 -7 16 13 -10 13 -8 20 7 40 11
13 28 45 37 70 25 66 39 57 15 -11 -10 -31 -17 -58 -15 -61 6 -6 42 66 50 102
6 26 9 28 44 21 20 -4 54 -16 75 -28z m-6416 -162 c7 -50 18 -123 26 -163 16
-83 1 -96 -21 -19 -8 28 -19 47 -28 47 -8 0 -14 6 -14 14 0 8 -5 27 -11 43
l-11 28 -9 -24 c-6 -16 -6 -35 1 -54 9 -28 9 -29 -7 -15 -10 9 -23 14 -29 11
-16 -5 -44 69 -44 116 0 33 3 39 25 44 22 4 28 -1 42 -32 l16 -36 10 68 c8 54
13 67 26 65 12 -3 19 -24 28 -93z m363 12 c-37 -99 -148 -177 -252 -177 -45 0
-24 17 29 24 97 13 199 99 220 186 8 34 16 47 20 33 2 -5 -6 -35 -17 -66z
m4655 44 c3 -16 24 -54 45 -83 44 -62 113 -105 184 -114 25 -4 46 -11 46 -17
0 -13 -96 0 -135 19 -55 26 -103 73 -129 127 -31 66 -40 97 -27 97 5 0 12 -13
16 -29z m415 -14 c0 -52 8 -64 27 -37 8 11 25 20 39 20 22 0 24 -4 24 -44 0
-76 -10 -104 -43 -121 -39 -19 -37 -20 -37 15 0 17 -4 30 -10 30 -5 0 -10 -7
-10 -15 0 -8 -4 -15 -8 -15 -5 0 -14 -25 -21 -55 -9 -42 -17 -55 -30 -55 -17
0 -17 3 0 78 11 42 22 114 25 160 6 71 9 82 25 82 16 0 19 -8 19 -43z m198
-48 c2 -80 -33 -239 -55 -246 -8 -3 -7 9 3 43 18 61 2 83 -20 29 -9 -21 -16
-46 -16 -56 0 -11 -4 -19 -10 -19 -13 0 -12 15 5 80 8 30 17 96 21 145 7 116
7 115 41 106 27 -7 28 -10 31 -82z m-5805 4 c5 -67 25 -174 43 -235 3 -10 1
-18 -3 -18 -5 0 -17 25 -27 55 -16 52 -25 63 -38 49 -3 -3 0 -28 8 -57 12 -46
12 -68 0 -56 -3 2 -14 40 -26 84 -21 75 -36 228 -24 247 3 4 18 8 33 8 28 0
28 -1 34 -77z m504 63 c10 -9 -38 -84 -75 -118 -39 -36 -75 -51 -144 -63 -33
-5 -38 -3 -38 13 0 10 -4 22 -9 28 -14 15 -22 64 -11 64 7 0 9 8 5 19 -5 16 2
20 42 27 26 4 58 7 71 6 12 -2 22 2 22 7 0 22 117 37 137 17z m4869 -3 c7 -3
11 -10 7 -17 -4 -8 -3 -8 6 0 9 8 22 8 49 -2 20 -7 44 -13 53 -14 23 0 31 -51
15 -97 -10 -30 -19 -39 -41 -41 -75 -9 -180 49 -215 119 -32 61 -22 73 51 65
33 -4 67 -10 75 -13z m729 -103 c3 -5 1 -10 -4 -10 -6 0 -11 5 -11 10 0 6 2
10 4 10 3 0 8 -4 11 -10z"/>
<path d="M5358 10050 c-54 -9 -139 -47 -184 -81 -46 -36 -127 -131 -216 -256
-139 -194 -234 -273 -311 -259 -46 9 -65 32 -69 86 l-4 45 -13 -30 c-18 -42
-10 -125 17 -162 11 -16 40 -40 64 -53 l43 -22 90 52 c50 29 119 68 155 88 36
20 97 64 135 99 65 60 170 122 254 151 19 7 32 14 29 17 -5 6 -143 -31 -169
-46 -39 -20 -16 11 60 84 102 97 165 130 246 130 73 0 136 -26 196 -80 l42
-38 -7 30 c-40 162 -201 272 -358 245z"/>
<path d="M8976 10002 c-22 -36 -108 -275 -96 -267 9 5 140 239 140 249 0 10
-39 26 -44 18z"/>
<path d="M7980 9573 c0 -48 28 -124 49 -137 15 -10 14 -6 -11 96 -11 48 -25
88 -30 88 -4 0 -8 -21 -8 -47z"/>
<path d="M6729 9416 c-113 -40 -208 -186 -234 -358 -7 -46 -7 -47 35 -74 81
-54 88 -116 19 -178 -21 -20 -39 -40 -39 -45 0 -19 45 -41 80 -40 32 0 33 1
13 11 l-22 10 28 24 c57 48 77 137 45 199 -15 29 -14 31 11 52 33 29 76 29
101 2 15 -17 19 -36 19 -94 0 -40 3 -71 6 -69 15 9 31 107 25 149 -13 81 -85
155 -152 155 -42 0 -42 10 -2 56 29 33 35 36 75 31 48 -5 53 4 23 43 -27 34
-25 46 9 60 67 27 133 -32 167 -150 l14 -45 -3 66 c-4 92 -37 156 -97 187 -50
25 -70 26 -121 8z"/>
<path d="M9372 8108 c-24 -5 -46 -16 -48 -23 -3 -8 8 -68 25 -133 17 -65 31
-122 31 -125 0 -5 -65 -27 -81 -27 -3 0 -21 56 -39 124 -18 68 -35 128 -39
135 -5 7 -26 5 -71 -7 -78 -21 -77 -14 -29 -196 26 -97 31 -130 21 -133 -30
-11 -124 -97 -167 -155 -94 -123 -138 -256 -138 -413 -1 -189 62 -335 202
-475 101 -101 188 -149 326 -182 50 -12 91 -22 92 -23 1 -1 16 -61 33 -135 16
-74 33 -137 37 -141 7 -7 129 13 138 23 3 2 -7 60 -21 128 -26 129 -25 139 18
140 9 0 23 2 31 5 11 5 19 -20 38 -110 13 -64 28 -123 34 -131 8 -12 19 -12
68 0 33 8 63 18 67 22 5 5 -4 68 -20 141 l-28 132 49 31 c64 41 173 158 202
218 46 91 61 152 61 252 1 118 -27 250 -52 250 -17 0 -512 -103 -567 -118 -34
-10 -34 -14 -9 -117 34 -136 34 -136 52 -131 9 3 33 8 52 11 l35 6 14 -68 c22
-109 23 -105 -39 -124 -81 -26 -104 -24 -118 9 -11 26 -11 26 -9 2 3 -41 -26
-35 -72 15 -23 25 -43 45 -46 45 -2 0 -1 -16 2 -36 6 -35 5 -36 -18 -29 -96
30 -186 110 -236 213 -37 73 -38 80 -38 181 0 94 3 112 27 163 31 66 85 138
105 138 7 0 13 -4 13 -10 0 -5 5 -10 10 -10 6 0 10 11 10 23 0 40 55 75 154
97 38 8 51 7 71 -6 15 -10 25 -12 25 -5 0 19 23 12 52 -16 l29 -27 -3 24 c-3
21 1 24 22 21 31 -4 94 -35 137 -67 17 -13 34 -24 37 -24 9 0 146 186 146 198
0 16 -71 67 -144 104 -61 31 -190 68 -237 68 -31 0 -28 -7 -81 195 -27 101
-30 103 -116 83z m513 -1135 c-16 -66 -99 -164 -109 -131 -13 41 -27 120 -23
124 6 6 102 31 126 33 9 1 11 -6 6 -26z"/>
<path d="M10410 6184 c-40 -52 -138 -141 -226 -206 -82 -59 -202 -121 -329
-168 -58 -21 -113 -43 -122 -49 -34 -18 12 -24 85 -11 275 52 539 211 607 364
25 55 39 116 27 116 -4 -1 -23 -21 -42 -46z"/>
<path d="M9070 5800 c0 -5 9 -10 21 -10 11 0 17 5 14 10 -3 6 -13 10 -21 10
-8 0 -14 -4 -14 -10z"/>
<path d="M9580 5753 c-72 -9 -54 -23 28 -23 66 0 82 3 82 15 0 15 -28 17 -110
8z"/>
<path d="M5681 8314 c-30 -8 -57 -16 -59 -19 -2 -2 8 -58 22 -124 14 -67 26
-132 26 -145 0 -14 4 -27 8 -30 15 -9 126 43 156 73 25 25 30 40 34 89 9 131
-62 191 -187 156z m95 -62 c19 -13 34 -50 34 -86 0 -39 -32 -83 -64 -88 -17
-3 -21 9 -36 85 -9 48 -14 89 -12 92 8 8 66 6 78 -3z"/>
<path d="M5080 8265 c-7 -9 -10 -18 -7 -21 3 -3 10 4 17 15 13 25 8 27 -10 6z"/>
<path d="M5243 8208 c-97 -23 -92 -10 -63 -172 30 -162 28 -155 47 -151 170
35 174 36 171 58 -3 24 -30 28 -99 14 -36 -7 -37 -7 -42 25 -5 38 2 44 56 53
34 6 38 10 35 33 -2 15 -8 26 -15 25 -86 -17 -90 -16 -96 13 -3 16 -3 32 -1
35 2 3 31 12 64 19 56 12 60 14 60 41 0 35 -4 35 -117 7z"/>
<path d="M5493 7675 c-3 -9 -3 -18 -1 -21 3 -3 8 4 11 16 6 23 -1 27 -10 5z"/>
<path d="M4926 8221 c21 -21 29 -19 21 4 -4 8 -14 15 -23 15 -16 0 -16 -2 2
-19z"/>
<path d="M4748 8126 c-37 -6 -70 -14 -73 -18 -6 -6 31 -288 40 -296 6 -7 179
18 188 28 5 4 6 17 2 29 -5 18 -11 20 -53 14 -85 -12 -87 -12 -90 28 l-3 36
51 7 c41 5 51 10 46 22 -3 9 -6 20 -6 26 0 6 -18 7 -49 3 -45 -6 -49 -5 -55
17 -11 41 -7 46 42 52 73 11 82 15 82 42 0 28 -12 29 -122 10z"/>
<path d="M4838 7717 c-79 -10 -106 -27 -43 -27 45 0 133 19 141 31 3 5 -1 8
-8 7 -7 0 -48 -6 -90 -11z"/>
<path d="M4430 8163 c0 -5 9 -14 20 -21 11 -7 20 -8 20 -2 0 5 -9 14 -20 20
-11 6 -20 7 -20 3z"/>
<path d="M4165 8149 c-11 -17 1 -21 15 -4 8 9 8 15 2 15 -6 0 -14 -5 -17 -11z"/>
<path d="M4245 8081 c-34 -7 -34 -5 -14 -181 5 -47 9 -93 9 -102 0 -13 8 -18
31 -18 l30 0 -3 56 c-2 37 1 58 9 61 6 2 30 -24 53 -57 35 -51 46 -61 63 -56
12 3 26 6 30 6 4 0 -11 27 -33 60 l-41 60 20 27 c51 64 3 154 -81 152 -24 -1
-56 -4 -73 -8z m113 -79 c5 -32 -15 -52 -49 -52 -27 0 -29 3 -29 41 l0 40 38
-3 c30 -2 38 -7 40 -26z"/>
<path d="M4020 8142 c0 -5 9 -17 20 -27 16 -14 20 -15 20 -4 0 16 -19 39 -32
39 -4 0 -8 -4 -8 -8z"/>
<path d="M3882 8064 c-33 -23 -52 -67 -52 -119 0 -59 19 -104 59 -138 37 -31
77 -35 122 -12 29 16 30 17 27 83 l-3 67 -47 3 c-47 3 -48 3 -48 -27 0 -26 4
-31 25 -31 36 0 35 -37 -2 -46 -36 -9 -56 6 -72 55 -11 34 -11 51 -2 81 14 48
35 56 77 31 33 -20 34 -20 44 -1 8 15 4 23 -21 44 -35 29 -74 33 -107 10z"/>
<path d="M7282 7143 c13 -64 25 -74 34 -28 7 41 -3 68 -28 73 -14 3 -14 -4 -6
-45z"/>
<path d="M7122 6570 c-27 -22 -23 -34 20 -56 25 -13 32 -14 39 -2 12 18 11 19
-14 50 -22 26 -22 26 -45 8z"/>
<path d="M7050 6503 c-60 -22 -77 -86 -35 -128 61 -62 170 9 139 90 -12 30
-68 51 -104 38z m56 -58 c8 -20 -13 -45 -38 -45 -21 0 -33 22 -24 45 7 20 55
19 62 0z"/>
<path d="M2590 6423 c-6 -21 -13 -65 -17 -98 -3 -33 -12 -69 -19 -80 -8 -11
-14 -29 -14 -40 1 -20 1 -20 15 -1 14 19 15 19 20 0 15 -46 36 -85 44 -80 4 3
2 38 -6 78 -9 45 -13 108 -10 166 2 50 3 92 1 92 -2 0 -8 -17 -14 -37z"/>
<path d="M2700 5972 c-64 -32 -63 -124 1 -157 40 -21 63 -19 98 11 25 20 31
34 31 64 0 31 -7 44 -35 69 -41 36 -48 37 -95 13z m60 -48 c11 -13 10 -19 -7
-36 -24 -24 -53 -18 -53 10 0 38 37 54 60 26z"/>
<path d="M5036 6499 c-52 -41 -23 -129 43 -129 33 0 71 39 71 72 0 23 -52 78
-73 78 -8 0 -26 -9 -41 -21z m48 -25 c20 -8 21 -38 1 -54 -29 -24 -60 21 -33
48 14 14 12 14 32 6z"/>
<path d="M5103 6213 c-18 -7 -16 -30 3 -37 21 -8 34 1 34 25 0 18 -12 23 -37
12z"/>
<path d="M6026 6468 c-56 -12 -91 -41 -115 -99 -27 -62 -22 -115 16 -160 74
-87 209 -81 270 13 80 120 -29 276 -171 246z"/>
<path d="M5618 5955 c2 -14 9 -28 15 -32 7 -4 8 0 4 11 -4 10 -7 24 -7 32 0 8
-4 14 -9 14 -4 0 -6 -11 -3 -25z"/>
<path d="M5236 5949 c-20 -16 -26 -29 -26 -60 0 -98 126 -121 156 -29 27 82
-62 143 -130 89z m72 -31 c26 -26 2 -75 -31 -62 -22 8 -31 42 -17 59 15 18 32
19 48 3z"/>
<path d="M5666 5830 c3 -14 10 -29 15 -34 14 -16 10 6 -7 34 l-15 25 7 -25z"/>
<path d="M5330 5670 c-25 -25 -26 -80 -2 -109 45 -56 142 -25 142 45 0 71 -91
113 -140 64z m80 -35 c26 -31 -18 -71 -47 -42 -19 19 -8 57 16 57 10 0 24 -7
31 -15z"/>
<path d="M5488 5623 c7 -3 16 -2 19 1 4 3 -2 6 -13 5 -11 0 -14 -3 -6 -6z"/>
<path d="M4946 5918 c-22 -31 -20 -66 6 -134 22 -57 23 -58 32 -31 6 15 16 27
23 27 25 0 63 48 63 78 0 70 -88 112 -124 60z m66 -25 c23 -21 23 -36 -3 -59
-20 -18 -21 -18 -35 1 -17 23 -18 47 -2 63 15 15 18 15 40 -5z"/>
<path d="M6280 5780 c0 -5 5 -10 10 -10 6 0 10 5 10 10 0 6 -4 10 -10 10 -5 0
-10 -4 -10 -10z"/>
<path d="M7154 5446 c-46 -20 -74 -62 -74 -108 0 -32 7 -47 34 -74 29 -29 41
-34 81 -34 40 0 52 5 81 34 47 47 48 101 2 151 -38 41 -80 51 -124 31z"/>
<path d="M4319 4770 l-24 -19 33 -1 c33 0 67 21 55 34 -12 12 -41 6 -64 -14z"/>
<path d="M2220 3204 c-25 -57 -25 -56 3 -52 15 2 23 11 25 28 2 14 8 30 14 37
11 13 3 33 -13 33 -5 0 -19 -21 -29 -46z"/>
<path d="M10377 3149 c-3 -13 0 -22 9 -26 20 -7 38 11 31 31 -9 23 -34 20 -40
-5z"/>
<path d="M10213 3139 c-62 -18 -99 -100 -70 -155 35 -67 94 -94 151 -70 132
55 57 264 -81 225z m68 -59 c24 -14 24 -41 0 -71 -16 -20 -23 -22 -38 -13 -10
6 -23 22 -30 35 -10 19 -9 27 4 41 18 20 36 23 64 8z"/>
<path d="M2503 1945 c-37 -16 -73 -68 -73 -105 0 -36 34 -86 71 -105 60 -32
145 9 169 79 15 46 -7 98 -52 126 -38 23 -70 25 -115 5z m71 -51 c23 -23 19
-50 -10 -73 -33 -26 -50 -26 -64 -2 -15 29 -13 39 15 66 28 29 38 31 59 9z"/>
<path d="M10028 1869 c-45 -36 -51 -80 -17 -123 27 -35 63 -34 100 3 36 36 39
86 8 125 -26 33 -45 32 -91 -5z m60 -15 c23 -16 30 -58 12 -69 -16 -10 -71 5
-77 22 -7 19 13 63 30 63 7 0 23 -7 35 -16z"/>
<path d="M2387 1834 c-11 -11 -8 -44 3 -44 15 0 24 30 13 41 -5 5 -12 6 -16 3z"/>
<path d="M7660 1617 c-39 -13 -80 -67 -80 -104 0 -41 27 -91 59 -107 103 -54
207 31 170 138 -21 61 -88 94 -149 73z m71 -57 c26 -14 24 -36 -5 -56 -35 -22
-70 -15 -74 15 -6 41 37 63 79 41z"/>
<path d="M4805 1590 c-38 -15 -67 -57 -72 -103 -5 -38 -1 -48 26 -79 56 -64
148 -56 192 16 23 38 24 68 3 112 -26 54 -92 78 -149 54z m73 -65 c4 -29 -62
-73 -83 -55 -21 17 -19 36 6 61 26 26 73 23 77 -6z"/>
<path d="M5570 1553 c0 -10 5 -25 10 -33 7 -11 10 -7 10 18 0 17 -4 32 -10 32
-5 0 -10 -8 -10 -17z"/>
<path d="M6197 3734 c-3 -5 -3 -22 0 -37 l6 -28 11 23 c11 22 17 23 135 26
104 2 127 0 142 -14 16 -14 21 -15 35 -3 12 10 45 13 122 11 71 -2 103 1 96 8
-12 12 -539 26 -547 14z"/>
<path d="M6285 3665 c-14 -13 -25 -35 -25 -47 0 -56 61 -93 106 -63 37 24 48
52 33 86 -22 54 -74 65 -114 24z m74 -24 c13 -24 -8 -55 -34 -50 -28 6 -42 34
-26 53 18 22 48 20 60 -3z"/>
<path d="M6301 3226 c-14 -16 -4 -46 14 -46 19 0 27 17 20 40 -7 23 -18 25
-34 6z"/>
<path d="M6221 3104 c0 -11 3 -14 6 -6 3 7 2 16 -1 19 -3 4 -6 -2 -5 -13z"/>
<path d="M6365 2740 c-4 -6 6 -10 24 -10 38 0 65 -34 50 -62 -16 -30 -2 -34
20 -7 26 31 26 35 -4 64 -25 26 -78 34 -90 15z"/>
<path d="M6178 2360 c-3 -19 -1 -29 6 -27 14 4 21 57 8 57 -5 0 -12 -14 -14
-30z"/>
<path d="M6177 2303 c-10 -9 -9 -23 2 -23 5 0 11 7 15 15 5 15 -5 20 -17 8z"/>
<path d="M6255 2215 c-39 -38 -32 -86 17 -111 16 -8 38 -12 48 -9 25 8 60 53
60 77 0 27 -45 68 -75 68 -14 0 -37 -11 -50 -25z m74 -19 c9 -11 10 -20 1 -35
-13 -25 -45 -27 -59 -4 -21 38 31 72 58 39z"/>
<path d="M7126 2161 c-4 -6 -8 -31 -10 -57 -1 -31 -8 -49 -19 -56 -21 -11 -13
-28 12 -28 15 0 19 12 25 71 6 71 4 90 -8 70z"/>
<path d="M6170 2060 c0 -5 5 -10 11 -10 5 0 7 5 4 10 -3 6 -8 10 -11 10 -2 0
-4 -4 -4 -10z"/>
<path d="M6985 2041 l-40 -7 54 -7 c56 -8 68 -6 56 12 -7 12 -8 12 -70 2z"/>
<path d="M5345 3674 c-110 -13 -225 -26 -255 -28 -83 -8 -469 -71 -476 -79 -3
-3 -2 -23 4 -44 8 -32 10 -34 11 -12 1 15 7 32 15 38 14 12 114 30 281 52 119
15 125 16 230 33 50 8 158 22 240 30 l150 15 44 -27 c55 -34 60 -48 22 -55
-58 -12 -45 -107 14 -107 28 0 65 32 65 55 0 43 58 -18 67 -69 8 -53 23 -55
23 -2 0 44 0 44 -109 135 -60 50 -113 91 -117 90 -5 0 -99 -12 -209 -25z m305
-109 c10 -12 10 -18 0 -30 -25 -30 -61 -7 -46 30 3 8 12 15 19 15 8 0 20 -7
27 -15z"/>
<path d="M4716 3529 c-32 -25 -36 -77 -8 -102 25 -22 85 -22 105 1 28 30 30
65 7 95 -26 33 -66 36 -104 6z m72 -36 c4 -28 -32 -50 -54 -32 -17 14 -18 31
-2 47 19 19 53 10 56 -15z"/>
<path d="M5315 3345 c-5 -2 -75 -11 -154 -21 l-143 -18 6 -96 c15 -208 16
-274 3 -282 -28 -17 10 -16 173 8 l173 25 38 42 39 42 -6 120 -6 120 -36 32
c-33 30 -59 38 -87 28z"/>
<path d="M5690 3175 c0 -35 13 -47 23 -21 7 18 -3 56 -14 56 -5 0 -9 -16 -9
-35z"/>
<path d="M4744 3085 c-11 -29 2 -37 19 -11 15 23 16 26 2 26 -9 0 -18 -7 -21
-15z"/>
<path d="M5460 2942 c-36 -19 -90 -41 -120 -48 l-55 -12 55 -1 c30 -1 71 3 89
9 24 7 39 6 48 -1 10 -9 13 -8 13 4 0 9 11 29 25 45 14 17 22 33 18 35 -5 3
-37 -11 -73 -31z"/>
<path d="M5423 2223 c-18 -6 -16 -23 1 -23 17 0 30 16 19 23 -5 2 -14 2 -20 0z"/>
<path d="M5676 2189 c-22 -17 -26 -28 -24 -57 6 -69 91 -84 123 -22 20 39 19
47 -10 75 -30 31 -54 31 -89 4z m63 -28 c8 -14 6 -23 -9 -36 -23 -20 -50 -14
-50 13 0 39 42 56 59 23z"/>
<path d="M4810 2080 c-44 -44 -12 -113 52 -113 35 0 78 40 78 74 0 31 -36 59
-75 59 -22 0 -43 -8 -55 -20z m64 -6 c20 -8 21 -38 1 -54 -30 -25 -70 15 -45
45 14 17 21 18 44 9z"/>
<path d="M7613 3643 c-8 -20 4 -28 21 -14 19 16 232 -15 258 -37 15 -13 19
-12 33 2 21 21 21 21 -135 41 -69 9 -135 17 -148 19 -14 2 -26 -2 -29 -11z"/>
<path d="M7685 3575 c-30 -29 -32 -68 -5 -95 31 -31 68 -36 98 -13 38 28 41
75 8 108 -32 32 -70 32 -101 0z m70 -21 c18 -18 16 -33 -7 -47 -35 -22 -66 21
-36 51 16 16 23 15 43 -4z"/>
<path d="M7795 2970 c-4 -6 -3 -16 3 -22 6 -6 12 -6 17 2 4 6 3 16 -3 22 -6 6
-12 6 -17 -2z"/>
<path d="M8202 2721 c-11 -30 -11 -30 38 -91 l19 -25 1 42 c0 23 -4 45 -10 48
-5 3 -10 17 -10 31 0 34 -26 31 -38 -5z"/>
<path d="M7655 2639 c-8 -12 14 -31 30 -26 6 2 10 10 10 18 0 17 -31 24 -40 8z"/>
<path d="M7597 2605 c-4 -8 -2 -17 3 -20 6 -4 10 -4 10 -1 0 2 3 11 6 20 3 9
2 16 -4 16 -5 0 -12 -7 -15 -15z"/>
<path d="M7710 2570 c0 -5 -9 -19 -20 -30 -14 -14 -16 -20 -7 -20 16 0 47 32
47 48 0 7 -4 12 -10 12 -5 0 -10 -4 -10 -10z"/>
<path d="M7521 2124 c-27 -35 -26 -59 4 -89 49 -50 125 -20 125 48 0 43 -26
67 -73 67 -27 0 -41 -7 -56 -26z m77 -6 c16 -16 15 -43 -3 -58 -13 -10 -19
-10 -35 5 -24 22 -25 29 -4 49 19 19 26 20 42 4z"/>
<path d="M8283 2143 c9 -2 23 -2 30 0 6 3 -1 5 -18 5 -16 0 -22 -2 -12 -5z"/>
<path d="M8356 1948 c-6 -30 -2 -47 9 -36 11 10 17 68 8 68 -6 0 -13 -14 -17
-32z"/>
<path d="M8340 1870 c0 -5 -10 -10 -22 -11 -22 0 -22 -1 -3 -9 33 -14 45 -11
45 10 0 11 -4 20 -10 20 -5 0 -10 -4 -10 -10z"/>
<path d="M8268 1863 c7 -3 16 -2 19 1 4 3 -2 6 -13 5 -11 0 -14 -3 -6 -6z"/>
<path d="M3224 3150 c4 -23 2 -32 -10 -37 -9 -3 -20 0 -24 8 -7 11 -14 9 -34
-11 -34 -31 -36 -57 -2 -35 17 12 30 13 49 6 22 -8 28 -6 41 14 19 29 20 57 4
73 -21 21 -31 13 -24 -18z"/>
<path d="M4185 2700 c-33 -10 -55 -19 -48 -19 20 -2 118 22 128 31 14 12 -12
8 -80 -12z"/>
<path d="M3680 2570 c-8 -5 -10 -10 -5 -10 6 0 17 5 25 10 8 5 11 10 5 10 -5
0 -17 -5 -25 -10z"/>
<path d="M3756 2517 c-24 -18 -25 -76 -1 -93 44 -33 105 -4 105 48 0 48 -62
75 -104 45z m48 -13 c22 -8 20 -41 -2 -53 -32 -17 -56 21 -30 47 14 14 12 14
32 6z"/>
<path d="M3004 2439 c-10 -17 23 -46 37 -32 7 7 9 19 6 27 -7 18 -33 21 -43 5z"/>
<path d="M3137 2443 c-16 -15 -6 -34 15 -31 29 4 38 38 10 38 -10 0 -22 -3
-25 -7z"/>
<path d="M3022 2338 c-16 -16 -15 -38 2 -38 17 0 30 30 18 42 -4 4 -13 3 -20
-4z"/>
<path d="M3074 1948 c-4 -14 -1 -25 8 -32 8 -6 18 -23 22 -38 10 -41 26 -34
26 12 0 29 -4 40 -15 40 -8 0 -15 6 -15 14 0 25 -18 28 -26 4z"/>
<path d="M3415 1744 c-10 -10 -15 -29 -13 -48 3 -27 7 -31 34 -34 37 -4 64 19
64 52 0 44 -52 62 -85 30z m50 -29 c0 -13 -8 -21 -22 -23 -17 -3 -23 2 -23 16
0 10 3 22 7 26 13 13 38 1 38 -19z"/>
<path d="M8960 3392 c0 -4 21 -13 48 -19 124 -28 466 -128 622 -181 62 -21 75
-37 159 -191 57 -106 63 -126 25 -90 l-26 24 4 -30 c3 -27 7 -30 38 -30 32 0
37 -5 62 -50 l27 -50 -35 -165 c-45 -217 -61 -279 -75 -296 -7 -8 -9 -29 -6
-48 3 -20 -9 -100 -32 -205 -42 -187 -62 -228 -108 -216 -18 4 -25 0 -33 -20
-6 -17 -49 -51 -122 -99 -190 -122 -151 -114 -323 -72 -81 20 -150 35 -151 33
-2 -2 66 -24 152 -49 l157 -45 205 134 206 134 37 182 c38 189 45 217 60 217
5 0 6 13 3 29 -4 17 -1 51 5 78 45 201 82 399 78 419 -2 13 -55 108 -118 212
l-114 190 -235 71 c-271 82 -479 141 -497 141 -7 0 -13 -4 -13 -8z"/>
<path d="M9015 3305 c-14 -13 -25 -33 -25 -44 0 -32 42 -73 75 -73 32 0 75 41
75 71 0 28 -46 71 -75 71 -14 0 -37 -11 -50 -25z m79 -27 c8 -14 7 -21 -6 -34
-30 -30 -75 9 -48 42 16 18 39 15 54 -8z"/>
<path d="M9226 2963 c-3 -15 -24 -129 -47 -253 -53 -290 -128 -670 -133 -679
-3 -3 55 -22 128 -40 l133 -34 76 47 c43 27 77 49 77 50 0 2 16 81 35 176 19
95 35 175 35 177 0 3 9 1 20 -2 24 -8 27 10 3 23 -15 9 -14 22 16 166 l33 156
-48 76 c-27 41 -52 78 -57 81 -4 2 -58 20 -120 38 -62 18 -119 36 -129 40 -12
5 -17 0 -22 -22z"/>
<path d="M9595 2420 c-25 -27 -12 -37 15 -12 12 11 17 23 12 26 -5 3 -17 -3
-27 -14z"/>
<path d="M9620 2380 c0 -5 4 -10 9 -10 6 0 13 5 16 10 3 6 -1 10 -9 10 -9 0
-16 -4 -16 -10z"/>
<path d="M9736 2363 c-12 -12 -6 -33 9 -33 8 0 15 6 15 14 0 17 -14 28 -24 19z"/>
<path d="M8769 1915 c-65 -35 -34 -135 41 -135 27 0 70 43 70 70 0 24 -51 80
-72 80 -7 -1 -25 -7 -39 -15z m61 -30 c6 -8 10 -22 8 -32 -4 -24 -47 -24 -62
0 -9 15 -7 21 8 33 25 18 31 18 46 -1z"/>
<path d="M9584 1866 c-7 -29 1 -46 23 -46 11 0 14 6 9 23 -3 12 -6 28 -6 35 0
22 -19 13 -26 -12z"/>
<path d="M6249 1545 c-86 -44 -129 -116 -129 -212 1 -109 68 -197 174 -228 65
-19 111 -13 178 23 164 87 154 339 -16 418 -69 32 -145 32 -207 -1z m161 -100
c45 -23 70 -62 70 -109 -1 -76 -51 -126 -129 -126 -37 0 -49 6 -82 39 -34 34
-39 45 -39 84 0 95 97 155 180 112z"/>
<path d="M10090 1240 c0 -5 5 -10 10 -10 6 0 10 5 10 10 0 6 -4 10 -10 10 -5
0 -10 -4 -10 -10z"/>
<path d="M1640 5401 c-97 -31 -178 -102 -218 -190 -21 -45 -26 -71 -27 -137
l0 -81 -51 -46 c-76 -69 -108 -146 -109 -262 0 -80 3 -97 31 -155 37 -78 97
-140 168 -175 53 -26 149 -47 183 -40 83 17 82 17 93 -23 37 -135 194 -218
316 -167 35 14 37 14 66 -10 16 -14 33 -25 38 -25 4 0 6 -9 3 -20 -9 -32 22
-68 69 -80 24 -6 71 -24 105 -40 70 -34 222 -100 230 -100 14 0 -25 33 -90 76
-40 27 -90 62 -111 79 -22 16 -55 35 -74 40 -47 14 -62 38 -38 64 23 26 13 41
-28 41 -43 0 -82 40 -78 80 5 44 -7 55 -30 31 -10 -12 -23 -19 -29 -16 -5 4
-9 0 -9 -8 0 -8 -14 -20 -30 -27 -81 -33 -181 5 -219 83 -25 51 -27 94 -6 144
8 19 15 37 15 39 0 2 -20 -9 -45 -25 -115 -73 -271 -56 -361 41 -97 102 -107
252 -25 365 37 51 136 103 195 103 52 0 36 18 -31 35 -41 10 -49 17 -57 44
-13 46 9 133 47 184 19 25 54 53 87 70 48 25 64 28 126 25 58 -3 80 -9 120
-33 84 -52 126 -146 99 -223 l-8 -23 35 21 c119 70 279 27 347 -92 26 -45 31
-64 31 -121 0 -85 -26 -143 -88 -197 -62 -55 -152 -77 -152 -38 0 7 -16 23
-35 36 -38 24 -41 20 -25 -39 7 -25 22 -44 50 -63 47 -31 42 -31 116 -6 56 18
60 18 72 2 11 -14 14 -15 21 -3 13 20 63 -2 96 -41 50 -59 41 -143 -21 -198
-31 -27 -40 -30 -72 -24 l-36 7 17 -26 c19 -30 22 -58 6 -74 -16 -16 28 -83
56 -83 30 0 49 -24 41 -54 -4 -18 3 -36 32 -73 40 -50 138 -143 152 -143 4 0
-21 43 -56 95 -57 85 -63 100 -62 141 2 40 -1 48 -35 79 -35 32 -49 65 -27 65
6 0 31 19 55 41 102 94 92 248 -22 335 -23 18 -47 34 -54 36 -8 3 -3 17 14 43
84 128 65 309 -45 416 -68 66 -137 94 -235 94 l-81 0 -11 37 c-15 50 -94 134
-155 165 -41 21 -68 27 -136 29 -47 2 -96 0 -110 -5z"/>
<path d="M10678 5395 c-89 -33 -173 -114 -197 -188 l-11 -32 -72 0 c-91 0
-156 -24 -216 -79 -115 -105 -150 -253 -91 -386 11 -24 27 -52 36 -62 14 -16
14 -18 -11 -28 -51 -19 -95 -62 -122 -116 -24 -49 -26 -63 -21 -127 5 -67 3
-74 -21 -99 -31 -34 -21 -50 11 -20 30 28 38 28 68 -4 13 -14 36 -32 51 -40
33 -17 29 -35 -20 -81 -30 -28 -33 -37 -28 -66 5 -28 -3 -47 -54 -131 -33 -55
-58 -101 -55 -104 7 -7 55 39 127 121 52 61 58 72 53 99 -7 32 13 57 47 58 23
0 40 34 32 64 -9 37 4 64 44 91 40 28 33 31 -33 14 -39 -10 -48 -9 -79 10 -71
44 -83 150 -24 216 48 56 128 71 128 25 0 -37 19 -21 50 42 17 34 36 68 41 74
17 20 -10 28 -31 9 -18 -16 -21 -16 -44 -2 -42 28 -80 120 -79 192 2 186 197
304 363 221 l51 -26 -7 23 c-3 12 -10 28 -14 36 -17 32 24 116 80 163 105 90
283 73 361 -35 38 -52 62 -135 54 -181 -6 -29 -12 -36 -39 -42 -17 -3 -46 -14
-65 -24 l-34 -17 55 -6 c97 -10 177 -63 218 -143 21 -40 25 -64 25 -129 0 -69
-4 -87 -29 -132 -54 -98 -138 -146 -256 -146 -65 -1 -85 4 -138 31 -60 29 -63
30 -55 9 4 -12 8 -49 8 -83 0 -50 -5 -67 -27 -96 -34 -45 -90 -72 -149 -71
-51 1 -75 11 -133 57 l-39 30 6 -43 c5 -37 2 -47 -18 -67 -15 -15 -36 -24 -54
-24 -38 0 -48 -16 -25 -41 25 -28 9 -51 -44 -64 -22 -5 -54 -22 -69 -36 -15
-14 -65 -51 -110 -83 -45 -31 -85 -61 -88 -67 -8 -12 76 21 189 76 50 24 110
48 133 54 44 12 86 53 81 80 -2 9 12 28 32 42 33 25 37 25 74 13 126 -45 285
36 318 161 9 33 16 44 28 41 162 -45 338 32 420 186 30 55 35 74 38 153 6 128
-18 188 -107 275 -64 62 -66 67 -60 103 20 127 -58 268 -186 335 -41 21 -66
26 -140 29 -61 2 -102 -2 -127 -12z"/>
<path d="M2641 4706 c-11 -21 -10 -32 14 -85 28 -63 39 -67 56 -24 7 20 5 35
-11 69 -29 60 -44 70 -59 40z"/>
<path d="M2662 4468 c-23 -23 -12 -58 34 -108 25 -27 55 -52 65 -55 10 -3 29
-8 40 -11 20 -6 19 -3 -8 37 -17 24 -33 54 -37 67 -9 29 -54 82 -70 82 -7 0
-17 -5 -24 -12z"/>
<path d="M9769 4423 c-38 -41 -116 -173 -101 -173 5 0 19 11 32 25 13 14 25
23 28 20 9 -9 61 26 83 56 26 37 32 102 9 106 -9 2 -31 -13 -51 -34z"/>
</g>
</svg>
