<?xml version="1.0" standalone="no"?>
<!DOCTYPE svg PUBLIC "-//W3C//DTD SVG 20010904//EN"
 "http://www.w3.org/TR/2001/REC-SVG-20010904/DTD/svg10.dtd">
<svg version="1.0" xmlns="http://www.w3.org/2000/svg"
 width="1254.000000pt" height="1254.000000pt" viewBox="0 0 1254.000000 1254.000000"
 preserveAspectRatio="xMidYMid meet">

<g transform="translate(0.000000,1254.000000) scale(0.100000,-0.100000)"
fill="#000000" stroke="none">
<path d="M5620 11856 c-118 -73 -327 -202 -465 -288 l-250 -155 -5 -697 -5
-697 -117 -39 c-895 -300 -1618 -927 -2052 -1780 -436 -857 -539 -1896 -280
-2830 181 -653 485 -1181 944 -1641 400 -401 869 -698 1389 -879 l121 -43 0
-663 0 -662 173 -130 c94 -71 309 -233 477 -360 l305 -231 3 927 2 927 405 0
405 0 0 -928 0 -927 188 142 c103 79 314 240 469 358 l283 215 0 652 0 652 43
11 c501 129 1121 397 1622 702 l90 54 68 245 c37 134 119 429 182 654 62 226
152 550 200 720 98 351 199 721 309 1130 41 154 93 347 115 430 23 82 41 153
41 157 0 4 -816 8 -1814 8 l-1814 0 -23 -67 c-12 -38 -107 -315 -210 -617
-104 -301 -189 -552 -189 -557 0 -5 490 -9 1165 -9 925 0 1165 -3 1165 -12 0
-7 -20 -74 -44 -148 -25 -74 -117 -356 -206 -626 l-160 -492 -113 -50 c-185
-83 -410 -166 -421 -154 -3 3 -6 221 -6 484 l0 478 -470 0 -470 0 0 -574 0
-575 -47 -8 c-63 -10 -632 -10 -705 0 l-58 8 0 2425 c0 2300 1 2425 18 2432
23 10 708 9 755 -1 l37 -8 0 -704 0 -705 470 0 470 0 0 570 c0 503 2 570 15
570 22 0 221 -101 340 -173 179 -107 382 -256 580 -425 33 -29 65 -51 70 -51
6 0 78 82 160 182 83 100 282 341 444 535 l294 354 -54 55 c-181 183 -526 441
-799 595 -287 163 -609 296 -925 383 l-120 33 -5 690 -5 691 -130 82 c-308
193 -773 479 -788 485 -16 6 -17 -59 -17 -887 l0 -894 -405 0 -405 0 0 893 c0
707 -3 892 -12 891 -7 0 -110 -60 -228 -133z m-720 -5451 l0 -2135 -80 48
c-604 358 -1002 963 -1121 1702 -39 245 -36 620 8 855 112 611 434 1132 922
1496 82 61 254 169 269 169 1 0 2 -961 2 -2135z"/>
</g>
</svg>
