<?xml version="1.0" standalone="no"?>
<!DOCTYPE svg PUBLIC "-//W3C//DTD SVG 20010904//EN"
 "http://www.w3.org/TR/2001/REC-SVG-20010904/DTD/svg10.dtd">
<svg version="1.0" xmlns="http://www.w3.org/2000/svg"
 width="1254.000000pt" height="1254.000000pt" viewBox="0 0 1254.000000 1254.000000"
 preserveAspectRatio="xMidYMid meet">

<g transform="translate(0.000000,1254.000000) scale(0.100000,-0.100000)"
fill="#000000" stroke="none">
<path d="M4274 10406 c-102 -25 -185 -93 -228 -185 -18 -40 -21 -65 -21 -196
0 -139 2 -154 24 -199 28 -58 85 -117 129 -137 l32 -14 0 -322 0 -323 -1018
-2 -1017 -3 -68 -33 c-79 -39 -129 -98 -153 -180 -25 -84 -16 -290 15 -360 28
-61 74 -106 148 -139 l53 -24 0 -2715 0 -2714 -91 0 c-120 0 -163 -14 -220
-70 -63 -63 -72 -100 -67 -296 3 -131 6 -165 22 -194 26 -49 55 -78 101 -103
l40 -22 4310 0 c3994 0 4312 1 4340 17 45 24 85 68 106 113 16 34 19 67 19
211 0 162 -1 172 -25 221 -45 90 -113 123 -251 123 l-94 0 0 2718 0 2719 42
12 c59 18 140 102 162 169 25 73 20 319 -7 373 -31 62 -85 116 -145 146 l-57
28 -1030 5 -1030 5 -3 316 -2 315 51 33 c109 72 143 157 137 349 -3 114 -7
133 -31 184 -33 67 -89 121 -166 157 l-56 26 -1950 2 c-1530 1 -1961 -1 -2001
-11z m3932 -205 c57 -26 74 -66 74 -174 0 -103 -9 -131 -52 -157 -33 -20 -48
-20 -1990 -18 l-1958 3 -27 28 c-26 26 -28 34 -31 126 -5 123 11 164 72 192
39 18 114 19 1956 19 1842 0 1917 -1 1956 -19z m-106 -3946 l0 -3395 -190 0
-190 0 2 617 3 618 37 6 c40 6 83 31 110 63 54 67 50 289 -8 412 -32 68 -115
148 -194 187 l-65 32 -1355 0 -1355 0 -58 -27 c-81 -38 -168 -124 -203 -201
-27 -58 -29 -72 -32 -207 -3 -138 -2 -147 20 -179 31 -46 69 -73 115 -80 l38
-6 3 -618 2 -617 -187 2 -188 3 -3 3393 -2 3392 1850 0 1850 0 0 -3395z
m-3892 2402 l2 -177 -1006 2 -1006 3 -29 33 c-28 31 -29 35 -29 137 0 101 1
106 29 137 28 31 34 33 113 38 45 3 497 5 1003 4 l920 0 3 -177z m6093 173
c67 -18 79 -46 79 -175 0 -104 -2 -114 -24 -138 -13 -14 -39 -28 -57 -32 -19
-3 -477 -4 -1019 -3 l-985 3 -3 172 -2 173 162 2 c495 9 1815 7 1849 -2z
m-6091 -3255 l0 -2715 -925 0 -925 0 0 2715 0 2715 925 0 925 0 0 -2715z
m5950 0 l0 -2715 -932 2 -933 3 -3 2700 c-1 1485 0 2706 3 2713 3 9 200 12
935 12 l930 0 0 -2715z m-2538 -1000 c67 -48 91 -101 92 -204 l1 -86 -1465 0
-1465 0 1 87 c1 78 4 92 30 135 20 33 46 57 79 75 l50 28 1317 -3 1316 -2 44
-30z m-2392 -1190 l0 -705 -135 0 -135 0 0 705 0 705 135 0 135 0 0 -705z
m940 408 c1 -164 1 -480 1 -703 l0 -405 -386 -3 -385 -2 0 705 0 705 385 0
385 0 0 -297z m930 -408 l0 -705 -385 0 -385 0 0 705 0 705 385 0 385 0 0
-705z m440 0 l0 -705 -135 0 -135 0 0 705 0 705 135 0 135 0 0 -705z m-2760
-746 c0 -37 15 -68 44 -91 20 -16 110 -18 1428 -18 l1407 0 26 23 c20 17 28
35 32 70 l6 47 1388 0 c1376 0 1389 0 1409 -20 18 -18 20 -33 20 -134 0 -112
-1 -115 -26 -135 l-27 -21 -4233 2 c-4046 3 -4234 4 -4251 21 -15 14 -19 38
-21 125 -3 97 -2 110 18 135 l21 27 1380 0 1379 0 0 -31z"/>
<path d="M5019 9242 c-117 -31 -211 -109 -261 -218 -22 -48 -23 -58 -26 -431
l-3 -382 35 -38 34 -38 325 0 c315 0 326 1 354 21 51 38 55 66 51 454 l-3 355
-27 57 c-54 116 -169 204 -297 228 -72 13 -104 12 -182 -8z m41 -322 l0 -180
-95 0 -95 0 0 76 c0 100 15 155 56 202 29 34 103 82 127 82 4 0 7 -81 7 -180z
m188 161 c96 -49 131 -117 132 -248 l0 -93 -90 0 -90 0 0 180 c0 99 2 180 5
180 3 0 23 -9 43 -19z m-188 -641 l0 -160 -95 0 -95 0 0 153 c0 85 3 157 7
160 3 4 46 7 95 7 l88 0 0 -160z m320 0 l0 -160 -90 0 -90 0 0 160 0 160 90 0
90 0 0 -160z"/>
<path d="M6158 9245 c-32 -8 -76 -24 -99 -36 -61 -30 -136 -111 -167 -177
l-27 -57 -3 -379 c-3 -418 -5 -406 61 -446 30 -19 52 -20 330 -20 252 0 304 2
332 16 66 31 65 24 66 436 1 414 2 413 -68 512 -88 125 -272 190 -425 151z
m30 -331 l-3 -169 -92 -3 -93 -3 0 82 c0 102 13 148 59 200 36 43 110 84 124
70 4 -4 6 -84 5 -177z m259 112 c50 -52 63 -94 63 -203 l0 -83 -90 0 -90 0 0
180 0 180 38 -15 c20 -8 56 -35 79 -59z m-260 -588 l2 -158 -95 0 -94 0 0 153
c0 85 3 157 7 161 4 4 46 5 93 4 l85 -3 2 -157z m323 2 l0 -160 -90 0 -90 0 0
160 0 160 90 0 90 0 0 -160z"/>
<path d="M7281 9244 c-123 -33 -229 -123 -273 -232 -22 -56 -23 -64 -23 -427
0 -341 1 -372 18 -397 38 -55 58 -58 384 -58 278 0 300 1 330 20 66 40 64 28
61 451 l-3 384 -28 54 c-55 104 -164 184 -285 210 -69 14 -114 13 -181 -5z
m29 -324 l0 -180 -90 0 -90 0 0 93 c0 106 17 153 71 203 32 30 85 63 102 64 4
0 7 -81 7 -180z m210 153 c84 -52 112 -107 118 -235 l5 -98 -97 0 -96 0 0 181
0 180 23 -6 c12 -4 33 -14 47 -22z m-210 -633 l0 -160 -90 0 -90 0 0 160 0
160 90 0 90 0 0 -160z m328 -2 l3 -158 -96 0 -95 0 0 153 c0 85 3 157 7 161 4
4 46 5 93 4 l85 -3 3 -157z"/>
<path d="M5009 7727 c-100 -28 -209 -121 -252 -215 -21 -45 -22 -61 -25 -427
-3 -334 -1 -384 13 -410 31 -60 32 -60 370 -63 281 -2 313 -1 345 15 68 35 70
47 70 428 0 383 -5 423 -65 511 -43 62 -97 107 -173 142 -46 21 -75 27 -147
29 -52 2 -109 -3 -136 -10z m49 -324 l-3 -178 -90 0 -90 0 -3 65 c-7 127 27
206 110 262 79 53 79 53 76 -149z m230 140 c18 -13 45 -43 60 -66 25 -38 27
-48 27 -146 l0 -106 -85 0 -85 0 -3 179 -2 178 27 -7 c16 -3 43 -18 61 -32z
m-228 -623 l0 -160 -95 0 -95 0 0 160 0 160 95 0 95 0 0 -160z m320 0 l0 -160
-90 0 -90 0 0 160 0 160 90 0 90 0 0 -160z"/>
<path d="M6138 7726 c-104 -30 -198 -108 -245 -204 l-28 -57 -3 -387 -3 -387
35 -38 34 -38 311 -3 c275 -3 315 -1 346 14 65 30 65 33 66 436 1 200 -2 377
-6 393 -25 101 -105 194 -212 247 -58 28 -77 33 -157 35 -55 1 -110 -3 -138
-11z m50 -323 l-3 -178 -90 0 -90 0 0 95 c0 120 25 177 99 228 87 58 87 59 84
-145z m232 138 c19 -15 48 -52 63 -81 25 -50 27 -63 25 -145 l-3 -90 -87 -3
-88 -3 0 182 0 181 28 -7 c15 -3 43 -19 62 -34z m-230 -621 l0 -160 -95 0 -95
0 0 160 0 160 95 0 95 0 0 -160z m320 0 l0 -160 -90 0 -90 0 0 160 0 160 90 0
90 0 0 -160z"/>
<path d="M7277 7730 c-111 -28 -209 -110 -260 -218 l-32 -67 0 -375 c0 -345 1
-377 18 -402 39 -57 57 -59 398 -56 l311 3 34 38 35 38 -3 387 -3 387 -28 56
c-34 70 -119 152 -194 186 -45 21 -75 27 -147 29 -50 2 -108 -1 -129 -6z m320
-243 c34 -51 47 -113 41 -207 l-3 -55 -90 0 -90 0 -3 170 c-1 93 0 175 3 183
9 24 105 -38 142 -91z m-287 -87 l0 -181 -87 3 -88 3 -3 80 c-4 99 10 153 54
203 31 37 85 71 112 72 9 0 12 -43 12 -180z m0 -480 l0 -160 -90 0 -90 0 0
160 0 160 90 0 90 0 0 -160z m330 0 l0 -160 -95 0 -95 0 0 160 0 160 95 0 95
0 0 -160z"/>
<path d="M5003 6205 c-99 -30 -204 -121 -246 -213 -21 -45 -22 -61 -25 -435
l-3 -388 35 -35 34 -34 325 0 c318 0 325 0 352 22 53 41 55 59 55 421 0 377
-5 414 -68 507 -43 64 -137 132 -214 155 -62 18 -187 19 -245 0z m57 -320 l0
-175 -96 0 -96 0 4 98 c3 85 7 104 32 146 28 48 103 106 138 106 17 0 18 -13
18 -175z m183 166 c40 -16 99 -73 118 -116 14 -29 19 -65 19 -132 l0 -93 -90
0 -90 0 0 175 c0 102 4 175 9 175 5 0 21 -4 34 -9z m-183 -651 l0 -161 -92 3
-93 3 -3 158 -3 157 96 0 95 0 0 -160z m320 0 l0 -160 -90 0 -90 0 0 160 0
160 90 0 90 0 0 -160z"/>
<path d="M6133 6206 c-100 -33 -204 -123 -246 -214 -21 -45 -22 -61 -25 -423
-2 -238 1 -385 7 -402 6 -15 25 -36 43 -47 31 -19 51 -20 352 -20 l318 0 34
34 34 34 0 384 0 383 -29 62 c-37 77 -105 144 -190 186 -57 28 -76 32 -160 34
-61 2 -111 -2 -138 -11z m57 -321 l0 -175 -95 0 -95 0 0 83 c1 124 40 205 118
247 73 38 72 41 72 -155z m198 156 c85 -44 121 -117 122 -243 l0 -88 -90 0
-90 0 0 175 c0 114 4 175 10 175 6 0 27 -9 48 -19z m-200 -638 l-3 -158 -90 0
-90 0 -3 158 -3 157 96 0 96 0 -3 -157z m322 -3 l0 -160 -90 0 -90 0 0 160 0
160 90 0 90 0 0 -160z"/>
<path d="M7255 6203 c-152 -54 -242 -156 -265 -299 -13 -80 -13 -669 0 -716 6
-20 24 -48 41 -62 l31 -26 316 0 c299 0 319 1 350 20 18 11 37 32 43 47 6 17
9 164 7 402 l-3 376 -28 57 c-34 69 -115 146 -195 184 -75 37 -219 44 -297 17z
m55 -313 l0 -180 -90 0 -90 0 0 83 c0 104 11 143 55 194 27 31 103 83 123 83
1 0 2 -81 2 -180z m226 138 c71 -48 97 -106 102 -224 l4 -94 -96 0 -96 0 0
175 c0 201 0 201 86 143z m-226 -628 l0 -160 -90 0 -90 0 0 160 0 160 90 0 90
0 0 -160z m328 3 l-3 -158 -90 0 -90 0 -3 158 -3 157 96 0 96 0 -3 -157z"/>
<path d="M3140 7972 c-132 -44 -221 -116 -272 -220 l-33 -67 -3 -392 c-3 -435
-3 -436 61 -470 29 -16 66 -18 382 -18 386 0 399 2 435 60 19 31 20 49 20 407
0 299 -3 385 -15 423 -32 108 -143 220 -263 266 -81 31 -236 36 -312 11z m68
-339 l-3 -188 -107 -3 -108 -3 0 96 c0 141 36 211 132 259 93 46 89 53 86
-161z m229 162 c96 -48 133 -121 133 -260 l0 -95 -110 0 -110 0 0 190 c0 217
-4 210 87 165z m-229 -662 l-3 -168 -107 -3 -108 -3 0 171 0 170 110 0 110 0
-2 -167z m362 -3 l0 -170 -110 0 -110 0 0 170 0 170 110 0 110 0 0 -170z"/>
<path d="M3128 6431 c-118 -38 -216 -119 -266 -220 l-27 -56 0 -406 c0 -393 1
-408 20 -429 42 -48 62 -50 425 -50 378 0 393 2 430 62 20 32 20 45 18 423
l-3 390 -33 67 c-54 109 -169 199 -293 227 -70 17 -207 12 -271 -8z m82 -337
l0 -184 -110 0 -110 0 0 97 c0 114 18 163 82 218 39 33 115 67 131 58 4 -2 7
-87 7 -189z m216 171 c46 -19 100 -71 123 -119 17 -34 21 -62 21 -139 l0 -97
-110 0 -110 0 0 191 0 190 23 -7 c12 -3 36 -12 53 -19z m-218 -667 l2 -168
-110 0 -110 0 0 170 0 171 108 -3 107 -3 3 -167z m360 0 l2 -168 -110 0 -110
0 0 170 0 171 108 -3 107 -3 3 -167z"/>
<path d="M3174 4905 c-136 -30 -260 -122 -312 -233 l-27 -57 -3 -392 c-2 -340
-1 -396 13 -422 30 -60 38 -61 435 -61 397 0 405 1 435 61 14 26 15 82 13 422
l-3 392 -27 56 c-34 67 -124 156 -196 193 -103 52 -213 66 -328 41z m36 -345
l0 -190 -110 0 -110 0 0 100 c0 113 13 151 72 207 32 31 109 72 136 73 9 0 12
-45 12 -190z m204 175 c51 -22 116 -83 137 -130 14 -30 19 -65 19 -137 l0 -98
-110 0 -110 0 0 190 c0 210 -3 203 64 175z m-204 -675 l0 -170 -110 0 -110 0
0 170 0 170 110 0 110 0 0 -170z m360 0 l0 -170 -110 0 -110 0 0 170 0 170
110 0 110 0 0 -170z"/>
<path d="M9060 7968 c-128 -45 -214 -118 -268 -228 l-27 -55 0 -403 0 -404 36
-33 c50 -45 83 -48 456 -43 270 3 312 6 341 22 60 31 62 46 62 445 0 221 -4
380 -11 411 -23 109 -140 232 -267 281 -87 34 -236 37 -322 7z m80 -338 l0
-190 -110 0 -110 0 0 98 c0 111 16 156 71 211 35 35 101 70 132 71 16 0 17
-16 17 -190z m215 171 c52 -23 103 -74 126 -126 14 -30 19 -65 19 -138 l0 -98
-107 3 -108 3 -3 188 c-3 211 -6 204 73 168z m-215 -671 l0 -170 -110 0 -110
0 0 170 0 170 110 0 110 0 0 -170z m360 0 l0 -170 -110 0 -110 0 0 170 0 170
110 0 110 0 0 -170z"/>
<path d="M9087 6439 c-119 -28 -237 -120 -289 -227 l-33 -67 -3 -390 c-2 -369
-1 -392 17 -421 38 -62 52 -64 430 -64 379 0 394 2 431 62 19 32 20 50 20 404
0 410 -3 432 -63 521 -84 121 -231 194 -387 192 -47 -1 -102 -5 -123 -10z m53
-339 l0 -190 -110 0 -110 0 0 93 c0 98 18 157 63 206 20 21 130 81 150 81 4 0
7 -85 7 -190z m227 158 c52 -24 106 -85 121 -137 7 -21 12 -77 12 -125 l0 -86
-110 0 -110 0 0 191 0 190 23 -6 c12 -4 41 -16 64 -27z m-229 -660 l2 -168
-110 0 -110 0 0 170 0 171 108 -3 107 -3 3 -167z m360 0 l2 -168 -110 0 -110
0 0 163 c0 90 3 167 7 171 4 4 52 5 107 4 l101 -3 3 -167z"/>
<path d="M9103 4905 c-156 -34 -286 -147 -327 -285 -24 -81 -24 -766 0 -816
30 -64 33 -64 442 -64 l370 0 30 28 c17 16 33 44 37 63 3 19 5 203 3 409 l-3
375 -29 58 c-35 68 -122 155 -194 191 -104 53 -213 66 -329 41z m37 -345 l0
-190 -110 0 -110 0 0 97 c0 112 18 162 78 214 35 31 105 68 130 69 9 0 12 -45
12 -190z m215 166 c107 -51 145 -119 145 -261 l0 -95 -110 0 -110 0 0 190 c0
145 3 190 13 190 6 0 35 -11 62 -24z m-215 -666 l0 -170 -110 0 -110 0 0 170
0 170 110 0 110 0 0 -170z m360 0 l0 -170 -110 0 -110 0 0 170 0 170 110 0
110 0 0 -170z"/>
<path d="M5883 3451 c-38 -24 -53 -49 -53 -91 0 -66 45 -110 111 -110 65 0
108 43 109 107 0 87 -94 140 -167 94z"/>
<path d="M6503 3450 c-40 -24 -53 -48 -53 -97 1 -60 46 -103 110 -103 67 0
110 45 110 113 0 39 -21 72 -60 92 -39 20 -69 19 -107 -5z"/>
</g>
</svg>
