<?xml version="1.0" standalone="no"?>
<!DOCTYPE svg PUBLIC "-//W3C//DTD SVG 20010904//EN"
 "http://www.w3.org/TR/2001/REC-SVG-20010904/DTD/svg10.dtd">
<svg version="1.0" xmlns="http://www.w3.org/2000/svg"
 width="1254.000000pt" height="1254.000000pt" viewBox="0 0 1254.000000 1254.000000"
 preserveAspectRatio="xMidYMid meet">

<g transform="translate(0.000000,1254.000000) scale(0.100000,-0.100000)"
fill="#000000" stroke="none">
<path d="M6156 10330 c-61 -16 -157 -65 -206 -107 -106 -89 -1363 -1181 -1875
-1628 -82 -72 -267 -232 -410 -357 -1026 -891 -1387 -1210 -1418 -1255 -75
-109 -110 -253 -88 -368 17 -97 47 -167 97 -235 50 -66 149 -137 229 -165 89
-31 227 -31 308 0 16 7 17 -76 17 -1627 l0 -1635 -65 -6 c-82 -8 -142 -34
-192 -84 -71 -71 -78 -96 -78 -283 0 -156 1 -168 25 -213 27 -55 70 -96 133
-129 l42 -23 3575 -3 c3998 -2 3640 -9 3727 71 77 71 87 100 91 271 5 174 -4
217 -59 286 -49 62 -126 100 -214 108 l-65 5 0 1634 c0 1552 1 1634 18 1629
191 -58 380 -11 506 125 187 202 181 514 -14 709 -59 59 -275 252 -722 644
l-158 138 0 693 0 693 41 33 c25 19 51 54 65 83 22 46 24 65 24 196 0 124 -3
151 -21 190 -26 58 -62 96 -124 128 l-50 27 -590 0 c-657 0 -622 3 -703 -69
-22 -20 -50 -58 -63 -84 -21 -42 -23 -61 -24 -192 0 -132 2 -149 23 -192 13
-27 41 -63 63 -81 l39 -34 0 -122 c0 -101 -2 -121 -14 -114 -7 4 -114 95 -237
202 -709 614 -1207 1040 -1249 1069 -74 50 -152 73 -255 78 -49 2 -107 -1
-129 -6z m223 -244 c28 -15 241 -195 746 -632 50 -43 385 -332 745 -643 1297
-1118 2085 -1807 2197 -1916 89 -88 112 -177 77 -294 -18 -63 -81 -136 -139
-162 -53 -25 -135 -24 -183 0 -32 17 -406 341 -973 841 -366 325 -2220 1921
-2382 2052 -118 96 -221 112 -327 51 -27 -15 -223 -179 -437 -364 -213 -185
-527 -456 -698 -604 -669 -577 -894 -772 -1380 -1200 -650 -572 -876 -767
-910 -781 -50 -21 -128 -18 -178 7 -98 49 -151 134 -151 244 -1 114 15 136
231 326 337 295 1452 1267 1794 1564 370 320 879 763 1299 1129 460 401 427
373 477 392 48 18 148 12 192 -10z m2879 -448 c8 -8 12 -46 12 -103 0 -57 -4
-95 -12 -103 -17 -17 -1089 -17 -1106 0 -8 8 -12 46 -12 103 0 57 4 95 12 103
17 17 1089 17 1106 0z m-118 -1028 c0 -319 -2 -580 -5 -580 -3 0 -107 89 -232
198 -126 108 -319 276 -431 371 l-202 175 0 208 0 208 435 0 435 0 0 -580z
m-2603 357 c1486 -1275 1666 -1431 2651 -2296 l312 -275 0 -1723 0 -1723 -960
0 -960 0 -24 48 c-13 26 -45 67 -71 91 -70 64 -122 84 -242 89 l-103 5 0 989
c0 862 -2 999 -16 1066 -43 209 -169 411 -337 538 -76 58 -219 126 -310 148
-196 48 -415 23 -597 -69 -260 -131 -442 -396 -480 -696 -6 -53 -10 -434 -10
-1030 l0 -946 -98 -5 c-77 -4 -110 -10 -154 -30 -68 -31 -126 -88 -156 -151
l-22 -47 -960 0 -960 0 0 1719 0 1720 348 304 c191 167 498 436 682 597 578
506 670 586 1285 1117 330 285 666 575 748 646 81 70 156 127 167 127 11 0
128 -93 267 -213z m-132 -3252 c94 -20 217 -82 288 -146 78 -69 149 -173 187
-271 49 -126 52 -214 48 -1218 l-3 -895 -658 -3 -658 -2 3 992 c4 1114 -2
1032 80 1198 81 166 259 306 438 344 86 19 189 19 275 1z m934 -2789 c14 -15
25 -43 30 -77 4 -30 13 -65 20 -77 29 -54 -13 -52 1252 -52 1077 0 1174 -1
1191 -17 15 -14 18 -32 18 -124 0 -104 -1 -108 -26 -128 l-27 -21 -3534 2
-3535 3 -19 24 c-16 19 -19 40 -19 122 0 157 -158 139 1210 139 1263 0 1222
-2 1251 52 7 12 16 48 20 78 6 41 15 61 34 78 l26 22 1043 0 1043 0 22 -24z"/>
<path d="M6118 8199 c-242 -49 -450 -246 -530 -499 -19 -63 -23 -95 -22 -205
1 -112 5 -141 27 -210 38 -114 90 -198 183 -291 67 -68 96 -89 175 -127 215
-103 425 -103 639 0 81 39 108 59 182 134 69 70 95 104 127 171 61 128 76 193
75 338 -1 143 -22 226 -89 347 -46 82 -175 213 -257 261 -109 64 -188 85 -333
88 -71 2 -151 -1 -177 -7z m62 -394 l0 -215 -211 0 -211 0 6 38 c11 61 70 174
120 229 56 62 137 118 209 143 94 33 87 49 87 -195z m320 168 c102 -49 189
-136 235 -235 18 -40 37 -90 41 -110 l6 -38 -211 0 -211 0 0 216 0 217 33 -7
c17 -3 66 -23 107 -43z m-320 -778 l0 -215 -27 6 c-99 24 -215 93 -278 166
-43 50 -101 167 -111 221 l-6 37 211 0 211 0 0 -215z m596 178 c-20 -115 -132
-265 -247 -330 -42 -24 -145 -63 -166 -63 -2 0 -3 97 -3 215 l0 215 211 0 211
0 -6 -37z"/>
<path d="M3655 5747 c-82 -32 -136 -87 -163 -166 -17 -49 -17 -1247 0 -1303
17 -57 88 -133 146 -155 43 -17 87 -18 552 -18 567 0 552 -2 631 72 87 82 84
51 83 758 -1 599 -1 622 -21 665 -27 61 -67 106 -117 133 -41 22 -46 22 -561
24 -383 1 -528 -1 -550 -10z m445 -452 l0 -275 -215 0 -215 0 0 253 c0 261 2
272 42 293 9 5 100 8 202 6 l186 -3 0 -274z m596 254 c17 -19 19 -39 20 -233
0 -116 -1 -230 -4 -253 l-4 -43 -214 0 -214 0 0 275 0 275 198 0 c190 0 200
-1 218 -21z m-596 -984 l0 -275 -193 0 c-181 0 -195 1 -215 20 -22 20 -22 26
-22 275 l0 255 215 0 215 0 0 -275z m615 38 c-2 -131 -4 -246 -4 -255 -1 -10
-10 -27 -21 -38 -19 -19 -33 -20 -215 -20 l-195 0 0 275 0 275 219 0 219 0 -3
-237z"/>
<path d="M7804 5744 c-60 -22 -118 -75 -145 -136 l-24 -53 0 -625 c0 -613 0
-626 21 -670 26 -57 76 -106 134 -134 44 -21 56 -21 560 -21 573 0 548 -3 628
69 22 20 49 59 61 86 21 49 21 55 19 682 -3 705 1 665 -73 741 -72 74 -50 72
-625 74 -432 1 -522 -1 -556 -13z m456 -449 l0 -275 -215 0 -215 0 0 257 c0
225 2 259 17 275 15 16 35 18 215 18 l198 0 0 -275z m590 255 c19 -19 20 -33
20 -275 l0 -255 -215 0 -215 0 0 275 0 275 195 0 c182 0 196 -1 215 -20z
m-590 -985 l0 -275 -195 0 c-182 0 -196 1 -215 20 -19 19 -20 33 -20 275 l0
255 215 0 215 0 0 -275z m610 21 l0 -255 -26 -20 c-25 -20 -40 -21 -215 -21
l-189 0 0 275 0 275 215 0 215 0 0 -254z"/>
<path d="M6550 4453 c-32 -11 -81 -69 -91 -106 -13 -48 -4 -93 28 -135 66 -88
206 -83 263 10 43 71 18 175 -52 218 -32 19 -111 26 -148 13z"/>
</g>
</svg>
